# Blender v2.78 (sub 0) OBJ File: ''
# www.blender.org
mtllib 4.mtl
o Icosphere.001
v -0.700063 -0.593414 1.204674
v -0.160806 -0.671932 1.163037
v -0.423675 -0.146194 1.354025
v -1.011461 -0.146194 1.163042
v -1.011897 -0.144758 1.162132
v -0.658885 -0.739224 1.077940
v 0.144831 -0.619846 0.975115
v -0.815018 -0.615332 1.106789
v -1.012159 -0.146194 1.162081
v -1.011825 -0.148102 1.161920
v -0.343375 -0.811401 1.030393
v -0.107895 -0.777758 1.000185
v -0.406211 -0.117935 1.344588
v -0.794519 0.204833 1.163038
v -0.458264 -0.077016 1.328894
v -0.361992 -0.146194 1.333983
v 0.024572 -0.371976 1.163040
v 0.242121 -0.472914 0.970661
v -0.801812 0.212178 1.154907
vn 0.0247 -0.3304 0.9435
vn -0.3066 -0.1256 0.9435
vn -0.8027 0.1256 0.5830
vn -0.7947 -0.1875 0.5773
vn -0.5746 -0.3304 0.7488
vn -0.4089 -0.6617 0.6284
vn -0.0385 -0.6617 0.7488
vn 0.1876 -0.7947 0.5773
vn 0.4713 -0.6617 0.5831
vn -0.1354 0.0597 -0.9890
vn 0.5346 -0.3304 0.7779
vn 0.3035 -0.1876 0.9342
vn -0.3035 0.1876 0.9342
vn -0.5346 0.3304 0.7779
vn -0.0247 0.3304 0.9435
vn 0.3066 0.1256 0.9435
vn 0.5621 0.7982 0.2168
usemtl Material.001
s off
f 1//1 2//1 3//1
f 1//2 3//2 4//2
f 9//3 4//3 5//3
f 9//4 10//4 4//4
f 8//5 1//5 4//5 10//5
f 6//6 1//6 8//6
f 11//7 2//7 1//7 6//7
f 11//8 12//8 2//8
f 12//9 7//9 2//9
f 12//10 11//10 6//10 8//10 10//10 9//10 5//10 19//10 18//10 7//10
f 2//11 7//11 18//11 17//11
f 3//12 2//12 17//12 16//12
f 4//13 3//13 15//13 14//13
f 4//14 14//14 19//14 5//14
f 3//15 13//15 15//15
f 3//16 16//16 13//16
f 19//17 14//17 15//17 13//17 16//17 17//17 18//17
