# Blender v2.78 (sub 0) OBJ File: ''
# www.blender.org
mtllib 5.mtl
o Icosphere.003
v -0.423675 -1.146194 0.292876
v 0.299932 -0.593413 0.818602
v -0.586131 -0.996848 0.792871
v 0.001648 -0.996848 0.601888
v 0.426973 -0.671930 0.292876
v 0.001648 -0.996848 -0.016135
v -0.949405 -0.996846 0.292876
v -1.111864 -0.671930 0.792873
v 0.168375 -0.146194 0.601889
v 0.264514 0.379542 0.792873
v -1.011897 -0.144758 1.100983
v 0.037272 0.336215 0.986372
v -0.705173 0.376369 1.090434
v -0.186377 0.439443 1.023217
v -0.658885 -0.739224 1.016791
v 0.144831 -0.619846 0.913966
v -0.815018 -0.615332 1.045640
v 0.256665 -0.450948 0.908846
v -0.690685 0.387827 1.089142
v -0.664817 0.396142 1.086102
v 0.213850 0.114251 0.948807
v 0.165494 -0.146194 0.939714
v -1.012159 -0.146194 1.100932
v -1.011825 -0.148102 1.100772
v -0.343375 -0.811401 0.969244
v -0.107895 -0.777758 0.939037
v 0.059699 -0.918333 -0.058311
v -1.240163 -0.623083 0.481828
v -0.515865 -1.061443 0.009139
v -1.098152 0.139253 0.921076
v -0.869039 0.348443 0.989680
v 0.365088 -0.633682 0.036780
v -1.079536 -0.854453 0.292876
v 0.168952 -0.009881 0.481508
v 0.202386 0.345119 0.694984
v 0.123334 0.466796 0.792873
v 0.244260 0.420051 0.730536
v -1.279013 -0.337633 0.671433
v 0.168375 -0.146194 0.396189
v 0.318700 -0.451808 0.163495
v -0.014759 -0.964033 -0.066633
v -0.124693 -0.996848 -0.057187
v -0.836258 -0.996846 0.137146
v -0.976513 -0.942630 0.209447
v -0.215619 0.542988 0.933219
v -0.717498 0.441454 1.006617
v -0.533674 0.496325 0.990821
v -1.243947 -0.146194 0.781901
vn 0.1024 -0.9435 0.3151
vn 0.7002 -0.6617 0.2680
vn -0.2680 -0.9435 0.1947
vn 0.9202 0.3529 0.1697
vn -0.8897 -0.3304 0.3151
vn 0.4911 0.7947 0.3568
vn 0.5746 0.3304 0.7488
vn 0.9831 -0.1828 0.0084
vn 0.5346 -0.3304 0.7779
vn -0.4911 -0.7947 -0.3568
vn -0.4911 -0.7947 0.3568
vn 0.6071 -0.7947 0.0000
vn 0.3313 -0.9435 0.0000
vn 0.1876 -0.7947 0.5773
vn -0.7947 -0.1876 0.5773
vn -0.1876 0.7947 0.5773
vn 0.9582 0.2858 0.0082
vn -0.5746 -0.3304 0.7488
vn 0.4713 -0.6617 0.5831
vn -0.4089 -0.6617 0.6284
vn -0.0385 -0.6617 0.7488
vn -0.4713 0.6617 0.5831
vn -0.8026 0.1256 0.5831
vn 0.1354 -0.0597 0.9890
vn 0.0385 0.6617 0.7488
vn 0.1876 -0.7947 -0.5773
vn 0.8973 0.4414 0.0000
vn 0.4089 0.6617 0.6284
vn 0.8537 -0.2640 -0.4490
vn 1.0000 -0.0042 0.0000
vn 0.9607 -0.0139 -0.2774
vn -0.7240 -0.6617 -0.1947
vn 0.9202 0.3529 -0.1697
vn -0.5346 0.3304 0.7779
vn -0.2680 -0.9435 -0.1947
vn 0.1024 -0.9435 -0.3151
vn -0.7240 -0.6617 0.1947
vn 0.4713 -0.6617 -0.5831
vn 0.7002 -0.6617 -0.2680
vn -0.2254 0.5176 -0.8254
usemtl Material.001
s off
f 1//1 4//1 3//1
f 2//2 4//2 5//2
f 1//3 3//3 7//3
f 2//4 5//4 9//4
f 28//5 8//5 38//5
f 36//6 10//6 37//6
f 21//7 10//7 12//7
f 22//8 9//8 10//8 21//8
f 16//9 2//9 18//9
f 43//10 7//10 44//10
f 7//11 3//11 8//11
f 5//12 4//12 6//12
f 4//13 1//13 6//13
f 3//14 4//14 26//14 25//14
f 38//15 8//15 24//15 23//15 48//15
f 46//16 19//16 20//16 47//16
f 2//17 9//17 22//17 18//17
f 8//18 17//18 24//18
f 4//19 2//19 16//19 26//19
f 3//20 15//20 17//20 8//20
f 3//21 25//21 15//21
f 31//22 13//22 19//22 46//22
f 48//23 23//23 11//23 30//23
f 26//24 16//24 18//24 22//24 21//24 12//24 14//24 20//24 19//24 13//24 11//24 23//24 24//24 17//24 15//24 25//24
f 20//25 14//25 45//25 47//25
f 6//26 42//26 41//26
f 9//27 5//27 40//27 39//27
f 12//28 10//28 36//28 45//28 14//28
f 10//29 35//29 37//29
f 9//30 39//30 34//30
f 9//31 34//31 35//31 10//31
f 7//32 33//32 44//32
f 5//33 32//33 40//33
f 11//34 13//34 31//34 30//34
f 1//35 7//35 43//35 29//35
f 1//36 29//36 42//36 6//36
f 7//37 8//37 28//37 33//37
f 6//38 41//38 27//38
f 5//39 6//39 27//39 32//39
f 47//40 45//40 36//40 37//40 35//40 34//40 39//40 40//40 32//40 27//40 41//40 42//40 29//40 43//40 44//40 33//40 28//40 38//40 48//40 30//40 31//40 46//40
