# Blender v2.78 (sub 0) OBJ File: ''
# www.blender.org
mtllib 6.mtl
o Icosphere.004
v 1.021425 -0.593414 -0.710197
v 2.021420 -0.593413 -0.385273
v 1.574201 0.301026 -0.710197
v 1.818698 0.252368 0.140453
v 1.135357 -0.996848 -0.359543
v 1.560682 -0.671932 -0.668559
v 1.889863 -0.146194 -0.168560
v 1.885598 -0.146194 -0.668564
v 1.297813 -0.146194 -0.859547
v 1.986002 0.379542 -0.359544
v 1.460268 0.704461 0.640448
v 1.823542 0.704458 0.140453
v 1.460268 0.594839 -0.359543
v 1.890604 0.028760 -0.014054
v 1.827332 0.291628 -0.109546
v 1.890604 0.028760 0.294959
v 1.827332 0.291628 0.390451
v 1.746102 0.454086 0.140453
v 1.781186 -0.918333 -0.210735
v 1.205622 -1.061443 -0.143284
v 2.086575 -0.633682 -0.115644
v 1.890440 -0.009881 0.329084
v 1.923873 0.345119 0.542560
v 1.844821 0.466796 0.640449
v 1.965747 0.420051 0.578112
v 1.889863 -0.146194 0.243765
v 2.040188 -0.451808 0.011071
v 1.706728 -0.964033 -0.219057
v 1.596794 -0.996848 -0.209610
v 0.885229 -0.996846 -0.015277
v 0.744975 -0.942630 0.057024
v 1.505869 0.542988 0.780796
v 0.887630 -0.618924 -0.596270
v 0.952786 -0.494837 -0.701020
v 1.348863 0.333836 -0.692798
v 1.492224 0.729494 0.140453
v 1.454358 0.705906 0.622257
v 1.456414 0.598383 -0.347679
v 1.455283 0.594839 -0.357923
v 1.454132 0.591733 -0.364001
v 1.452797 0.704461 0.638020
v 1.209416 0.030599 -0.795323
v 1.125269 -0.146194 -0.803484
v 0.794525 -0.786205 -0.359544
v 1.454909 0.594440 -0.354607
v 0.722273 -0.897228 -0.012845
v 1.447472 0.694685 0.649745
v 1.355603 0.520942 0.808010
v 0.709601 -0.912354 0.085670
vn -0.2680 -0.9435 -0.1947
vn 0.1024 -0.9435 -0.3151
vn 0.5346 -0.3304 -0.7779
vn 0.9582 0.2858 -0.0082
vn 0.4089 0.6617 0.6284
vn 0.8537 -0.2640 0.4490
vn 0.3419 0.8349 -0.4314
vn 0.3174 0.7751 -0.5463
vn -0.0287 0.9957 0.0884
vn 0.0385 0.6617 0.7488
vn 0.9375 0.3374 -0.0854
vn 0.9631 0.2587 0.0739
vn 0.9831 -0.1828 -0.0084
vn 0.5746 0.3304 -0.7488
vn 0.9631 0.2587 -0.0739
vn 0.3066 0.1256 -0.9435
vn 0.3035 -0.1876 -0.9342
vn 0.0247 -0.3304 -0.9435
vn 0.9520 0.3061 0.0000
vn 0.8973 0.4414 0.0000
vn 0.9202 0.3529 -0.1697
vn 0.4713 -0.6617 -0.5831
vn 0.1876 -0.7947 -0.5773
vn -0.0385 -0.6617 -0.7488
vn -0.7240 -0.6617 -0.1947
vn 0.7002 -0.6617 -0.2680
vn -0.4126 0.8273 -0.3812
vn 1.0000 -0.0042 -0.0000
vn 0.8460 0.2706 -0.4594
vn 0.9342 0.0868 0.3461
vn 0.8537 -0.2640 -0.4490
vn 0.9375 0.3374 0.0854
vn -0.1876 0.7947 0.5773
vn 0.4911 0.7947 0.3568
vn 0.2254 -0.5176 0.8254
vn -0.4911 -0.7947 -0.3568
vn -0.3035 0.1876 -0.9342
vn 0.0402 0.9915 0.1238
vn -0.1396 0.8922 -0.4295
vn 0.0727 0.9619 -0.2637
vn 0.0752 0.9957 0.0547
vn 0.0643 0.7751 -0.6286
vn -0.0247 0.3304 -0.9435
vn -0.3066 -0.1256 -0.9435
vn -0.5746 -0.3304 -0.7488
vn -0.4089 -0.6617 -0.6284
vn -0.8638 0.5005 -0.0572
usemtl Material.001
s off
f 20//1 30//1 5//1
f 20//2 5//2 29//2
f 2//3 6//3 8//3
f 2//4 8//4 7//4
f 32//5 24//5 11//5
f 15//6 10//6 12//6 18//6
f 12//7 10//7 13//7
f 10//8 3//8 13//8
f 41//9 11//9 37//9
f 48//10 32//10 11//10 47//10
f 17//11 4//11 18//11
f 14//12 15//12 4//12
f 7//13 8//13 10//13
f 8//14 3//14 10//14
f 16//15 4//15 17//15
f 8//16 9//16 3//16
f 8//17 6//17 9//17
f 6//18 1//18 9//18
f 16//19 14//19 4//19
f 26//20 27//20 7//20
f 21//21 2//21 7//21 27//21
f 28//22 6//22 2//22 19//22
f 29//23 5//23 6//23 28//23
f 5//24 1//24 6//24
f 49//25 46//25 31//25
f 21//26 19//26 2//26
f 38//27 13//27 45//27
f 26//28 7//28 14//28 16//28 22//28
f 22//29 16//29 17//29 23//29
f 7//30 10//30 15//30 14//30
f 23//31 17//31 18//31 12//31 25//31
f 4//32 15//32 18//32
f 41//33 47//33 11//33
f 11//34 24//34 25//34 12//34
f 48//35 49//35 31//35 30//35 20//35 29//35 28//35 19//35 21//35 27//35 26//35 22//35 23//35 25//35 24//35 32//35
f 5//36 30//36 31//36 46//36 44//36
f 9//37 43//37 42//37
f 13//38 39//38 45//38
f 13//39 40//39 39//39
f 12//40 13//40 38//40 36//40
f 11//41 12//41 36//41 37//41
f 3//42 35//42 40//42 13//42
f 9//43 42//43 35//43 3//43
f 1//44 34//44 43//44 9//44
f 1//45 33//45 34//45
f 5//46 44//46 33//46 1//46
f 11//47 12//47 13//47 40//47 35//47 42//47 43//47 34//47 33//47 44//47 46//47 49//47 48//47 47//47
