# Blender v2.78 (sub 0) OBJ File: ''
# www.blender.org
mtllib 2.mtl
o Cube
v 0.628040 -0.714972 -1.036639
v -0.628040 -0.714972 -1.036639
v 0.714972 2.215771 0.370058
v 0.714972 2.097982 0.641208
v 0.714973 1.998387 0.366518
v 0.714972 1.709281 0.135758
v 0.714971 1.148718 -0.224135
v 0.714971 1.130977 0.231133
v 0.714972 0.165054 -0.406797
v 0.714971 -0.064769 -0.554323
v 0.714971 -0.097682 -0.783157
v 0.714971 0.349263 -0.476793
v 0.900185 0.165055 -0.406797
v 0.900184 -0.064769 -0.554323
v 0.900184 -0.097682 -0.783157
v 0.900184 0.349263 -0.476793
v 0.855413 1.709281 0.135758
v 0.855412 1.148718 -0.224135
v 0.855412 1.130977 0.231132
v 0.783969 2.215772 0.370058
v 0.783969 2.097983 0.641208
v 0.783970 1.998388 0.366518
v 0.618371 0.153939 -0.927589
v 0.589181 2.777107 0.595767
v -0.610978 0.818288 -0.844212
v 0.369399 2.857511 0.588287
v 0.714972 2.072250 0.215627
v 0.714972 2.178073 0.277373
v 0.603054 2.768974 0.594456
v 0.714972 1.707361 0.002719
v 0.714972 1.465652 -0.138314
v 0.714971 1.275948 -0.249004
v 0.855412 1.707867 0.037773
v 0.855412 1.354496 -0.168414
v 0.783969 2.065749 0.228910
v 0.783969 2.187181 0.299764
v 0.628040 -0.714972 -1.033637
v -0.628040 -0.714972 -0.715139
v 0.714972 0.163882 -0.309594
v 0.714971 0.343503 -0.157108
v 0.900185 0.164443 -0.356081
v 0.900184 0.344336 -0.203364
v 0.605022 1.353521 0.728207
v 0.253556 2.857511 0.588287
v 0.220524 2.857511 0.551440
v -0.602321 1.596285 -0.388119
v 0.407454 1.300338 0.733155
v -0.624516 -0.398306 -0.447205
vn 0.0000 0.1245 -0.9922
vn 0.9824 0.1825 0.0402
vn 0.0000 0.1627 0.9867
vn 0.0000 -0.5402 0.8415
vn 0.0000 -0.9898 0.1424
vn 0.0000 -0.9999 -0.0121
vn -0.0000 0.5654 -0.8248
vn -0.0000 -0.9992 -0.0389
vn 0.0000 0.9999 -0.0144
vn 1.0000 0.0000 -0.0000
vn -0.0000 0.9172 0.3984
vn -0.0000 0.9263 -0.3768
vn 0.0000 -0.9401 0.3409
vn -0.0000 0.2614 -0.9652
vn 0.0000 -0.8982 -0.4397
vn -0.9999 0.0111 -0.0000
vn -0.0000 0.9998 0.0180
vn 0.9977 -0.0033 0.0678
vn 0.0000 -1.0000 0.0000
vn 0.9749 -0.1952 0.1071
vn 0.1898 -0.6354 0.7485
vn 0.2090 0.4928 -0.8446
vn 0.0000 1.0000 0.0000
vn -0.0000 0.0926 0.9957
vn -0.7445 -0.0115 0.6675
usemtl Material
s off
f 23//1 1//1 2//1 25//1
f 29//2 4//2 3//2 28//2
f 6//3 8//3 19//3 17//3
f 9//4 10//4 14//4 13//4
f 10//5 11//5 15//5 14//5
f 39//6 9//6 13//6 41//6
f 11//7 12//7 16//7 15//7
f 8//8 7//8 18//8 19//8
f 30//9 6//9 17//9 33//9
f 36//10 20//10 21//10 22//10 35//10
f 3//11 4//11 21//11 20//11
f 28//12 3//12 20//12 36//12
f 4//13 5//13 22//13 21//13
f 18//10 34//10 33//10 17//10 19//10
f 7//14 31//14 34//14 18//14
f 5//15 27//15 35//15 22//15
f 32//10 31//10 7//10
f 5//10 8//10 6//10 30//10 27//10
f 48//16 46//16 25//16 2//16 38//16
f 15//10 16//10 42//10 41//10 13//10 14//10
f 12//17 40//17 42//17 16//17
f 1//18 23//18 32//18 7//18 8//18 5//18 4//18 29//18 24//18 43//18 40//18 12//18 11//18
f 1//19 37//19 38//19 2//19
f 10//20 9//20 39//20 37//20 1//20 11//20
f 41//21 42//21 40//21 43//21 47//21 48//21 38//21 37//21 39//21
f 36//22 35//22 27//22 30//22 33//22 34//22 31//22 32//22 23//22 25//22 46//22 45//22 26//22 24//22 29//22 28//22
f 26//23 45//23 44//23
f 43//24 24//24 26//24 44//24 47//24
f 47//25 44//25 45//25 46//25 48//25
