# Blender v2.78 (sub 0) OBJ File: ''
# www.blender.org
mtllib 3.mtl
o Cube.001
v -0.121958 -0.978004 1.471018
v -0.980819 -0.986542 1.479439
v -0.132153 0.042363 1.468102
v -0.998029 0.028905 1.384268
v -0.057670 0.043727 1.650584
v -1.071911 0.027963 1.552385
v -0.122912 -0.978672 1.186791
v -0.980819 -0.986542 1.258656
v -0.121106 0.040403 1.209478
v -1.002433 0.029391 1.283240
v -0.038533 0.040332 1.202542
v -1.083349 0.029224 1.290031
v -0.232397 0.209158 1.222606
v -0.953096 0.145243 1.281693
v -0.125856 -0.089785 1.206959
v -0.118001 -0.838713 1.189515
vn 0.0096 -1.0000 0.0013
vn 0.0154 -0.9999 0.0012
vn 0.9984 -0.0373 0.0429
vn -0.0442 0.0475 0.9979
vn 0.0016 -1.0000 -0.0049
vn -0.6636 0.7474 0.0325
vn 0.9998 0.0100 0.0190
vn -0.0510 0.9244 0.3781
vn 0.6579 0.7528 0.0224
vn -0.0002 -1.0000 0.0076
vn -0.9997 -0.0186 0.0137
vn 0.9994 -0.0350 -0.0033
vn -0.0837 0.0223 -0.9962
usemtl Material
s off
f 7//1 1//1 2//1 8//1
f 4//2 3//2 5//2 6//2
f 9//3 3//3 15//3
f 1//4 3//4 4//4 2//4
f 10//5 4//5 6//5 12//5
f 12//6 6//6 14//6
f 3//7 1//7 16//7 15//7
f 6//8 5//8 13//8 14//8
f 5//9 11//9 13//9
f 3//10 9//10 11//10 5//10
f 2//11 4//11 10//11 8//11
f 1//12 7//12 16//12
f 15//13 16//13 7//13 8//13 10//13 12//13 14//13 13//13 11//13 9//13
