# Blender v2.78 (sub 0) OBJ File: ''
# www.blender.org
mtllib 5.mtl
o Cube.005
v -0.523662 0.266610 0.168517
v -0.042434 0.068425 -0.022761
v -0.987150 -0.688944 -0.093295
v -0.372604 0.354077 0.074425
v -0.522535 0.265881 0.061660
v -0.609506 0.265429 0.079035
v -1.038842 0.033406 0.052515
v -0.128530 0.145280 -0.076992
v -1.011178 -0.438229 -0.183560
v -0.376943 0.354847 0.176024
v -0.610170 0.265395 0.117854
v -0.536709 0.266422 0.169023
v -0.523677 0.274544 0.168494
v -0.230426 0.218795 0.445164
v -0.995334 -0.304300 0.532323
v -1.037023 0.033206 0.094238
v -1.082935 0.033290 0.061380
v -0.609744 0.288410 0.090314
v -0.523027 0.335163 0.095616
v -0.490160 0.352883 0.097626
vn 0.9999 0.0020 0.0171
vn -0.0387 -0.0030 -0.9992
vn 0.5393 -0.7142 0.4462
vn 0.3053 -0.2965 -0.9049
vn -0.9962 -0.0784 0.0369
vn -0.9999 -0.0019 -0.0105
vn -0.0117 0.9999 -0.0081
vn -0.1788 0.4320 -0.8840
vn 0.0016 -1.0000 -0.0049
vn -0.0090 0.9999 -0.0046
vn 0.6579 0.7528 0.0224
vn -0.4138 0.7017 0.5800
usemtl Material
s off
f 18//1 11//1 6//1
f 12//2 13//2 1//2
f 14//3 15//3 3//3 2//3
f 2//4 3//4 9//4 8//4
f 15//5 16//5 7//5 9//5 3//5
f 13//6 19//6 5//6 1//6
f 20//7 10//7 4//7
f 8//8 9//8 7//8 17//8 18//8 6//8 5//8 19//8 20//8 4//8
f 7//9 16//9 17//9
f 5//10 6//10 11//10 12//10 1//10
f 2//11 8//11 4//11 10//11 14//11
f 18//12 17//12 16//12 15//12 14//12 10//12 20//12 19//12 13//12 12//12 11//12
