# Blender v2.78 (sub 0) OBJ File: ''
# www.blender.org
mtllib 7.mtl
o Cube.003
v -0.047333 0.027316 -1.050841
v 0.041684 0.026101 -1.208623
v -0.353565 0.350699 -0.508846
v -0.076862 -0.217711 -0.576714
v -0.085229 0.034039 -0.163607
v 0.001586 0.033215 -0.269857
v -0.359911 0.351825 -0.360264
v -0.434200 0.350872 -0.385014
v -0.042434 0.068425 -0.160288
v -0.511708 0.352476 -0.539862
v -0.518780 0.351907 -0.413888
v -0.058179 -0.106894 -1.064595
v -0.084165 -0.355864 -0.789038
v -0.742119 -0.492505 -0.212528
v -0.236892 0.029446 -1.088019
v -0.029281 0.026899 -1.222541
v -0.825475 -0.375352 -0.279040
v -0.564020 0.163311 -1.010818
vn -0.0002 -1.0000 0.0076
vn 0.9964 -0.0825 0.0194
vn -0.0102 0.9999 -0.0080
vn 0.9984 -0.0373 0.0429
vn 0.6579 0.7528 0.0224
vn 0.0103 0.9999 0.0052
vn -0.9236 0.3802 -0.0501
vn 0.0848 0.9213 -0.3795
vn -0.0115 -0.9999 0.0012
vn -0.3053 0.2965 0.9049
vn 0.5393 -0.7142 0.4462
vn 0.1927 0.0846 -0.9776
vn -0.4167 -0.6546 -0.6307
usemtl Material
s off
f 5//1 1//1 2//1 6//1
f 12//2 1//2 4//2 13//2
f 8//3 7//3 3//3
f 1//4 5//4 4//4
f 6//5 2//5 3//5 7//5 9//5
f 3//6 10//6 11//6 8//6
f 11//7 10//7 18//7 17//7
f 2//8 16//8 18//8 10//8 3//8
f 1//9 15//9 16//9 2//9
f 9//10 7//10 8//10 11//10 17//10 14//10
f 9//11 14//11 13//11 4//11 5//11 6//11
f 1//12 12//12 15//12
f 18//13 16//13 15//13 12//13 13//13 14//13 17//13
