# Blender v2.78 (sub 0) OBJ File: ''
# www.blender.org
mtllib 9.mtl
o Cube.007
v -0.980818 -1.082471 -1.243240
v -0.668147 -1.081143 -1.280194
v -0.095262 -0.661688 -1.301166
v -0.980818 -1.082471 -0.904407
v -0.991722 -0.979919 -1.263401
v -0.609249 -0.062298 -1.350595
v -0.599969 -0.062616 -1.524014
v -0.985300 -0.871821 -0.561788
v -0.942691 -0.749231 -0.417049
v -0.058179 -0.202823 -1.254141
v -0.084165 -0.451793 -0.978585
v -0.742119 -0.588434 -0.402074
v -0.236892 -0.066483 -1.277565
v -0.029281 -0.069030 -1.412087
v -0.825475 -0.471281 -0.468587
v -0.564020 0.067382 -1.200365
vn -0.9980 -0.0620 0.0126
vn 0.0042 -1.0000 0.0000
vn -0.3053 0.2965 0.9049
vn 0.5393 -0.7142 0.4462
vn 0.0848 0.9213 -0.3795
vn -0.0115 -0.9999 0.0012
vn 0.0331 -0.0331 -0.9989
vn -0.9236 0.3802 -0.0501
vn 0.9964 -0.0825 0.0194
vn 0.4167 0.6546 0.6307
usemtl Material
s off
f 8//1 5//1 1//1 4//1
f 2//2 4//2 1//2
f 12//3 15//3 9//3
f 12//4 9//4 8//4 4//4 2//4 3//4 11//4
f 14//5 7//5 16//5
f 13//6 6//6 7//6 14//6
f 10//7 3//7 2//7 1//7 5//7 6//7 13//7
f 15//8 16//8 7//8 6//8 5//8 8//8 9//8
f 3//9 10//9 11//9
f 16//10 15//10 12//10 11//10 10//10 13//10 14//10
