# Blender v2.78 (sub 0) OBJ File: ''
# www.blender.org
mtllib 5.mtl
o Icosphere.006
v 1.033301 -0.828256 -0.525725
v 0.735017 -1.231691 0.309011
v 0.735017 -1.231691 -0.309011
v 0.572563 -0.906774 -0.809012
v 0.897480 -0.381037 -0.809017
v 0.790144 -1.157130 0.349063
v 0.254883 -0.860519 0.833541
v 1.047495 -0.837028 -0.466988
v 1.047294 -0.800743 -0.512393
v 0.788534 -0.224573 -0.823582
v 0.900138 -0.381037 -0.805357
v 0.898182 -0.377358 -0.806855
v 0.990257 -1.036705 -0.123572
v 0.855914 -1.139333 0.221176
v 0.443014 -1.005740 0.714889
v 0.679342 -1.120339 0.480366
v 0.264211 -0.454632 -0.975422
v 0.352249 -0.381037 -0.986173
v 0.322469 -0.406586 -0.990718
v 0.687895 -0.085290 -0.837737
v 0.305922 -0.420233 -0.986374
v 0.224916 -0.856156 0.835854
v 0.434835 -1.337095 0.090919
v 0.421939 -1.341623 -0.081550
v 0.059646 -0.832092 -0.848615
v 0.326265 -1.231691 -0.441825
v 0.262710 -1.143479 -0.583891
v 0.403442 -1.231691 0.416748
v 0.339082 -1.085137 0.639378
v 0.195942 -0.802790 0.855301
v 0.045401 -0.808686 -0.857185
v 0.024282 -0.517732 0.771316
v -0.023512 -0.687998 -0.850863
v 0.012883 -0.558339 0.384444
vn 0.1024 -0.9435 0.3151
vn 0.7002 -0.6617 0.2680
vn 0.1024 -0.9435 -0.3151
vn 0.5346 -0.3304 -0.7779
vn 0.7946 0.1876 -0.5774
vn 0.9050 -0.3304 -0.2680
vn 0.4713 -0.6617 -0.5831
vn -0.0385 -0.6617 -0.7488
vn 0.7002 -0.6617 -0.2680
vn 0.6071 -0.7947 -0.0000
vn 0.1876 -0.7947 0.5773
vn 0.5746 0.3304 -0.7488
vn 0.8026 -0.1256 -0.5831
vn 0.0247 -0.3304 0.9435
vn -0.0385 -0.6617 0.7488
vn 0.4713 -0.6617 0.5831
vn 0.3035 -0.1876 -0.9342
vn 0.3066 0.1256 -0.9435
vn -0.3066 -0.1256 -0.9435
vn -0.6446 0.7621 -0.0610
vn 0.7059 0.5548 0.4403
vn 0.1876 -0.7947 -0.5773
vn 0.0247 -0.3304 -0.9435
vn 0.3313 -0.9435 0.0000
vn -0.8640 -0.4974 0.0777
usemtl None
s off
f 23//1 2//1 28//1
f 6//2 2//2 14//2
f 24//3 26//3 3//3
f 1//4 4//4 5//4
f 11//5 5//5 12//5
f 8//6 1//6 9//6
f 3//7 4//7 1//7
f 27//8 25//8 4//8
f 13//9 3//9 1//9 8//9
f 14//10 2//10 3//10 13//10
f 28//11 2//11 16//11 15//11 29//11
f 5//12 10//12 12//12
f 1//13 5//13 11//13 9//13
f 22//14 7//14 30//14
f 29//15 15//15 7//15 22//15
f 2//16 6//16 16//16
f 5//17 4//17 19//17 18//17
f 5//18 18//18 20//18 10//18
f 31//19 33//19 17//19
f 34//20 21//20 17//20 33//20
f 20//20 18//20 19//20 21//20 34//20 32//20
f 15//21 16//21 6//21 14//21 13//21 8//21 9//21 11//21 12//21 10//21 20//21 32//21 30//21 7//21
f 3//22 26//22 27//22 4//22
f 4//23 25//23 31//23 17//23 21//23 19//23
f 2//24 23//24 24//24 3//24
f 33//25 31//25 25//25 27//25 26//25 24//25 23//25 28//25 29//25 22//25 30//25 32//25 34//25
