# Blender v2.78 (sub 0) OBJ File: ''
# www.blender.org
mtllib 6.mtl
o Icosphere.007
v 1.528843 -0.447220 0.525725
v 1.068104 -0.525738 0.809012
v 0.805235 0.000000 1.000000
v 0.542367 0.525738 0.809012
v 1.285686 -0.776093 0.349063
v 0.750425 -0.479482 0.833541
v 0.599975 -0.332129 0.889084
v 0.168908 0.462094 0.579390
v 0.163893 0.558485 0.465957
v 0.210559 0.721280 0.185971
v 0.292912 0.122103 0.809016
v 0.359993 0.000000 0.855332
v 1.485798 -0.655669 -0.123572
v 1.351456 -0.758297 0.221176
v 0.938556 -0.624703 0.714889
v 1.174884 -0.739303 0.480366
v 1.570360 -0.472879 0.353916
v 1.545292 -0.414876 0.510053
v 0.961571 0.252965 0.915521
v 1.500771 -0.354787 0.584277
v 0.689348 0.504337 0.820360
v 0.468102 0.674270 0.580441
v 0.606490 0.574723 0.762423
v 1.205561 0.000000 0.869926
v 1.316616 -0.123629 0.809016
v 0.321669 0.771879 0.351327
v 0.289218 0.781370 0.243119
v 1.589176 -0.576695 -0.048465
v 1.599876 -0.568521 0.040691
v 0.265453 0.763215 0.045103
v 1.514682 -0.554908 -0.296867
vn 0.0247 -0.3304 0.9435
vn -0.3066 -0.1256 0.9435
vn -0.6071 0.7947 -0.0000
vn -0.1876 0.7947 0.5773
vn -0.5346 0.3304 0.7779
vn -0.3035 0.1876 0.9342
vn -0.0385 -0.6617 0.7488
vn 0.1876 -0.7947 0.5773
vn 0.4713 -0.6617 0.5831
vn 0.6071 -0.7947 0.0000
vn 0.7002 -0.6617 -0.2680
vn -0.7059 -0.5548 -0.4403
vn -0.7002 0.6617 0.2680
vn 0.3035 -0.1876 0.9342
vn -0.4713 0.6617 0.5831
vn 0.0385 0.6617 0.7488
vn 0.5346 -0.3304 0.7779
vn -0.0247 0.3304 0.9435
vn 0.3066 0.1256 0.9435
vn 0.8026 -0.1256 0.5831
vn 0.9050 -0.3304 0.2680
vn 0.7002 -0.6617 0.2680
vn 0.6984 0.7003 -0.1480
usemtl None
s off
f 6//1 2//1 3//1 7//1
f 7//2 3//2 12//2
f 30//3 10//3 27//3
f 22//4 4//4 23//4
f 11//5 4//5 8//5
f 12//6 3//6 4//6 11//6
f 15//7 2//7 6//7
f 15//8 16//8 2//8
f 5//9 1//9 2//9 16//9
f 29//10 14//10 13//10 28//10
f 28//11 13//11 31//11
f 15//12 6//12 7//12 12//12 11//12 8//12 9//12 10//12 30//12 31//12 13//12 14//12 5//12 16//12
f 10//13 9//13 26//13 27//13
f 3//14 2//14 25//14 24//14
f 8//15 4//15 22//15 26//15 9//15
f 4//16 21//16 23//16
f 2//17 1//17 20//17 25//17
f 3//18 19//18 21//18 4//18
f 3//19 24//19 19//19
f 1//20 18//20 20//20
f 1//21 17//21 18//21
f 1//22 5//22 14//22 29//22 17//22
f 30//23 27//23 26//23 22//23 23//23 21//23 19//23 24//23 25//23 20//23 18//23 17//23 29//23 28//23 31//23
