# Blender v2.78 (sub 0) OBJ File: ''
# www.blender.org
mtllib 7.mtl
o Icosphere.008
v 2.099764 0.175491 0.000000
v 2.055985 -0.797460 0.000000
v 2.156395 -0.271724 0.309013
v 2.156395 -0.271724 -0.309013
v 1.793123 -0.271724 0.809017
v 1.893527 0.254012 0.499997
v 1.943139 -0.727716 -0.466988
v 1.942938 -0.691431 -0.512393
v 1.684178 -0.115260 -0.823582
v 1.795782 -0.271724 -0.805357
v 1.793826 -0.268046 -0.806855
v 1.970462 -0.744603 0.353916
v 1.945394 -0.686601 0.510053
v 1.900873 -0.626512 0.584277
v 1.605663 -0.271724 0.869926
v 1.716718 -0.395353 0.809016
v 1.989278 -0.848420 -0.048465
v 1.999978 -0.840246 0.040691
v 1.914784 -0.826632 -0.296867
v 1.558418 0.065353 0.840396
v 1.866311 0.248823 0.523172
v 1.974751 0.223087 -0.303079
v 2.002696 0.281705 0.000000
v 1.884865 0.259365 0.499997
v 1.889789 0.261487 0.488494
v 1.934267 0.172531 -0.470398
v 1.655947 -0.074716 -0.827357
v 1.865667 0.108130 -0.585744
v 1.655266 -0.075247 -0.827649
v 1.338294 -0.218349 -0.139055
v 1.389994 -0.048121 0.910229
vn 0.9050 -0.3304 0.2680
vn 0.8026 -0.1256 0.5831
vn 0.8026 -0.1256 -0.5831
vn 0.4089 0.6617 0.6284
vn 0.4911 0.7947 0.3568
vn 0.7947 0.1876 0.5773
vn 0.8897 0.3304 0.3151
vn 0.3035 -0.1876 0.9342
vn 0.5346 -0.3304 0.7779
vn 0.9921 0.1256 0.0000
vn 0.9822 -0.1876 0.0000
vn 0.9050 -0.3304 -0.2680
vn 0.7002 -0.6617 0.2680
vn 0.6071 -0.7947 0.0000
vn 0.7002 -0.6617 -0.2680
vn -0.6984 -0.7003 0.1480
vn -0.7059 -0.5548 -0.4403
vn 0.5746 0.3304 -0.7488
vn 0.3065 0.1256 -0.9435
vn 0.7947 0.1876 -0.5773
vn 0.7240 0.6617 0.1947
vn 0.7240 0.6617 -0.1947
vn 0.8897 0.3304 -0.3151
vn 0.5746 0.3304 0.7488
vn 0.3066 0.1256 0.9435
vn -0.5845 0.8050 -0.1018
usemtl None
s off
f 12//1 2//1 3//1 13//1
f 13//2 3//2 5//2 14//2
f 8//3 10//3 4//3
f 21//4 6//4 24//4
f 24//5 6//5 25//5
f 5//6 3//6 6//6
f 3//7 1//7 6//7
f 15//8 16//8 5//8
f 16//9 14//9 5//9
f 3//10 4//10 1//10
f 3//11 2//11 4//11
f 2//12 7//12 8//12 4//12
f 12//13 18//13 2//13
f 2//14 18//14 17//14
f 2//15 17//15 19//15 7//15
f 30//16 19//16 17//16 18//16 12//16 13//16 14//16 16//16 15//16 31//16
f 19//17 30//17 29//17 9//17 11//17 10//17 8//17 7//17
f 9//18 27//18 28//18 11//18
f 9//19 29//19 27//19
f 4//20 10//20 11//20 28//20 26//20
f 6//21 1//21 23//21 25//21
f 1//22 22//22 23//22
f 4//23 26//23 22//23 1//23
f 5//24 6//24 21//24 20//24
f 15//25 5//25 20//25 31//25
f 31//26 20//26 21//26 24//26 25//26 23//26 22//26 26//26 28//26 27//26 29//26 30//26
