# Blender v2.78 (sub 0) OBJ File: ''
# www.blender.org
mtllib 8.mtl
o Icosphere.001
v 1.481726 0.447220 0.850649
v 1.481726 0.447220 -0.850649
v 1.205338 1.000000 0.000000
v 1.893527 0.525736 -0.499997
v 1.367793 0.850654 0.499995
v 1.731067 0.850652 0.000000
v 0.780015 0.850654 0.309011
v 1.367793 0.850654 -0.499995
v 1.478206 0.441524 -0.852551
v 1.470760 0.448816 -0.849803
v 0.801797 0.858303 -0.293186
v 0.827249 0.850654 -0.324359
v 1.157904 0.690314 -0.652489
v 0.780015 0.850654 -0.248621
v 1.361674 0.252965 0.915521
v 1.089450 0.504337 0.820360
v 0.868205 0.674270 0.580441
v 1.006592 0.574723 0.762423
v 0.721771 0.771879 0.351327
v 0.689320 0.781370 0.243119
v 0.665556 0.763215 0.045103
v 1.558418 0.337077 0.840396
v 1.866311 0.520547 0.523172
v 1.974751 0.494812 -0.303079
v 2.002696 0.553430 0.000000
v 1.884865 0.531090 0.499997
v 1.889789 0.533211 0.488494
v 1.934267 0.444256 -0.470398
v 1.655947 0.197009 -0.827357
v 1.865667 0.379854 -0.585744
v 1.655266 0.196477 -0.827649
v 1.338294 0.053375 -0.139055
v 1.389994 0.223603 0.910229
vn -0.4713 0.6617 0.5831
vn 0.7240 0.6617 -0.1947
vn 0.2680 0.9435 -0.1947
vn 0.4911 0.7947 -0.3568
vn 0.4089 0.6617 -0.6284
vn -0.3313 0.9435 0.0000
vn -0.7002 0.6617 0.2680
vn -0.1024 0.9435 0.3151
vn 0.0385 0.6617 0.7488
vn 0.2680 0.9435 0.1947
vn 0.7240 0.6617 0.1947
vn 0.8897 0.3304 -0.3151
vn 0.5746 0.3304 -0.7488
vn -0.0247 0.3304 -0.9435
vn -0.0247 0.3304 0.9435
vn 0.5746 0.3304 0.7488
vn 0.3066 0.1256 -0.9435
vn 0.3066 0.1256 0.9435
vn 0.7947 0.1876 -0.5773
vn -0.1876 0.7947 -0.5773
vn -0.1024 0.9435 -0.3151
vn 0.0385 0.6617 -0.7488
vn -0.7059 -0.5548 -0.4403
vn -0.6071 0.7947 -0.0000
vn -0.1876 0.7947 0.5773
vn -0.6984 -0.7003 0.1480
vn 0.4911 0.7947 0.3568
vn 0.4089 0.6617 0.6284
vn 0.5845 -0.8050 0.1018
usemtl None
s off
f 19//1 17//1 7//1
f 24//2 4//2 6//2 25//2
f 6//3 8//3 3//3
f 6//4 4//4 8//4
f 4//5 2//5 8//5
f 14//6 7//6 3//6 11//6
f 20//7 19//7 7//7
f 7//8 5//8 3//8
f 16//9 1//9 5//9 18//9
f 5//10 6//10 3//10
f 27//11 25//11 6//11
f 28//12 4//12 24//12
f 29//13 2//13 4//13 30//13
f 9//14 10//14 2//14
f 15//15 1//15 16//15
f 22//16 23//16 1//16
f 31//17 9//17 2//17 29//17
f 33//18 22//18 1//18 15//18
f 28//19 30//19 4//19
f 8//20 13//20 12//20
f 8//21 12//21 11//21 3//21
f 2//22 10//22 13//22 8//22
f 32//23 21//23 14//23 11//23 12//23 13//23 9//23 31//23
f 14//24 21//24 20//24 7//24
f 7//25 17//25 18//25 5//25
f 21//26 32//26 33//26 15//26 16//26 18//26 17//26 19//26 20//26
f 5//27 26//27 27//27 6//27
f 1//28 23//28 26//28 5//28
f 33//29 32//29 31//29 29//29 30//29 28//29 24//29 25//29 27//29 26//29 23//29 22//29
