# Blender v2.78 (sub 0) OBJ File: ''
# www.blender.org
mtllib 6.mtl
o Sphere.004
v -1.162594 0.666730 -0.187608
v -1.112334 0.707107 -0.163534
v -1.131979 0.707107 -0.200288
v -1.172218 0.707107 -0.332937
v -1.294191 0.555570 -0.308675
v -1.277095 0.555570 -0.252318
v -1.338519 0.471014 -0.299857
v -1.021085 0.831470 -0.354233
v -1.021388 0.832671 -0.362938
v -1.023593 0.831470 -0.362500
v -1.463474 0.154567 -0.470886
v -1.457390 0.195090 -0.449636
v -1.459483 0.195090 -0.470886
v -1.034268 0.831470 -0.470886
v -1.185805 0.707107 -0.470886
v -1.310167 0.555570 -0.470886
v -1.402577 0.382683 -0.470886
v -1.390545 0.382683 -0.348722
v -1.023593 0.831470 -0.579273
v -1.172218 0.707107 -0.608836
v -1.294191 0.555570 -0.633098
v -1.384825 0.382683 -0.651126
v -1.440637 0.195090 -0.662228
v -1.459483 0.000000 -0.665977
v -1.470817 0.000000 -0.550902
v -1.441902 -0.195090 -0.649391
v -1.440637 -0.195090 -0.662228
v -1.433701 -0.218403 -0.660848
v -1.384825 0.195090 -0.846217
v -1.402577 0.000000 -0.853570
v -1.384825 -0.195090 -0.846217
v -1.340884 -0.406837 -0.751719
v -1.357745 -0.382683 -0.740397
v -1.347673 -0.382683 -0.773601
v -1.131979 0.707107 -0.741484
v -1.246875 0.555570 -0.789076
v -1.332251 0.382683 -0.824440
v -1.066636 0.707107 -0.863734
v -1.170039 0.555570 -0.932826
v -1.246876 0.382683 -0.984166
v -1.294191 0.195090 -1.015781
v -1.310167 0.000000 -1.026457
v -1.353559 -0.306653 -0.833266
v -1.349112 -0.195090 -0.913030
v -1.309328 -0.010253 -1.025895
v -1.306025 0.000000 -1.031504
v -0.978698 0.707107 -0.970886
v -1.066635 0.555570 -1.058824
v -1.131979 0.382683 -1.124168
v -1.154444 0.277950 -1.146633
v -1.070904 0.382683 -1.174291
v -0.959009 0.493703 -1.189723
v -0.940637 0.555570 -1.162228
v -0.885512 0.555570 -1.191693
v -0.555688 -0.075158 -0.529534
v -0.999595 0.772970 -0.122246
v -1.000196 0.772685 -0.122433
v -1.209938 0.195090 -1.118444
v -0.860587 0.572481 -1.189354
v -0.999686 0.773187 -0.122773
v -0.935195 0.707107 -1.006588
v -0.900118 0.644440 -1.101586
v -0.952666 0.737320 -0.944854
v -0.983647 0.789019 -0.808282
v -1.011826 0.831470 -0.618064
v -1.003963 0.820824 -0.688458
v -1.015483 0.835890 -0.577659
v -1.020672 0.838737 -0.470886
v -1.014602 0.811373 -0.248908
vn -0.6831 0.6326 0.3651
vn -0.7412 0.6326 0.2248
vn -0.8448 0.4696 0.2563
vn 0.2215 0.9610 0.1654
vn 0.2912 0.9530 0.0840
vn -0.4526 0.8811 0.1373
vn -0.9904 0.0975 0.0976
vn -0.6332 0.7715 0.0624
vn -0.7708 0.6326 0.0759
vn -0.8786 0.4696 0.0865
vn -0.9527 0.2890 0.0938
vn -0.6332 0.7715 -0.0624
vn -0.7708 0.6326 -0.0759
vn -0.8786 0.4696 -0.0865
vn -0.9527 0.2890 -0.0938
vn -0.9904 0.0976 -0.0976
vn -0.9904 -0.0975 -0.0976
vn -0.9527 -0.2890 -0.0939
vn -0.9524 0.0976 -0.2889
vn -0.9524 -0.0976 -0.2889
vn -0.8448 -0.4696 -0.2563
vn -0.7412 0.6326 -0.2248
vn -0.8448 0.4696 -0.2563
vn -0.9161 0.2890 -0.2779
vn -0.6831 0.6326 -0.3651
vn -0.7786 0.4696 -0.4162
vn -0.8443 0.2890 -0.4513
vn -0.8777 0.0975 -0.4691
vn -0.8443 -0.2890 -0.4513
vn -0.7693 -0.0976 -0.6314
vn -0.5987 0.6326 -0.4913
vn -0.6825 0.4696 -0.5601
vn -0.6073 0.2890 -0.7400
vn -0.4162 0.4696 -0.7786
vn 0.8230 -0.5110 0.2482
vn 0.2911 0.4642 0.8365
vn -0.0582 -0.4568 0.8877
vn -0.5601 0.4696 -0.6825
vn -0.7693 0.0976 -0.6314
vn -0.7400 0.2890 -0.6073
vn -0.8777 -0.0976 -0.4692
vn -0.9161 -0.2890 -0.2779
vn 0.4317 -0.5359 -0.7255
vn 0.5135 0.3471 -0.7848
vn -0.4916 0.7716 0.4036
vn 0.2508 0.9271 0.2784
vn -0.4913 0.6326 -0.5987
vn 0.3007 0.8550 -0.4226
vn 0.3140 0.8320 -0.4573
vn -0.3651 0.6326 -0.6831
vn -0.4036 0.7715 -0.4918
vn 0.2990 0.9063 -0.2988
vn -0.4918 0.7715 -0.4036
vn 0.2535 0.9379 -0.2366
vn -0.6088 0.7715 -0.1847
vn 0.2232 0.9675 -0.1187
vn 0.2179 0.9629 -0.1594
vn -0.5611 0.7715 -0.2999
vn -0.4528 0.8810 -0.1374
vn 0.2920 0.9555 -0.0415
vn -0.4709 0.8810 -0.0464
vn 0.2867 0.9578 0.0214
vn -0.4708 0.8810 0.0464
vn -0.5611 0.7715 0.2999
vn 0.2155 0.9549 0.2041
vn -0.6088 0.7715 0.1847
usemtl None
s 1
f 1//1 2//1 3//1
f 1//2 3//2 4//2 5//2 6//2
f 7//3 6//3 5//3
f 8//4 9//5 10//6
f 11//7 12//7 13//7
f 4//8 10//8 14//8 15//8
f 5//9 4//9 15//9 16//9
f 7//10 5//10 16//10 17//10 18//10
f 12//11 18//11 17//11 13//11
f 15//12 14//12 19//12 20//12
f 16//13 15//13 20//13 21//13
f 17//14 16//14 21//14 22//14
f 13//15 17//15 22//15 23//15
f 11//16 13//16 23//16 24//16 25//16
f 26//17 25//17 24//17 27//17
f 28//18 26//18 27//18
f 24//19 23//19 29//19 30//19
f 27//20 24//20 30//20 31//20
f 32//21 33//21 34//21
f 21//22 20//22 35//22 36//22
f 22//23 21//23 36//23 37//23
f 23//24 22//24 37//24 29//24
f 36//25 35//25 38//25 39//25
f 37//26 36//26 39//26 40//26
f 29//27 37//27 40//27 41//27
f 30//28 29//28 41//28 42//28
f 43//29 31//29 44//29
f 45//30 42//30 46//30
f 39//31 38//31 47//31 48//31
f 40//32 39//32 48//32 49//32
f 50//33 49//33 51//33
f 52//34 53//34 54//34
f 55//35 56//36 57//37 2//37 1//37 6//37 7//37 18//37 12//37 11//37 25//37 26//37 28//37 33//37 32//37
f 49//38 48//38 53//38 52//38 51//38
f 42//39 41//39 58//39 46//39
f 41//40 40//40 49//40 50//40 58//40
f 31//41 30//41 42//41 45//41 44//41
f 28//42 27//42 31//42 43//42 34//42 33//42
f 55//35 32//43 34//43 43//43 44//43 45//43 46//43 58//43 50//43 51//43 52//43 54//43 59//44
f 57//45 56//36 60//46
f 48//47 47//47 61//48 62//49 53//47
f 53//50 62//49 59//44 54//50
f 47//51 63//52 61//48
f 38//53 64//54 63//52 47//53
f 20//55 19//55 65//56 66//57 35//55
f 35//58 66//57 64//54 38//58
f 19//59 67//60 65//56
f 14//61 68//62 67//60 19//61
f 10//63 9//5 68//62 14//63
f 57//64 60//46 69//65 3//64 2//64
f 3//66 69//65 8//4 10//66 4//66
f 67//60 68//62 9//5 8//4 69//65 60//46 56//36 55//35 59//44 62//49 61//48 63//52 64//54 66//57 65//56
