# Blender v2.78 (sub 0) OBJ File: ''
# www.blender.org
mtllib 1.mtl
o Cube.001
v -3.793095 -0.607044 -2.005946
v -5.251986 -0.457291 -1.005712
v -5.251986 -0.457291 -1.920293
v -3.669842 -0.499711 -2.114415
v -3.669842 0.482579 -2.114415
v -3.667431 -0.693752 -1.897820
v -5.888753 -0.325741 -1.005712
v -5.888753 -0.325741 -1.920293
v -5.888753 -0.039491 -1.920293
v -5.555466 -0.117030 -1.920293
v -3.669842 -0.086049 -2.114415
v -3.669842 0.089211 -2.114415
v -3.669842 -0.086049 -2.206747
v -3.669842 0.089211 -2.206747
v -3.793095 -0.607044 -1.736113
v -3.491461 -0.607044 -2.005946
v -4.695748 -0.514388 -0.936156
v -3.469200 0.482579 -2.114415
v -3.379959 -0.499711 -2.114415
v -3.667431 -0.693752 -1.841481
v -3.604453 -0.693752 -1.897820
v -3.433467 0.089272 -2.114415
v -3.417694 -0.084356 -2.114415
v -3.074688 0.089364 -2.435376
v -3.047424 -0.081870 -2.445850
v -3.793096 0.464830 -2.005946
v -4.637818 0.398587 -1.920293
v -3.710482 0.517970 -2.078650
v -5.888753 -0.039491 -1.324756
v -4.749910 0.398041 -1.920293
v -5.802292 -0.270498 -1.005712
v -5.555466 -0.113784 -1.220100
v -5.115547 -0.267155 -1.005712
v -4.695266 -0.302775 -0.953786
v -3.513072 0.518524 -2.078090
vn -0.0733 0.0234 -0.9970
vn -0.5679 -0.8231 0.0000
vn -0.3586 0.9335 0.0000
vn 0.0000 0.0000 -1.0000
vn 0.0000 -0.7108 -0.7034
vn 0.0000 -1.0000 0.0000
vn -0.2225 -0.9749 0.0024
vn -0.2023 -0.9793 -0.0000
vn 0.0067 -1.0000 -0.0000
vn -1.0000 0.0000 -0.0000
vn -0.3586 0.0000 -0.9335
vn -0.0003 1.0000 0.0000
vn 0.0000 -0.7801 -0.6256
vn -0.0000 0.7108 -0.7034
vn -0.1021 -0.9948 -0.0000
vn 0.6655 0.0605 0.7439
vn -0.1153 0.0827 0.9899
vn -0.5342 0.8453 -0.0018
vn -0.0000 0.0000 1.0000
vn -0.6607 -0.0000 -0.7507
vn -0.0039 0.8095 0.5872
usemtl Material
s off
f 26//1 1//1 3//1 27//1
f 15//2 1//2 6//2 20//2
f 29//3 30//3 9//3
f 18//4 22//4 12//4 5//4
f 16//5 1//5 4//5 19//5
f 21//6 20//6 6//6
f 32//7 29//7 9//7 10//7
f 27//4 3//4 8//4 10//4 9//4 30//4
f 3//8 2//8 7//8 8//8
f 23//9 11//9 13//9 25//9
f 11//10 12//10 14//10 13//10
f 14//11 24//11 25//11 13//11
f 12//12 22//12 24//12 14//12
f 11//4 23//4 19//4 4//4
f 1//13 16//13 21//13 6//13
f 28//14 35//14 18//14 5//14
f 1//15 15//15 17//15 2//15 3//15
f 25//16 24//16 22//16 18//16 35//16 34//16 17//16 15//16 20//16 21//16 16//16 19//16 23//16
f 17//17 34//17 33//17 2//17
f 7//18 31//18 32//18 10//18 8//18
f 2//19 33//19 31//19 7//19
f 1//20 26//20 28//20 5//20 12//20 11//20 4//20
f 34//21 35//21 28//21 26//21 27//21 30//21 29//21 32//21 31//21 33//21
