# Blender v2.78 (sub 0) OBJ File: ''
# www.blender.org
mtllib 4.mtl
o Cube
v -1.011097 -0.607044 0.639719
v -1.011097 0.589913 0.639719
v -2.385594 -0.607044 0.639719
v -2.385594 0.589912 0.639719
v -3.188192 0.457290 0.457290
v -1.170869 0.688888 0.502246
v -1.170869 0.688888 -0.405471
v -2.225823 0.688888 0.502246
v -2.225823 0.688888 -0.405471
v -1.134224 -0.499821 0.770075
v -1.134224 0.482689 0.770075
v -2.262467 -0.499821 0.770074
v -2.262467 0.482689 0.770074
v -1.136762 -0.693752 0.531593
v -2.259930 -0.693752 0.531593
v -2.225823 0.688888 0.141733
v -2.225823 0.688888 -0.064316
v -1.170869 0.688888 0.118427
v -1.170869 0.688888 -0.056388
v -2.225823 0.858380 0.141733
v -2.225823 0.858380 -0.064316
v -1.170869 1.247028 0.118427
v -1.170869 1.247028 -0.056388
v -2.262467 -0.128341 0.770074
v -2.262467 0.001833 0.770074
v -1.134224 -0.148577 0.770075
v -1.134224 0.011602 0.770075
v -2.262467 -0.128341 0.881749
v -2.262467 0.001833 0.881749
v -1.134224 -0.148577 1.199922
v -1.134224 0.011602 1.199922
v -2.385594 -0.607044 -0.273111
v -2.385594 0.589912 -0.370389
v -2.192703 0.589912 -0.542944
v -2.083959 -0.607044 -0.542944
v -3.286344 0.320510 0.457290
v -3.188192 0.457290 0.358369
v -3.288247 -0.514388 0.526845
v -2.290014 0.649122 -0.460704
v -2.259930 -0.693752 -0.378480
v -2.196951 -0.693752 -0.434818
v -3.295041 0.416240 0.457290
v -1.011097 0.589913 -0.386866
v -1.156157 0.679775 -0.418129
v -1.136762 -0.693752 -0.379041
v -1.792905 0.589912 -0.542944
v -1.946629 -0.607044 -0.542944
v -1.416151 -0.693752 -0.434818
v -2.060072 -0.584051 -0.566181
v -2.116589 0.527552 -0.605965
v -0.877046 -0.593373 0.623065
v -0.413941 0.257319 0.565530
v -1.011097 -0.607044 -0.069899
v -0.532323 0.323253 -0.284448
v -1.100745 -0.668901 -0.372488
vn 0.1015 -0.9948 0.0000
vn 0.4866 0.8736 0.0000
vn 0.1233 -0.0000 0.9924
vn -0.0000 0.7723 0.6353
vn -0.1021 -0.9948 0.0000
vn -0.0000 1.0000 0.0000
vn -0.0000 0.8115 0.5843
vn -0.5266 0.8501 -0.0000
vn -0.0000 0.0000 1.0000
vn 0.7270 0.0000 0.6867
vn -0.0000 -0.7723 0.6353
vn -0.7270 -0.0000 0.6867
vn -0.0000 -0.7801 0.6256
vn 0.5679 -0.8231 0.0000
vn -0.3457 0.9383 0.0000
vn 0.0221 0.0000 0.9998
vn 1.0000 0.0000 0.0000
vn -1.0000 0.0000 0.0000
vn 0.0075 0.0000 -1.0000
vn -0.2714 0.0000 0.9625
vn -0.0087 1.0000 -0.0000
vn -0.0179 -0.9998 0.0000
vn 0.0000 -1.0000 0.0000
vn -0.3586 0.9335 0.0000
vn -0.1691 0.0413 0.9847
vn 0.0000 -0.7108 -0.7034
vn 0.0000 0.8115 -0.5843
vn -0.1630 0.9866 -0.0000
vn -0.5679 -0.8231 -0.0000
vn -0.6655 -0.0605 -0.7439
vn 0.0000 -0.7801 -0.6256
vn 0.0000 0.7108 -0.7034
vn 0.5266 0.8501 0.0000
vn 0.1957 -0.0251 -0.9803
vn 0.8628 -0.4804 -0.1574
usemtl Material
s off
f 53//1 51//1 1//1
f 54//2 43//2 2//2 52//2
f 51//3 52//3 2//3 1//3
f 2//4 4//4 13//4 11//4
f 32//5 3//5 38//5
f 6//6 18//6 16//6 8//6
f 4//7 2//7 6//7 8//7
f 33//8 4//8 8//8 16//8 17//8 9//8 39//8
f 10//9 26//9 24//9 12//9
f 1//10 2//10 11//10 27//10 26//10 10//10
f 3//11 1//11 10//11 12//11
f 4//12 3//12 12//12 24//12 25//12 13//12
f 1//13 3//13 15//13 14//13
f 53//14 1//14 14//14 45//14 55//14
f 36//9 5//9 42//9
f 20//15 22//15 23//15 21//15
f 16//16 18//16 22//16 20//16
f 17//6 19//6 7//6 9//6
f 18//17 19//17 23//17 22//17
f 17//18 16//18 20//18 21//18
f 19//19 17//19 21//19 23//19
f 28//20 30//20 31//20 29//20
f 27//21 25//21 29//21 31//21
f 25//9 27//9 11//9 13//9
f 24//22 26//22 30//22 28//22
f 26//17 27//17 31//17 30//17
f 25//18 24//18 28//18 29//18
f 45//23 14//23 15//23 40//23 41//23 48//23
f 5//24 37//24 42//24
f 3//25 4//25 5//25 36//25 38//25
f 47//26 35//26 49//26
f 46//27 34//27 39//27 9//27 7//27 44//27
f 4//28 33//28 37//28 5//28
f 3//29 32//29 40//29 15//29
f 50//30 49//30 35//30 41//30 40//30 32//30 38//30 36//30 42//30 37//30 33//30 39//30 34//30
f 35//31 47//31 48//31 41//31
f 34//32 46//32 50//32
f 2//33 43//33 44//33 7//33 19//33 18//33 6//33
f 49//34 50//34 46//34 44//34 43//34 54//34 55//34 45//34 48//34 47//34
f 55//35 54//35 52//35 51//35 53//35
