# Blender v2.78 (sub 0) OBJ File: ''
# www.blender.org
mtllib 3.mtl
o Cube.004
v -0.226165 2.820240 -0.106203
v -0.422652 2.516947 -0.119834
v -0.361227 3.137328 -0.127435
v -0.196365 3.121220 -0.109890
v -0.247866 2.779143 0.059982
v -0.213627 3.124959 0.055745
v -0.444353 2.475849 0.046351
v -0.378489 3.141067 0.038199
v 0.003861 3.238577 0.052779
v -0.187394 3.240897 0.035593
v 0.015076 3.231679 -0.112774
v -0.176179 3.233999 -0.129959
vn 0.1036 -0.0224 -0.9944
vn 0.9897 -0.0967 0.1053
vn -0.9897 0.0967 -0.1053
vn -0.1036 0.0224 0.9944
vn -0.0856 0.1894 0.9782
vn 0.4627 -0.8839 0.0682
vn 0.0856 -0.1894 -0.9782
vn -0.4627 0.8839 -0.0682
vn 0.0158 0.9991 -0.0406
vn 0.8395 -0.5428 -0.0246
usemtl Material.001
s 1
f 1//1 2//1 3//1 4//1
f 5//2 1//2 4//2 6//2
f 2//3 7//3 8//3 3//3
f 7//4 5//4 6//4 8//4
f 8//5 6//5 9//5 10//5
f 6//6 4//6 11//6 9//6
f 4//7 3//7 12//7 11//7
f 3//8 8//8 10//8 12//8
f 9//9 11//9 12//9 10//9
f 5//10 7//10 2//10 1//10
