# Blender v2.78 (sub 0) OBJ File: ''
# www.blender.org
mtllib 4.mtl
o Cube.006
v 1.099009 3.303062 0.243174
v 0.957357 3.454091 0.238555
v 1.092044 3.308039 0.363053
v 0.003861 3.312613 0.052779
v 0.015076 3.305715 -0.112774
v 0.418322 3.516376 -0.118273
v 0.546729 3.594917 0.028549
v 0.545035 3.595330 0.045399
v -0.176179 3.308036 -0.129959
v 0.338651 3.576990 -0.136980
v -0.187394 3.314934 0.035593
v 0.481601 3.664426 0.026470
v 0.561272 3.603812 0.045177
v 0.582471 3.295524 -0.143265
v 0.571986 3.313912 0.305582
vn 0.7291 0.6843 0.0140
vn 0.4627 -0.8839 0.0682
vn 0.0856 -0.1894 -0.9782
vn -0.4627 0.8839 -0.0682
vn -0.0856 0.1894 0.9782
vn 0.5243 0.4701 -0.7100
vn -0.1059 0.6396 0.7613
vn -0.9936 -0.1105 -0.0215
vn -0.0158 -0.9991 0.0406
usemtl Material.001
s 1
f 1//1 2//1 3//1
f 4//2 5//2 6//2 7//2 8//2
f 5//3 9//3 10//3 6//3
f 9//4 11//4 12//4 10//4
f 11//5 4//5 8//5 13//5 12//5
f 1//6 14//6 7//6 6//6 10//6 12//6 13//6 2//6
f 13//7 8//7 15//7 3//7 2//7
f 8//8 7//8 14//8 15//8
f 4//9 11//9 9//9 5//9
f 1//9 3//9 15//9 14//9
