# Blender v2.78 (sub 0) OBJ File: ''
# www.blender.org
mtllib 1.mtl
o Torus.001
v 0.456999 0.000000 1.580271
v 0.448330 -0.125000 1.547919
v 0.611830 0.000000 1.527713
v 0.599012 0.125000 1.496769
v 0.563995 -0.216506 1.412228
v 0.599012 -0.125000 1.496769
v 0.758475 0.000000 1.455395
v 0.741729 0.125000 1.426389
v 0.695975 -0.216506 1.347142
v 0.741729 -0.125000 1.426389
v 0.894427 0.000000 1.364555
v 0.874037 0.125000 1.337983
v 0.818332 -0.216506 1.265386
v 0.874037 -0.125000 1.337983
v 1.017359 0.000000 1.256747
v 0.993675 0.125000 1.233064
v 0.928970 -0.216506 1.168359
v 0.993675 -0.125000 1.233064
v 1.125167 0.000000 1.133815
v 1.098595 0.125000 1.113425
v 1.025998 -0.216506 1.057720
v 1.098595 -0.125000 1.113425
v 1.216007 0.000000 0.997864
v 1.187001 -0.125000 0.981117
v 1.230951 0.000000 0.967561
v 0.970553 0.157700 1.209942
v 0.665910 -0.232619 1.295066
v 0.353484 0.000000 1.600861
v 0.464478 -0.216506 1.446009
v 1.159250 -0.157044 0.965095
v 0.591593 0.144389 1.478856
v 1.209004 0.030181 0.993820
v 1.094861 0.129707 1.110560
v 0.778414 -0.234076 1.213364
v 1.206134 -0.125000 0.942319
v 0.892770 -0.230224 1.132159
v 1.047912 -0.216506 1.024923
v 0.721824 0.164809 1.391913
v 0.520638 0.125000 1.523373
v 0.451261 0.082740 1.558856
v 0.429527 -0.197649 1.477745
v 0.336123 -0.125000 1.570238
v 1.013626 -0.220685 1.048227
v 0.847159 0.169153 1.302954
v 0.550850 -0.225710 1.380494
v 1.107868 0.125000 1.099547
vn 0.1885 0.2583 0.9475
vn 0.1381 -0.7063 0.6943
vn 0.1885 -0.2583 0.9475
vn 0.2275 0.7063 0.6703
vn 0.0834 -0.9658 0.2456
vn 0.2275 -0.7063 0.6703
vn 0.3105 -0.2583 0.9148
vn 0.4273 0.2583 0.8664
vn 0.1147 -0.9658 0.2326
vn 0.3131 -0.7063 0.6349
vn 0.4273 -0.2583 0.8664
vn 0.5367 0.2583 0.8033
vn 0.1441 -0.9658 0.2156
vn 0.3933 -0.7063 0.5886
vn 0.5367 -0.2583 0.8033
vn 0.6370 0.2583 0.7263
vn 0.1710 -0.9658 0.1950
vn 0.4667 -0.7063 0.5322
vn 0.6370 -0.2583 0.7263
vn 0.7263 0.2583 0.6370
vn 0.1950 -0.9658 0.1710
vn 0.5322 -0.7063 0.4667
vn 0.7263 -0.2583 0.6370
vn 0.2156 -0.9658 0.1441
vn 0.8033 -0.2583 0.5367
vn 0.6349 -0.7063 0.3131
vn 0.3105 0.2583 0.9148
vn 0.3933 0.7063 0.5886
vn 0.5886 0.7063 0.3933
vn 0.8033 0.2583 0.5367
vn 0.3131 0.7063 0.6349
vn 0.5886 -0.7063 0.3933
vn 0.4667 0.7063 0.5322
vn 0.5322 0.7063 0.4667
vn 0.8664 0.2583 0.4273
vn 0.8664 -0.2583 0.4273
vn -0.5636 0.2696 -0.7808
usemtl (null)
s off
f 28//1 1//1 40//1
f 42//2 41//2 2//2
f 42//3 2//3 1//3 28//3
f 39//4 4//4 31//4
f 29//5 45//5 5//5
f 29//6 5//6 6//6 2//6 41//6
f 2//7 6//7 3//7 1//7
f 3//8 7//8 8//8 4//8
f 45//9 27//9 9//9 5//9
f 5//10 9//10 10//10 6//10
f 6//11 10//11 7//11 3//11
f 7//12 11//12 12//12 8//12
f 27//13 34//13 13//13 9//13
f 9//14 13//14 14//14 10//14
f 10//15 14//15 11//15 7//15
f 11//16 15//16 16//16 12//16
f 34//17 36//17 17//17 13//17
f 13//18 17//18 18//18 14//18
f 14//19 18//19 15//19 11//19
f 15//20 19//20 20//20 16//20
f 36//21 43//21 21//21 17//21
f 17//22 21//22 22//22 18//22
f 18//23 22//23 19//23 15//23
f 43//24 37//24 21//24
f 22//25 24//25 23//25 19//25
f 30//26 35//26 24//26
f 1//27 3//27 4//27 39//27 40//27
f 8//28 12//28 44//28 38//28
f 20//29 46//29 33//29
f 19//30 23//30 32//30 46//30 20//30
f 4//31 8//31 38//31 31//31
f 21//32 37//32 30//32 24//32 22//32
f 12//33 16//33 26//33 44//33
f 16//34 20//34 33//34 26//34
f 23//35 25//35 32//35
f 24//36 35//36 25//36 23//36
f 42//37 28//37 40//37 39//37 31//37 38//37 44//37 26//37 33//37 46//37 32//37 25//37 35//37 30//37 37//37 43//37 36//37 34//37 27//37 45//37 29//37 41//37
