# Blender v2.78 (sub 0) OBJ File: ''
# www.blender.org
mtllib 3.mtl
o Torus.004
v 0.694184 0.216506 -0.785135
v 0.621587 0.125000 -0.729429
v 0.707107 0.250000 -0.959575
v 0.618718 0.216506 -0.871187
v 0.554014 0.125000 -0.806482
v 0.608762 0.250000 -1.045822
v 0.532666 0.216506 -0.946652
v 0.476961 0.125000 -0.874056
v 0.456571 0.000000 -0.847483
v 0.562500 0.216506 -1.226747
v 0.500000 0.250000 -1.118494
v 0.437500 0.216506 -1.010241
v 0.391747 0.125000 -0.930994
v 0.375000 0.000000 -0.901987
v 0.465537 0.125000 -1.376373
v 0.430519 0.216506 -1.291833
v 0.382684 0.250000 -1.176348
v 0.334848 0.216506 -1.060863
v 0.299830 0.125000 -0.976322
v 0.287013 0.000000 -0.945378
v 0.299830 -0.125000 -0.976322
v 0.323524 0.000000 -1.459876
v 0.314855 0.125000 -1.427523
v 0.291171 0.216506 -1.339135
v 0.258819 0.250000 -1.218394
v 0.226467 0.216506 -1.097653
v 0.202783 0.125000 -1.009265
v 0.194114 0.000000 -0.976913
v 0.202783 -0.125000 -1.009265
v 0.163158 0.000000 -1.491774
v 0.158786 0.125000 -1.458567
v 0.146842 0.216506 -1.367844
v 0.130526 0.250000 -1.243913
v 0.114210 0.216506 -1.119983
v 0.102266 0.125000 -1.029259
v 0.097895 0.000000 -0.996052
v 0.102266 -0.125000 -1.029259
v 0.114210 -0.216506 -1.119983
v 0.158786 -0.125000 -1.458567
v 0.000000 0.000000 -1.502468
v 0.000000 0.125000 -1.468975
v 0.000000 0.216506 -1.377468
v 0.000000 0.250000 -1.252468
v 0.000000 0.216506 -1.127468
v 0.000000 0.125000 -1.035962
v 0.000000 0.000000 -1.002468
v 0.000000 -0.125000 -1.035962
v 0.000000 -0.216506 -1.127468
v 0.000000 -0.250000 -1.252468
v 0.000000 -0.216506 -1.377468
v 0.000000 -0.125000 -1.468975
v -0.163158 0.000000 -1.491774
v -0.158786 0.125000 -1.458567
v -0.146842 0.216506 -1.367844
v -0.130526 0.250000 -1.243913
v -0.114211 0.216506 -1.119983
v -0.102267 0.125000 -1.029259
v -0.097895 0.000000 -0.996052
v -0.102267 -0.125000 -1.029259
v -0.114211 -0.216506 -1.119983
v -0.130526 -0.250000 -1.243913
v -0.146842 -0.216506 -1.367844
v -0.158786 -0.125000 -1.458567
v -0.323524 0.000000 -1.459876
v -0.314855 0.125000 -1.427523
v -0.291171 0.216506 -1.339135
v -0.258819 0.250000 -1.218394
v -0.226467 0.216506 -1.097654
v -0.202783 0.125000 -1.009265
v -0.194114 0.000000 -0.976913
v -0.202783 -0.125000 -1.009265
v -0.226467 -0.216506 -1.097654
v -0.258819 -0.250000 -1.218394
v -0.291171 -0.216506 -1.339135
v -0.314855 -0.125000 -1.427523
v -0.478354 0.000000 -1.407318
v -0.465537 0.125000 -1.376374
v -0.430519 0.216506 -1.291833
v -0.382684 0.250000 -1.176348
v -0.334848 0.216506 -1.060863
v -0.299830 0.125000 -0.976322
v -0.287013 0.000000 -0.945378
v -0.299830 -0.125000 -0.976322
v -0.334848 -0.216506 -1.060863
v -0.382684 -0.250000 -1.176348
v -0.430519 -0.216506 -1.291833
v -0.465537 -0.125000 -1.376374
v -0.625000 0.000000 -1.335000
v -0.608253 0.125000 -1.305994
v -0.562500 0.216506 -1.226747
v -0.500000 0.250000 -1.118494
v -0.437500 0.216506 -1.010241
v -0.391747 0.125000 -0.930994
v -0.375000 0.000000 -0.901987
v -0.391747 -0.125000 -0.930994
v -0.437500 -0.216506 -1.010241
v -0.500000 -0.250000 -1.118494
v -0.562500 -0.216506 -1.226747
v -0.608253 -0.125000 -1.305994
v -0.760952 0.000000 -1.244160
v -0.740562 0.125000 -1.217588
v -0.684857 0.216506 -1.144991
v -0.608761 0.250000 -1.045822
v -0.532666 0.216506 -0.946653
v -0.476961 0.125000 -0.874056
v -0.456571 0.000000 -0.847483
v -0.476961 -0.125000 -0.874056
v -0.532666 -0.216506 -0.946653
v -0.608761 -0.250000 -1.045822
v -0.684857 -0.216506 -1.144991
v -0.740562 -0.125000 -1.217588
v -0.883884 0.000000 -1.136352
v -0.860200 0.125000 -1.112668
v -0.795495 0.216506 -1.047963
v -0.707107 0.250000 -0.959575
v -0.618719 0.216506 -0.871187
v -0.554014 0.125000 -0.806482
v -0.530330 0.000000 -0.782798
v -0.554014 -0.125000 -0.806482
v -0.618719 -0.216506 -0.871187
v -0.707107 -0.250000 -0.959575
v -0.795495 -0.216506 -1.047963
v -0.860200 -0.125000 -1.112668
v -0.991692 0.000000 -1.013420
v -0.965119 0.125000 -0.993031
v -0.892523 0.216506 -0.937325
v -0.793353 0.250000 -0.861230
v -0.694184 0.216506 -0.785135
v -0.621587 0.125000 -0.729429
v -0.595015 0.000000 -0.709039
v -0.621587 -0.125000 -0.729429
v -0.694184 -0.216506 -0.785135
v -0.793353 -0.250000 -0.861230
v -0.892523 -0.216506 -0.937325
v -0.965119 -0.125000 -0.993031
v -1.082532 0.000000 -0.877469
v -1.053525 0.125000 -0.860722
v -0.974279 0.216506 -0.814969
v -0.866025 0.250000 -0.752469
v -0.757772 0.216506 -0.689969
v -0.678525 0.125000 -0.644215
v -0.649519 0.000000 -0.627469
v -0.678525 -0.125000 -0.644215
v -0.757772 -0.216506 -0.689969
v -0.866025 -0.250000 -0.752469
v -0.974279 -0.216506 -0.814969
v -1.053525 -0.125000 -0.860722
v -1.154849 0.000000 -0.730823
v -1.123905 0.125000 -0.718005
v -1.039364 0.216506 -0.682987
v -0.923879 0.250000 -0.635152
v -0.808394 0.216506 -0.587316
v -0.723854 0.125000 -0.552298
v -0.692910 0.000000 -0.539481
v -0.723854 -0.125000 -0.552298
v -0.808394 -0.216506 -0.587316
v -0.923879 -0.250000 -0.635152
v -1.039364 -0.216506 -0.682987
v -1.123905 -0.125000 -0.718005
v -1.207407 0.000000 -0.575992
v -1.175055 0.125000 -0.567323
v -1.086667 0.216506 -0.543640
v -0.965926 0.250000 -0.511287
v -0.845185 0.216506 -0.478935
v -0.756797 0.125000 -0.455251
v -0.724444 0.000000 -0.446583
v -0.756797 -0.125000 -0.455251
v -0.845185 -0.216506 -0.478935
v -0.965926 -0.250000 -0.511287
v -1.086667 -0.216506 -0.543640
v -1.175055 -0.125000 -0.567323
v -1.239306 0.000000 -0.415626
v -1.206099 0.125000 -0.411254
v -1.115376 0.216506 -0.399310
v -0.991445 0.250000 -0.382995
v -0.867514 0.216506 -0.366679
v -0.776791 0.125000 -0.354735
v -0.743584 0.000000 -0.350363
v -0.776791 -0.125000 -0.354735
v -0.867514 -0.216506 -0.366679
v -0.991445 -0.250000 -0.382995
v -1.115376 -0.216506 -0.399310
v -1.206099 -0.125000 -0.411254
v -1.216506 0.125000 -0.252468
v -1.125000 0.216506 -0.252468
v -1.000000 0.250000 -0.252468
v -0.875000 0.216506 -0.252468
v -0.783494 0.125000 -0.252468
v -0.750000 0.000000 -0.252468
v -0.783494 -0.125000 -0.252468
v -0.991445 0.250000 -0.121942
v -0.867514 0.216506 -0.138258
v -0.776791 0.125000 -0.150202
v 0.923879 0.250000 0.130215
v 0.808394 0.216506 0.082380
v 0.723854 0.125000 0.047362
v 0.845185 0.216506 -0.026002
v 0.756797 0.125000 -0.049685
v 0.867514 0.216506 -0.138258
v 0.773210 0.125000 -0.132198
v 0.736084 0.230658 -0.817285
v 0.921753 0.237746 -0.005486
v 0.127690 -0.250000 -1.244099
v 0.148724 -0.202085 -1.382142
v 0.652275 0.125000 -0.683502
v 0.537934 0.040131 -0.790402
v 0.868059 0.216506 -0.146563
v 0.488594 0.000000 -0.819400
v 0.744499 0.216506 -0.709833
v 0.731750 0.250000 -0.931475
v 0.664476 0.225477 -1.118430
v 0.957300 0.240307 0.144059
v 0.304560 -0.137359 -0.987740
v 0.221299 -0.196540 -1.078367
v 0.697883 0.020089 0.036604
v 0.616261 0.099942 -0.725342
v 0.581981 0.177545 -1.260488
v 0.845823 0.194628 -0.141114
v 0.504501 0.125000 -1.357159
v 0.217057 -0.125000 -1.446976
v 0.385186 -0.076027 -0.919629
v 0.321720 -0.026009 -1.453144
v 0.459865 -0.020194 -0.851776
v 0.322784 -0.125000 -0.965003
v 0.718477 0.245691 -0.970945
v 0.948642 0.250000 0.057268
v 0.746000 0.083285 -0.052578
v 0.350075 0.000000 -1.450863
v 0.642891 0.216506 -1.173031
v 0.194281 -0.216506 -1.104056
v 0.136264 -0.216506 -1.368537
v 0.870985 0.217444 -0.137801
v 0.129951 -0.248820 -1.239549
v 0.468439 0.096699 -1.383380
v -1.245300 0.017540 -0.252468
v -1.039503 0.237012 -0.115615
v -1.119004 -0.216506 -0.343945
v -0.761698 0.068187 -0.152189
v -0.987322 0.250000 -0.101215
v -1.212400 -0.125000 -0.315114
v -1.212819 0.125000 -0.196217
v -1.249411 0.000000 -0.261462
v -0.772136 0.125000 -0.126799
v 0.695714 0.125000 0.104424
v -1.117475 0.216506 -0.137655
v -0.791259 -0.132765 -0.252468
v 0.770259 0.216506 0.159710
v -0.859305 0.216506 -0.096987
v 0.892016 0.250000 0.194828
v -0.745386 0.000000 -0.182066
v -0.994248 -0.250000 -0.340230
v -0.783168 -0.125000 -0.247499
v -0.871559 -0.216506 -0.304966
v 0.961226 0.232998 0.197640
v 0.688901 0.009308 0.048299
vn -0.2156 0.9658 0.1441
vn -0.5886 0.7063 0.3933
vn -0.8033 0.2583 0.5367
vn 0.1950 0.9658 -0.1710
vn -0.1950 0.9658 0.1710
vn -0.5322 0.7063 0.4667
vn 0.1710 0.9658 -0.1950
vn -0.1710 0.9658 0.1950
vn -0.4667 0.7063 0.5322
vn -0.6370 -0.2583 0.7263
vn 0.3933 0.7063 -0.5886
vn 0.1441 0.9658 -0.2156
vn -0.1441 0.9658 0.2156
vn -0.3933 0.7063 0.5886
vn -0.5367 0.2583 0.8033
vn 0.4273 0.2583 -0.8664
vn 0.3131 0.7063 -0.6349
vn 0.1147 0.9658 -0.2326
vn -0.1147 0.9658 0.2326
vn -0.3131 0.7063 0.6349
vn -0.4273 0.2583 0.8664
vn -0.3131 -0.7063 0.6349
vn 0.3105 0.2583 -0.9148
vn 0.2275 0.7063 -0.6703
vn 0.0834 0.9658 -0.2456
vn -0.0834 0.9658 0.2456
vn -0.2275 0.7063 0.6703
vn -0.3105 0.2583 0.9148
vn -0.3105 -0.2583 0.9148
vn 0.3105 -0.2583 -0.9148
vn 0.1885 0.2583 -0.9475
vn 0.1381 0.7063 -0.6943
vn 0.0506 0.9658 -0.2544
vn -0.0506 0.9658 0.2544
vn -0.1381 0.7063 0.6943
vn -0.1885 0.2583 0.9475
vn -0.1885 -0.2583 0.9475
vn -0.0506 -0.9658 0.2544
vn 0.1381 -0.7063 -0.6943
vn 0.1885 -0.2583 -0.9475
vn 0.0632 0.2583 -0.9640
vn 0.0463 0.7063 -0.7063
vn 0.0170 0.9658 -0.2588
vn -0.0170 0.9658 0.2588
vn -0.0463 0.7063 0.7063
vn -0.0632 0.2583 0.9640
vn -0.0632 -0.2583 0.9640
vn -0.0463 -0.7063 0.7063
vn 0.0170 -0.9658 -0.2588
vn 0.0463 -0.7063 -0.7063
vn 0.0632 -0.2583 -0.9640
vn -0.0632 0.2583 -0.9640
vn -0.0463 0.7063 -0.7063
vn -0.0170 0.9658 -0.2588
vn 0.0170 0.9658 0.2588
vn 0.0463 0.7063 0.7063
vn 0.0632 0.2583 0.9640
vn 0.0632 -0.2583 0.9640
vn 0.0463 -0.7063 0.7063
vn 0.0170 -0.9658 0.2588
vn -0.0170 -0.9658 -0.2588
vn -0.0463 -0.7063 -0.7063
vn -0.0632 -0.2583 -0.9640
vn -0.1885 0.2583 -0.9475
vn -0.1381 0.7063 -0.6943
vn -0.0506 0.9658 -0.2544
vn 0.0506 0.9658 0.2544
vn 0.1381 0.7063 0.6943
vn 0.1885 0.2583 0.9475
vn 0.1885 -0.2583 0.9475
vn 0.1381 -0.7063 0.6943
vn 0.0506 -0.9658 0.2544
vn -0.0506 -0.9658 -0.2544
vn -0.1381 -0.7063 -0.6943
vn -0.1885 -0.2583 -0.9475
vn -0.3105 0.2583 -0.9148
vn -0.2275 0.7063 -0.6703
vn -0.0834 0.9658 -0.2456
vn 0.0834 0.9658 0.2456
vn 0.2275 0.7063 0.6703
vn 0.3105 0.2583 0.9148
vn 0.3105 -0.2583 0.9148
vn 0.2275 -0.7063 0.6703
vn 0.0834 -0.9658 0.2456
vn -0.0834 -0.9658 -0.2456
vn -0.2275 -0.7063 -0.6703
vn -0.3105 -0.2583 -0.9148
vn -0.4273 0.2583 -0.8664
vn -0.3131 0.7063 -0.6349
vn -0.1147 0.9658 -0.2326
vn 0.1147 0.9658 0.2326
vn 0.3131 0.7063 0.6349
vn 0.4273 0.2583 0.8664
vn 0.4273 -0.2583 0.8664
vn 0.3131 -0.7063 0.6349
vn 0.1147 -0.9658 0.2326
vn -0.1147 -0.9658 -0.2326
vn -0.3131 -0.7063 -0.6349
vn -0.4273 -0.2583 -0.8664
vn -0.5367 0.2583 -0.8033
vn -0.3933 0.7063 -0.5886
vn -0.1441 0.9658 -0.2156
vn 0.1441 0.9658 0.2156
vn 0.3933 0.7063 0.5886
vn 0.5367 0.2583 0.8033
vn 0.5367 -0.2583 0.8033
vn 0.3933 -0.7063 0.5886
vn 0.1441 -0.9658 0.2156
vn -0.1441 -0.9658 -0.2156
vn -0.3933 -0.7063 -0.5886
vn -0.5367 -0.2583 -0.8033
vn -0.6370 0.2583 -0.7263
vn -0.4667 0.7063 -0.5322
vn -0.1710 0.9658 -0.1950
vn 0.1710 0.9658 0.1950
vn 0.4667 0.7063 0.5322
vn 0.6370 0.2583 0.7263
vn 0.6370 -0.2583 0.7263
vn 0.4667 -0.7063 0.5322
vn 0.1710 -0.9658 0.1950
vn -0.1710 -0.9658 -0.1950
vn -0.4667 -0.7063 -0.5322
vn -0.6370 -0.2583 -0.7263
vn -0.7263 0.2583 -0.6370
vn -0.5322 0.7063 -0.4667
vn -0.1950 0.9658 -0.1710
vn 0.1950 0.9658 0.1710
vn 0.5322 0.7063 0.4667
vn 0.7263 0.2583 0.6370
vn 0.7263 -0.2583 0.6370
vn 0.5322 -0.7063 0.4667
vn 0.1950 -0.9658 0.1710
vn -0.1950 -0.9658 -0.1710
vn -0.5322 -0.7063 -0.4667
vn -0.7263 -0.2583 -0.6370
vn -0.8033 0.2583 -0.5367
vn -0.5886 0.7063 -0.3933
vn -0.2156 0.9658 -0.1441
vn 0.2156 0.9658 0.1441
vn 0.5886 0.7063 0.3933
vn 0.8033 0.2583 0.5367
vn 0.8033 -0.2583 0.5367
vn 0.5886 -0.7063 0.3933
vn 0.2156 -0.9658 0.1441
vn -0.2156 -0.9658 -0.1441
vn -0.5886 -0.7063 -0.3933
vn -0.8033 -0.2583 -0.5367
vn -0.8664 0.2583 -0.4273
vn -0.6349 0.7063 -0.3131
vn -0.2326 0.9658 -0.1147
vn 0.2326 0.9658 0.1147
vn 0.6349 0.7063 0.3131
vn 0.8664 0.2583 0.4273
vn 0.8664 -0.2583 0.4273
vn 0.6349 -0.7063 0.3131
vn 0.2326 -0.9658 0.1147
vn -0.2326 -0.9658 -0.1147
vn -0.6349 -0.7063 -0.3131
vn -0.8664 -0.2583 -0.4273
vn -0.9148 0.2583 -0.3105
vn -0.6703 0.7063 -0.2275
vn -0.2456 0.9658 -0.0834
vn 0.2456 0.9658 0.0834
vn 0.6703 0.7063 0.2275
vn 0.9148 0.2583 0.3105
vn 0.9148 -0.2583 0.3105
vn 0.6703 -0.7063 0.2275
vn 0.2456 -0.9658 0.0834
vn -0.2456 -0.9658 -0.0834
vn -0.6703 -0.7063 -0.2275
vn -0.9148 -0.2583 -0.3105
vn -0.9475 0.2583 -0.1885
vn -0.6943 0.7063 -0.1381
vn -0.2544 0.9658 -0.0506
vn 0.2544 0.9658 0.0506
vn 0.6943 0.7063 0.1381
vn 0.9475 0.2583 0.1885
vn 0.9475 -0.2583 0.1885
vn 0.6943 -0.7063 0.1381
vn 0.2544 -0.9658 0.0506
vn -0.2544 -0.9658 -0.0506
vn -0.6943 -0.7063 -0.1381
vn -0.9475 -0.2583 -0.1885
vn -0.7063 0.7063 -0.0463
vn -0.2588 0.9658 -0.0170
vn 0.2588 0.9658 0.0170
vn 0.7063 0.7063 0.0463
vn 0.9640 0.2583 0.0632
vn 0.9640 -0.2583 0.0632
vn -0.9640 0.2583 0.0632
vn 0.2588 0.9658 -0.0170
vn 0.7063 0.7063 -0.0463
vn -0.2544 0.9658 0.0506
vn -0.5367 -0.2583 0.8033
vn -0.4273 -0.2583 0.8664
vn -0.1381 -0.7063 0.6943
vn -0.2275 -0.7063 0.6703
vn -0.7263 0.2583 0.6370
vn -0.6370 0.2583 0.7263
vn -0.0170 -0.9658 0.2588
vn 0.6750 -0.7229 -0.1481
vn 0.6749 -0.7228 -0.1484
vn 0.2588 -0.9658 0.0170
vn 0.9640 -0.2583 -0.0632
vn 0.7063 -0.7063 0.0463
vn 0.7064 -0.7063 -0.0463
vn 0.6943 0.7063 -0.1381
vn -0.7063 0.7063 0.0463
vn -0.9640 -0.2583 -0.0632
vn 0.2544 0.9658 -0.0506
vn 0.9640 0.2583 -0.0632
vn 0.9475 0.2583 -0.1885
vn -0.2588 -0.9658 -0.0170
vn -0.7063 -0.7063 -0.0463
vn -0.2588 0.9658 0.0170
vn -0.9640 0.2583 -0.0632
vn -0.1408 -0.4254 0.8940
usemtl None
s off
f 209//1 201//1 1//1
f 209//2 1//2 2//2 205//2
f 205//3 2//3 216//3
f 210//4 225//4 3//4
f 210//5 3//5 4//5 1//5 201//5
f 1//6 4//6 5//6 2//6
f 225//7 211//7 6//7 3//7
f 3//8 6//8 7//8 4//8
f 4//9 7//9 8//9 5//9
f 208//10 9//10 223//10
f 229//11 217//11 10//11
f 229//12 10//12 11//12 6//12 211//12
f 6//13 11//13 12//13 7//13
f 7//14 12//14 13//14 8//14
f 8//15 13//15 14//15 9//15
f 219//16 234//16 15//16
f 219//17 15//17 16//17 10//17 217//17
f 10//18 16//18 17//18 11//18
f 11//19 17//19 18//19 12//19
f 12//20 18//20 19//20 13//20
f 13//21 19//21 20//21 14//21
f 224//22 21//22 213//22
f 228//23 22//23 23//23 15//23 234//23
f 15//24 23//24 24//24 16//24
f 16//25 24//25 25//25 17//25
f 17//26 25//26 26//26 18//26
f 18//27 26//27 27//27 19//27
f 19//28 27//28 28//28 20//28
f 20//29 28//29 29//29 21//29
f 228//30 222//30 22//30
f 22//31 30//31 31//31 23//31
f 23//32 31//32 32//32 24//32
f 24//33 32//33 33//33 25//33
f 25//34 33//34 34//34 26//34
f 26//35 34//35 35//35 27//35
f 27//36 35//36 36//36 28//36
f 28//37 36//37 37//37 29//37
f 230//38 38//38 233//38
f 220//39 204//39 39//39
f 220//40 39//40 30//40 22//40 222//40
f 30//41 40//41 41//41 31//41
f 31//42 41//42 42//42 32//42
f 32//43 42//43 43//43 33//43
f 33//44 43//44 44//44 34//44
f 34//45 44//45 45//45 35//45
f 35//46 45//46 46//46 36//46
f 36//47 46//47 47//47 37//47
f 37//48 47//48 48//48 38//48
f 203//49 49//49 50//49 231//49
f 231//50 50//50 51//50 39//50 204//50
f 39//51 51//51 40//51 30//51
f 40//52 52//52 53//52 41//52
f 41//53 53//53 54//53 42//53
f 42//54 54//54 55//54 43//54
f 43//55 55//55 56//55 44//55
f 44//56 56//56 57//56 45//56
f 45//57 57//57 58//57 46//57
f 46//58 58//58 59//58 47//58
f 47//59 59//59 60//59 48//59
f 48//60 60//60 61//60 49//60
f 49//61 61//61 62//61 50//61
f 50//62 62//62 63//62 51//62
f 51//63 63//63 52//63 40//63
f 52//64 64//64 65//64 53//64
f 53//65 65//65 66//65 54//65
f 54//66 66//66 67//66 55//66
f 55//67 67//67 68//67 56//67
f 56//68 68//68 69//68 57//68
f 57//69 69//69 70//69 58//69
f 58//70 70//70 71//70 59//70
f 59//71 71//71 72//71 60//71
f 60//72 72//72 73//72 61//72
f 61//73 73//73 74//73 62//73
f 62//74 74//74 75//74 63//74
f 63//75 75//75 64//75 52//75
f 64//76 76//76 77//76 65//76
f 65//77 77//77 78//77 66//77
f 66//78 78//78 79//78 67//78
f 67//79 79//79 80//79 68//79
f 68//80 80//80 81//80 69//80
f 69//81 81//81 82//81 70//81
f 70//82 82//82 83//82 71//82
f 71//83 83//83 84//83 72//83
f 72//84 84//84 85//84 73//84
f 73//85 85//85 86//85 74//85
f 74//86 86//86 87//86 75//86
f 75//87 87//87 76//87 64//87
f 76//88 88//88 89//88 77//88
f 77//89 89//89 90//89 78//89
f 78//90 90//90 91//90 79//90
f 79//91 91//91 92//91 80//91
f 80//92 92//92 93//92 81//92
f 81//93 93//93 94//93 82//93
f 82//94 94//94 95//94 83//94
f 83//95 95//95 96//95 84//95
f 84//96 96//96 97//96 85//96
f 85//97 97//97 98//97 86//97
f 86//98 98//98 99//98 87//98
f 87//99 99//99 88//99 76//99
f 88//100 100//100 101//100 89//100
f 89//101 101//101 102//101 90//101
f 90//102 102//102 103//102 91//102
f 91//103 103//103 104//103 92//103
f 92//104 104//104 105//104 93//104
f 93//105 105//105 106//105 94//105
f 94//106 106//106 107//106 95//106
f 95//107 107//107 108//107 96//107
f 96//108 108//108 109//108 97//108
f 97//109 109//109 110//109 98//109
f 98//110 110//110 111//110 99//110
f 99//111 111//111 100//111 88//111
f 100//112 112//112 113//112 101//112
f 101//113 113//113 114//113 102//113
f 102//114 114//114 115//114 103//114
f 103//115 115//115 116//115 104//115
f 104//116 116//116 117//116 105//116
f 105//117 117//117 118//117 106//117
f 106//118 118//118 119//118 107//118
f 107//119 119//119 120//119 108//119
f 108//120 120//120 121//120 109//120
f 109//121 121//121 122//121 110//121
f 110//122 122//122 123//122 111//122
f 111//123 123//123 112//123 100//123
f 112//124 124//124 125//124 113//124
f 113//125 125//125 126//125 114//125
f 114//126 126//126 127//126 115//126
f 115//127 127//127 128//127 116//127
f 116//128 128//128 129//128 117//128
f 117//129 129//129 130//129 118//129
f 118//130 130//130 131//130 119//130
f 119//131 131//131 132//131 120//131
f 120//132 132//132 133//132 121//132
f 121//133 133//133 134//133 122//133
f 122//134 134//134 135//134 123//134
f 123//135 135//135 124//135 112//135
f 124//136 136//136 137//136 125//136
f 125//137 137//137 138//137 126//137
f 126//138 138//138 139//138 127//138
f 127//139 139//139 140//139 128//139
f 128//140 140//140 141//140 129//140
f 129//141 141//141 142//141 130//141
f 130//142 142//142 143//142 131//142
f 131//143 143//143 144//143 132//143
f 132//144 144//144 145//144 133//144
f 133//145 145//145 146//145 134//145
f 134//146 146//146 147//146 135//146
f 135//147 147//147 136//147 124//147
f 136//148 148//148 149//148 137//148
f 137//149 149//149 150//149 138//149
f 138//150 150//150 151//150 139//150
f 139//151 151//151 152//151 140//151
f 140//152 152//152 153//152 141//152
f 141//153 153//153 154//153 142//153
f 142//154 154//154 155//154 143//154
f 143//155 155//155 156//155 144//155
f 144//156 156//156 157//156 145//156
f 145//157 157//157 158//157 146//157
f 146//158 158//158 159//158 147//158
f 147//159 159//159 148//159 136//159
f 148//160 160//160 161//160 149//160
f 149//161 161//161 162//161 150//161
f 150//162 162//162 163//162 151//162
f 151//163 163//163 164//163 152//163
f 152//164 164//164 165//164 153//164
f 153//165 165//165 166//165 154//165
f 154//166 166//166 167//166 155//166
f 155//167 167//167 168//167 156//167
f 156//168 168//168 169//168 157//168
f 157//169 169//169 170//169 158//169
f 158//170 170//170 171//170 159//170
f 159//171 171//171 160//171 148//171
f 160//172 172//172 173//172 161//172
f 161//173 173//173 174//173 162//173
f 162//174 174//174 175//174 163//174
f 163//175 175//175 176//175 164//175
f 164//176 176//176 177//176 165//176
f 165//177 177//177 178//177 166//177
f 166//178 178//178 179//178 167//178
f 167//179 179//179 180//179 168//179
f 168//180 180//180 181//180 169//180
f 169//181 181//181 182//181 170//181
f 170//182 182//182 183//182 171//182
f 171//183 183//183 172//183 160//183
f 173//184 184//184 185//184 174//184
f 174//185 185//185 186//185 175//185
f 175//186 186//186 187//186 176//186
f 176//187 187//187 188//187 177//187
f 177//188 188//188 189//188 178//188
f 178//189 189//189 190//189 179//189
f 235//190 241//190 184//190
f 186//191 191//191 192//191 187//191
f 187//192 192//192 193//192 188//192
f 236//193 239//193 191//193
f 254//151 212//151 194//151 249//151
f 249//150 194//150 195//150 247//150
f 247//149 195//149 196//149 244//149
f 212//163 226//163 194//163
f 195//161 197//161 198//161 196//161
f 202//174 232//174 199//174 197//174
f 232//185 207//185 199//185
f 9//194 14//194 221//194 223//194
f 14//195 20//195 21//195 224//195 221//195
f 196//160 198//160 227//160 215//160
f 29//196 37//196 38//196 230//196 214//196
f 21//197 29//197 214//197 213//197
f 199//184 207//184 218//184
f 2//198 5//198 206//198 216//198
f 5//199 8//199 9//199 208//199 206//199
f 38//200 48//200 49//200 203//200 233//200
f 194//162 226//162 202//162 197//162 195//162
f 244//148 196//148 215//148 255//148
f 197//173 199//173 218//173 200//173 198//173
f 198//172 200//172 227//172
f 230//201 233//201 203//201 231//201 204//201 220//201 222//201 228//201 234//201 219//201 217//201 229//201 211//201 225//201 210//201 201//201 209//201 205//201 216//201 206//201 208//201 223//201 221//201 224//201 213//201 214//201
f 232//202 202//202 226//202 212//202 254//202 255//202 215//202 227//202 200//202 218//202 199//202
f 180//203 253//203 251//203 181//203
f 189//204 250//204 252//204 190//204
f 179//205 190//205 246//205 253//205 180//205
f 190//206 252//206 246//206
f 192//207 248//207 243//207 193//207
f 184//208 241//208 245//208 185//208
f 183//209 240//209 242//209 172//209
f 191//210 239//210 248//210 192//210
f 188//211 193//211 238//211 250//211 189//211
f 193//212 243//212 238//212
f 181//213 251//213 237//213 182//213
f 182//214 237//214 240//214 183//214
f 185//215 245//215 236//215 191//215 186//215
f 172//216 242//216 235//216 184//216 173//216
f 251//217 253//217 246//217 252//217 250//217 238//217 243//217 248//217 239//217 236//217 245//217 241//217 235//217 242//217 240//217 237//217
