# Blender v2.78 (sub 0) OBJ File: ''
# www.blender.org
mtllib 5.mtl
o Torus.003
v 0.808395 -0.315876 -0.575190
v 0.723854 -0.407382 -0.540172
v 0.692910 -0.532382 -0.527354
v 1.082532 -0.532382 -0.865342
v 1.053525 -0.407382 -0.848595
v 0.974279 -0.315876 -0.802842
v 0.866025 -0.282382 -0.740342
v 0.757772 -0.315876 -0.677842
v 0.678525 -0.407382 -0.632089
v 0.649519 -0.532382 -0.615342
v 0.678525 -0.657382 -0.632089
v 0.757772 -0.748888 -0.677842
v 0.866025 -0.782382 -0.740342
v 0.974279 -0.748888 -0.802842
v 1.053525 -0.657382 -0.848595
v 0.991692 -0.532382 -1.001293
v 0.965119 -0.407382 -0.980904
v 0.892523 -0.315876 -0.925198
v 0.793353 -0.282382 -0.849103
v 0.595015 -0.532382 -0.696913
v 0.621587 -0.657382 -0.717302
v 0.694184 -0.748888 -0.773008
v 0.793353 -0.782382 -0.849103
v 0.892523 -0.748888 -0.925198
v 0.965119 -0.657382 -0.980904
v 0.883883 -0.532382 -1.124225
v 0.860200 -0.407382 -1.100542
v 0.795495 -0.315876 -1.035837
v 0.530330 -0.532382 -0.770672
v 0.554014 -0.657382 -0.794355
v 0.618718 -0.748888 -0.859060
v 0.707107 -0.782382 -0.947449
v 0.795495 -0.748888 -1.035837
v 0.860200 -0.657382 -1.100542
v 0.760952 -0.532382 -1.232033
v 0.740562 -0.407382 -1.205461
v 0.684857 -0.315876 -1.132864
v 0.476961 -0.657382 -0.861929
v 0.532666 -0.748888 -0.934526
v 0.608762 -0.782382 -1.033695
v 0.684857 -0.748888 -1.132864
v 0.740562 -0.657382 -1.205461
v 0.625000 -0.532382 -1.322873
v 0.608253 -0.407382 -1.293867
v 0.391747 -0.657382 -0.918867
v 0.437500 -0.748888 -0.998114
v 0.500000 -0.782382 -1.106367
v 0.562500 -0.748888 -1.214620
v 0.608253 -0.657382 -1.293867
v 0.478355 -0.532382 -1.395191
v 0.334848 -0.748888 -1.048736
v 0.382684 -0.782382 -1.164221
v 0.430519 -0.748888 -1.279706
v 0.465537 -0.657382 -1.364247
v 0.226467 -0.748888 -1.085527
v 0.258819 -0.782382 -1.206268
v 0.291171 -0.748888 -1.327008
v 0.314855 -0.657382 -1.415397
v 0.130526 -0.782382 -1.231787
v 0.146842 -0.748888 -1.355717
v 0.736084 -0.301724 -0.805158
v 0.127690 -0.782382 -1.231972
v 0.148724 -0.734467 -1.370015
v 0.652275 -0.407382 -0.671375
v 0.537934 -0.492251 -0.778275
v 0.488594 -0.532382 -0.807274
v 0.744499 -0.315876 -0.697707
v 0.731750 -0.282382 -0.919349
v 0.664476 -0.306905 -1.106303
v 0.304560 -0.669741 -0.975614
v 0.221299 -0.728922 -1.066241
v 0.616261 -0.432440 -0.713215
v 0.581981 -0.354837 -1.248362
v 0.504501 -0.407382 -1.345032
v 0.217057 -0.657382 -1.434850
v 0.385186 -0.608408 -0.907503
v 0.321720 -0.558391 -1.441017
v 0.459865 -0.552575 -0.839649
v 0.322784 -0.657382 -0.952876
v 0.718477 -0.286691 -0.958819
v 0.350075 -0.532382 -1.438736
v 0.642891 -0.315876 -1.160905
v 0.194281 -0.748888 -1.091929
v 0.136264 -0.748888 -1.356411
v 0.129951 -0.781202 -1.227422
v 0.468439 -0.435683 -1.371253
v 0.720681 -0.657382 -0.546605
v 1.101560 -0.407382 -0.751190
v 1.006835 -0.748888 -0.736824
v 0.696942 -0.532382 -0.515476
v 1.089232 -0.657382 -0.776190
v 1.123904 -0.532382 -0.781448
v 0.917206 -0.284317 -0.620261
v 0.898792 -0.782382 -0.673898
v 0.712440 -0.611276 -0.535444
v 1.028189 -0.315876 -0.693522
v 0.923450 -0.282382 -0.623897
v 0.730655 -0.407382 -0.520137
v 0.794053 -0.748888 -0.604273
v 0.813603 -0.315876 -0.559847
vn -0.2456 0.9658 0.0834
vn -0.6703 0.7063 0.2275
vn -0.9148 0.2583 0.3105
vn -0.9148 -0.2583 0.3105
vn 0.8664 0.2583 -0.4273
vn 0.6349 0.7063 -0.3131
vn 0.2326 0.9658 -0.1147
vn -0.2326 0.9658 0.1147
vn -0.6349 0.7063 0.3131
vn -0.8664 0.2583 0.4273
vn -0.6349 -0.7063 0.3131
vn -0.2326 -0.9658 0.1147
vn 0.2326 -0.9658 -0.1147
vn 0.6349 -0.7063 -0.3131
vn 0.8664 -0.2583 -0.4273
vn 0.8033 0.2583 -0.5367
vn 0.5886 0.7063 -0.3933
vn 0.2156 0.9658 -0.1441
vn -0.8033 -0.2583 0.5367
vn -0.5886 -0.7063 0.3933
vn -0.2156 -0.9658 0.1441
vn 0.2156 -0.9658 -0.1441
vn 0.5886 -0.7063 -0.3933
vn 0.8033 -0.2583 -0.5367
vn 0.7263 0.2583 -0.6370
vn 0.5322 0.7063 -0.4667
vn -0.7263 0.2583 0.6370
vn -0.7263 -0.2583 0.6370
vn -0.5322 -0.7063 0.4667
vn -0.1950 -0.9658 0.1710
vn 0.1950 -0.9658 -0.1710
vn 0.5322 -0.7063 -0.4667
vn 0.7263 -0.2583 -0.6370
vn 0.6370 0.2583 -0.7263
vn 0.4667 0.7063 -0.5322
vn -0.6370 0.2583 0.7263
vn -0.4667 -0.7063 0.5322
vn -0.1710 -0.9658 0.1950
vn 0.1710 -0.9658 -0.1950
vn 0.4667 -0.7063 -0.5322
vn 0.6370 -0.2583 -0.7263
vn 0.5367 0.2583 -0.8033
vn -0.5367 -0.2583 0.8033
vn -0.3933 -0.7063 0.5886
vn -0.1441 -0.9658 0.2156
vn 0.1441 -0.9658 -0.2156
vn 0.3933 -0.7063 -0.5886
vn 0.5367 -0.2583 -0.8033
vn -0.4273 -0.2583 0.8664
vn -0.1147 -0.9658 0.2326
vn 0.1147 -0.9658 -0.2326
vn 0.3131 -0.7063 -0.6349
vn 0.4273 -0.2583 -0.8664
vn -0.2275 -0.7063 0.6703
vn -0.0834 -0.9658 0.2456
vn 0.0834 -0.9658 -0.2456
vn 0.2275 -0.7063 -0.6703
vn -0.1381 -0.7064 0.6943
vn 0.0506 -0.9658 -0.2544
vn -0.0170 -0.9658 0.2588
vn -0.0506 -0.9658 0.2544
vn 0.3105 0.2583 -0.9148
vn 0.3105 -0.2583 -0.9148
vn 0.1885 -0.2583 -0.9475
vn 0.4273 0.2583 -0.8664
vn 0.3933 0.7063 -0.5886
vn 0.3131 0.7063 -0.6349
vn -0.3131 -0.7063 0.6349
vn 0.1710 0.9658 -0.1950
vn 0.1441 0.9658 -0.2156
vn 0.1950 0.9658 -0.1710
vn -0.6370 -0.2583 0.7263
vn -0.5886 0.7063 0.3933
vn -0.8033 0.2583 0.5367
vn 0.1381 -0.7063 -0.6943
vn 0.0463 -0.7063 -0.7064
vn 0.0170 -0.9658 -0.2588
vn -0.2156 0.9658 0.1441
vn -0.1950 0.9658 0.1710
vn -0.6750 0.7229 0.1481
vn -0.8664 -0.2583 0.4273
vn 0.5255 -0.1103 0.8436
usemtl None
s off
f 100//1 93//1 1//1
f 100//2 1//2 2//2 98//2
f 98//3 2//3 3//3 90//3
f 90//4 3//4 95//4
f 92//5 4//5 5//5 88//5
f 88//6 5//6 6//6 96//6
f 96//7 6//7 7//7 97//7
f 97//8 7//8 8//8 1//8 93//8
f 1//9 8//9 9//9 2//9
f 2//10 9//10 10//10 3//10
f 87//11 11//11 12//11 99//11
f 99//12 12//12 13//12 94//12
f 94//13 13//13 14//13 89//13
f 89//14 14//14 15//14 91//14
f 91//15 15//15 4//15 92//15
f 4//16 16//16 17//16 5//16
f 5//17 17//17 18//17 6//17
f 6//18 18//18 19//18 7//18
f 10//19 20//19 21//19 11//19
f 11//20 21//20 22//20 12//20
f 12//21 22//21 23//21 13//21
f 13//22 23//22 24//22 14//22
f 14//23 24//23 25//23 15//23
f 15//24 25//24 16//24 4//24
f 16//25 26//25 27//25 17//25
f 17//26 27//26 28//26 18//26
f 72//27 65//27 29//27 20//27
f 20//28 29//28 30//28 21//28
f 21//29 30//29 31//29 22//29
f 22//30 31//30 32//30 23//30
f 23//31 32//31 33//31 24//31
f 24//32 33//32 34//32 25//32
f 25//33 34//33 26//33 16//33
f 26//34 35//34 36//34 27//34
f 27//35 36//35 37//35 28//35
f 65//36 66//36 29//36
f 30//37 38//37 39//37 31//37
f 31//38 39//38 40//38 32//38
f 32//39 40//39 41//39 33//39
f 33//40 41//40 42//40 34//40
f 34//41 42//41 35//41 26//41
f 35//42 43//42 44//42 36//42
f 78//43 76//43 45//43 38//43
f 38//44 45//44 46//44 39//44
f 39//45 46//45 47//45 40//45
f 40//46 47//46 48//46 41//46
f 41//47 48//47 49//47 42//47
f 42//48 49//48 43//48 35//48
f 76//49 79//49 45//49
f 46//50 51//50 52//50 47//50
f 47//51 52//51 53//51 48//51
f 48//52 53//52 54//52 49//52
f 49//53 54//53 50//53 43//53
f 70//54 71//54 55//54 51//54
f 51//55 55//55 56//55 52//55
f 52//56 56//56 57//56 53//56
f 53//57 57//57 58//57 54//57
f 71//58 83//58 55//58
f 56//59 59//59 60//59 57//59
f 85//60 62//60 59//60
f 55//61 83//61 85//61 59//61 56//61
f 50//62 81//62 86//62
f 54//63 58//63 77//63 81//63 50//63
f 58//64 75//64 77//64
f 43//65 50//65 86//65 74//65 44//65
f 36//66 44//66 73//66 82//66 37//66
f 44//67 74//67 73//67
f 45//68 79//68 70//68 51//68 46//68
f 28//69 37//69 69//69 80//69
f 37//70 82//70 69//70
f 18//71 28//71 80//71 68//71 19//71
f 29//72 66//72 78//72 38//72 30//72
f 8//73 67//73 64//73 9//73
f 9//74 64//74 72//74 20//74 10//74
f 57//75 60//75 63//75 75//75 58//75
f 60//76 84//76 63//76
f 59//77 62//77 84//77 60//77
f 7//78 19//78 61//78 67//78 8//78
f 19//79 68//79 61//79
f 83//80 71//80 70//80 79//80 76//80 78//80 66//80 65//80 72//80 64//80 67//80 61//80 68//80 80//80 69//80 82//80 73//80 74//80 86//80 81//80 77//80 75//80 63//80 84//80 62//80 85//80
f 3//81 10//81 11//81 87//81 95//81
f 100//82 98//82 90//82 95//82 87//82 99//82 94//82 89//82 91//82 92//82 88//82 96//82 97//82
