# Blender v2.78 (sub 0) OBJ File: ''
# www.blender.org
mtllib 3.mtl
o Suzanne.005
v -0.203125 -0.382008 0.452562
v -0.312500 -0.632008 0.460374
v -0.437500 -0.335133 0.421312
v -0.632812 -0.233571 0.429124
v -0.710938 0.289867 0.515062
v -0.625000 -0.007008 0.538499
v -0.617188 -0.139821 0.515062
v -0.726562 0.008617 0.491624
v -0.742188 0.180492 0.546312
v -0.257812 -0.507008 0.444749
v -0.234375 -0.444508 0.444749
v -0.601562 -0.194508 0.304124
v -0.437500 -0.288258 0.358812
v 0.000000 0.703929 0.179124
v 0.000000 -0.655446 0.077562
v 0.000000 -0.764821 0.210374
v 0.000000 -0.678883 0.171312
v 0.851562 0.039867 -0.055251
v 0.859375 0.125804 -0.156813
v 0.773438 0.071117 -0.547438
v 0.734375 -0.241383 -0.039626
v 0.593750 -0.319508 -0.274001
v 0.640625 -0.202321 -0.539626
v 0.234375 -0.546071 0.296312
v -0.234375 -0.546071 0.296312
v 0.179688 -0.608571 0.147874
v -0.179688 -0.608571 0.147874
v 0.289062 -0.905446 0.272874
v -0.289062 -0.905446 0.272874
v 0.250000 -0.694508 0.280687
v -0.250000 -0.694508 0.280687
v 0.125000 -0.733571 0.249437
v -0.125000 -0.733571 0.249437
v 0.218750 -0.475758 0.319749
v -0.218750 -0.475758 0.319749
v -0.210938 -0.421071 0.358812
v -0.203125 -0.366383 0.390062
v 0.210938 -0.585133 0.054124
v -0.210938 -0.585133 0.054124
v 0.296875 -0.507008 -0.375563
v 0.453125 0.735179 -0.180251
v -0.460938 0.328929 0.319749
v 0.640625 0.508617 -0.055251
v 0.796875 0.367992 0.015062
v 0.796875 0.422679 -0.227126
v 0.640625 0.555492 -0.305251
v 0.796875 0.344554 -0.469313
v 0.820312 0.133617 -0.313063
v 0.406250 -0.366383 0.038499
v 0.429688 -0.389821 -0.320876
v 0.890625 0.211742 -0.344313
v 0.773438 -0.335133 -0.234938
v 1.023438 0.282054 -0.422438
v 1.015625 0.219554 -0.399001
v 0.828125 -0.264821 -0.242751
v 0.921875 0.164867 -0.328688
v 0.945312 0.110179 -0.399001
v 0.843750 0.094554 -0.320876
v 0.835938 -0.022633 -0.383376
v 0.757812 -0.100758 -0.383376
v 0.820312 -0.108571 -0.383376
v 0.812500 -0.210133 -0.383376
v 0.726562 -0.194508 -0.180251
v 0.718750 -0.217946 -0.281813
v 0.718750 -0.155446 -0.297438
v 0.796875 0.008617 -0.320876
v 0.890625 0.047679 -0.375563
v 0.890625 0.039867 -0.430251
v 0.828125 -0.116383 -0.430251
v 0.765625 -0.100758 -0.430251
v 0.843750 -0.022633 -0.430251
v 0.859375 0.188304 -0.492751
v 0.000000 -0.970665 0.230959
v 0.139818 -0.941028 0.256846
v -0.140118 -0.945223 0.256996
v 0.292816 -0.914079 0.280006
v 0.291945 -0.920435 0.274027
v -0.294934 -0.918951 0.284030
v 0.307531 -0.805146 0.382473
v -0.310059 -0.810007 0.386945
v 0.202850 -0.932671 0.263799
v -0.174126 -0.941742 0.260776
v -0.327708 -0.732383 0.460374
v -0.293564 -0.928854 0.274675
v 1.033796 0.283589 -0.427809
v 1.015829 0.219582 -0.399121
v 0.813346 -0.329265 -0.265456
v 0.847901 -0.261779 -0.259484
v 0.849246 -0.246717 -0.272923
v 1.015651 0.219316 -0.399239
v 0.961579 0.118312 -0.413641
v 0.822172 -0.211208 -0.374778
v 0.824809 -0.197825 -0.383376
v 0.836556 -0.177535 -0.378430
v 0.839635 -0.166539 -0.383376
v 0.949084 0.102637 -0.425398
v 0.926262 0.071049 -0.443615
v 0.834784 -0.134141 -0.430251
v 0.812500 -0.210133 -0.398400
v 0.846577 -0.107157 -0.432557
v 0.907131 0.025195 -0.437586
v 0.869504 -0.056972 -0.434543
v 0.781641 -0.326930 -0.341581
v 1.023438 0.277014 -0.444613
v 0.950708 0.218748 -0.549290
v 0.810856 -0.162111 -0.455014
v 0.746912 -0.286231 -0.466903
v -0.523621 0.252293 0.472838
v -0.541350 0.237467 0.481078
v -0.252748 -0.636605 0.543108
v -0.408127 -0.264638 0.527056
v -0.195040 -0.373115 0.478433
v -0.491808 -0.198033 0.541929
v -0.737217 0.184042 0.552703
v -0.708347 0.282096 0.526286
v -0.695628 0.298068 0.519436
v -0.660723 0.117827 0.540045
v -0.638303 0.086115 0.538499
v -0.536949 -0.134806 0.545151
v -0.588029 -0.041805 0.545024
v -0.224514 -0.507008 0.511345
v -0.211426 -0.441959 0.495747
v -0.613013 -0.005011 0.546491
v -0.488975 0.357787 0.443277
v 0.268592 -0.583710 0.368168
v 0.232155 -0.486483 0.362646
v 0.211095 -0.422171 0.358026
v 0.816095 0.007946 0.090165
v 0.648803 -0.211182 0.181854
v 0.267981 0.676207 0.146782
v 0.453125 0.665945 0.089764
v 0.635719 0.351614 0.087032
v 0.789068 0.350643 0.038482
v 0.495581 0.623443 0.083750
v -0.483736 0.359327 0.441342
v 0.000000 0.633586 0.239419
v -0.274113 0.347928 0.376747
v 0.792442 0.121157 0.077770
v 0.428754 -0.310123 0.269167
v -0.252855 -0.642343 0.544151
v 0.309855 -0.794808 0.392184
v -0.783675 -0.022136 0.403759
v -0.762120 -0.109436 0.367057
v -0.832049 0.222427 0.498386
v -0.813828 0.251960 0.493401
v -0.655188 0.271356 0.390089
v -0.686123 0.265052 0.409600
v -0.660712 -0.138047 0.290681
v 0.310111 -0.460682 -0.452774
v 0.209295 -0.527751 -0.400915
v 0.000000 -0.604005 -0.277383
v -0.241876 -0.557007 -0.100569
v -0.622942 -0.202054 0.248790
v 0.000000 0.731972 0.059303
v 0.358990 0.746540 -0.181874
v -0.163377 0.687028 0.159407
v 0.453125 0.720712 -0.252587
v 0.640625 0.520118 -0.431024
v 0.719743 0.413973 -0.511736
v 0.723044 0.091274 -0.595312
v -0.493961 0.315420 0.291229
v -0.459573 0.386255 0.285627
v -0.386062 -0.388994 0.040114
v -0.408609 -0.360487 0.062677
v -0.397198 -0.371664 0.052078
v 0.591070 -0.192410 -0.576792
v 0.459924 -0.268874 -0.506615
vn -0.2544 -0.7944 0.5516
vn -0.5091 0.6482 0.5663
vn -0.4207 -0.6137 0.6681
vn -0.8639 0.2971 0.4068
vn -0.8873 0.3440 0.3070
vn -0.4767 -0.3557 0.8039
vn -0.5440 -0.0777 0.8355
vn -0.2789 0.9181 -0.2817
vn -0.3849 -0.8131 -0.4368
vn 0.2335 -0.5806 -0.7800
vn -0.2335 -0.5806 -0.7800
vn 0.2501 -0.0565 -0.9666
vn 0.9396 0.1573 -0.3041
vn -0.9396 0.1573 -0.3041
vn 0.9287 0.1821 -0.3231
vn -0.1211 -0.0530 -0.9912
vn 0.7538 -0.2926 -0.5884
vn -0.7538 -0.2926 -0.5884
vn 0.9318 0.2894 -0.2188
vn -0.9297 0.3127 -0.1944
vn 0.9170 0.3116 -0.2492
vn -0.9120 0.3376 -0.2329
vn -0.9407 0.3338 -0.0607
vn -0.1761 -0.8805 -0.4402
vn 0.3263 -0.8342 -0.4446
vn 0.2818 -0.9510 -0.1269
vn 0.3139 -0.9321 -0.1807
vn -0.3139 -0.9321 -0.1807
vn 0.9762 -0.2083 -0.0609
vn -0.9762 -0.2083 -0.0609
vn 0.8589 -0.4280 0.2813
vn -0.6869 -0.6358 0.3521
vn -0.1272 0.9658 0.2260
vn 0.1208 0.9734 -0.1947
vn 0.2506 0.6573 0.7108
vn 0.6056 0.7794 0.1608
vn 0.6180 0.7624 -0.1918
vn 0.7791 0.4074 0.4764
vn -0.6885 0.3830 0.6158
vn 0.1570 0.6427 0.7498
vn 0.9340 0.2255 0.2773
vn 0.9794 0.1905 -0.0661
vn 0.9938 0.0312 -0.1070
vn 0.7116 -0.7008 0.0501
vn -0.7466 -0.6646 0.0285
vn 0.3722 -0.9243 0.0847
vn 0.4262 -0.8757 0.2269
vn -0.5010 -0.8462 0.1814
vn 0.6358 -0.7262 0.2615
vn 0.7325 -0.6368 0.2407
vn -0.7325 -0.6368 0.2407
vn -0.2637 -0.4499 0.8533
vn 0.3506 0.3807 0.8557
vn 0.6076 -0.3842 0.6951
vn 0.4843 0.5580 0.6738
vn 0.7220 -0.6827 -0.1126
vn -0.1919 0.2860 0.9388
vn 0.9048 -0.3734 -0.2047
vn 0.1034 0.1551 0.9825
vn 0.6468 -0.0827 0.7582
vn 0.8032 -0.4847 0.3462
vn 0.5811 -0.4128 0.7014
vn 0.5910 -0.4305 0.6822
vn 0.9818 -0.1804 -0.0591
vn 0.9105 -0.3965 -0.1175
vn 0.9972 -0.0181 -0.0725
vn 0.7867 -0.6079 0.1073
vn 0.7022 -0.7022 0.1170
vn 0.1840 0.9816 -0.0511
vn 0.7071 -0.7071 0.0000
vn 0.6266 -0.7211 0.2956
vn 0.0931 -0.9932 -0.0692
vn -0.5215 -0.0197 -0.8530
vn -0.7819 0.6231 0.0197
vn -0.9197 0.1377 -0.3678
vn -0.9290 0.1812 -0.3226
vn 0.1211 -0.0530 -0.9912
vn -0.1628 0.0209 -0.9864
vn 0.1632 0.0213 -0.9864
vn -0.2494 -0.0561 -0.9668
vn -0.7899 0.3509 0.5030
vn 0.9194 0.1370 -0.3687
vn 0.5485 -0.2100 -0.8093
vn -0.4578 0.8824 -0.1084
vn -0.2258 -0.9252 -0.3049
vn 0.1752 -0.0817 0.9811
vn 0.0511 -0.0085 0.9987
vn 0.1046 0.0392 0.9937
vn 0.3787 -0.0364 0.9248
vn 0.7361 -0.6525 0.1800
vn 0.9397 0.3224 0.1142
vn 0.4298 0.4758 0.7674
vn 0.1104 0.9939 0.0000
vn 0.6926 -0.4452 0.5676
vn 0.1641 0.9254 0.3416
vn 0.4663 -0.5991 0.6509
vn 0.4113 0.2743 0.8692
vn -0.2511 0.9439 -0.2145
vn 0.0107 -0.6859 0.7276
vn -0.2309 0.5774 0.7831
vn -0.0233 0.9688 -0.2466
vn 0.9548 0.0991 0.2803
vn 0.7184 0.6787 0.1526
vn -0.3550 0.9032 -0.2411
vn -0.3888 -0.1822 0.9031
vn -0.2819 -0.2151 0.9350
vn -0.3658 0.8823 -0.2963
vn -0.3223 -0.2762 0.9054
vn -0.3817 -0.6612 0.6458
vn -0.8015 0.1214 0.5856
vn 0.8453 -0.3961 -0.3585
vn 0.2986 0.1653 0.9399
vn 0.3403 -0.8506 -0.4009
vn -0.6065 -0.7577 0.2409
vn 0.5627 -0.3038 -0.7688
vn 0.6491 0.1787 -0.7395
vn 0.7019 0.6813 -0.2075
vn 0.1231 0.9632 0.2390
vn -0.2898 -0.9482 -0.1304
vn 0.7058 -0.6448 -0.2935
vn -0.5516 0.2038 -0.8088
vn -0.3832 0.3533 0.8534
vn -0.5465 -0.7368 -0.3982
vn -0.6897 -0.4193 0.5903
vn -0.6514 -0.3428 0.6768
usemtl Material.003
s off
f 111//1 3//1 1//1 112//1
f 115//2 116//2 5//2
f 114//3 9//3 117//3
f 122//4 11//4 10//4 121//4
f 122//5 112//5 1//5 11//5
f 123//6 6//6 120//6
f 123//7 118//7 6//7
f 147//8 145//8 5//8
f 13//9 3//9 4//9 12//9
f 16//10 17//10 26//10 32//10
f 27//11 17//11 16//11 33//11
f 73//12 16//12 32//12 74//12
f 76//13 77//13 28//13
f 84//14 78//14 29//14
f 79//15 76//15 28//15 30//15
f 82//16 84//16 29//16
f 24//17 30//17 32//17 26//17
f 33//18 31//18 25//18 27//18
f 126//19 34//19 127//19
f 36//20 35//20 10//20 11//20
f 125//21 24//21 34//21 126//21
f 35//22 25//22 2//22 10//22
f 36//23 11//23 1//23 37//23
f 13//24 37//24 1//24 3//24
f 150//25 149//25 40//25
f 150//26 40//26 38//26 15//26 151//26
f 15//27 38//27 26//27 17//27
f 27//28 39//28 15//28 17//28
f 24//29 26//29 38//29 34//29
f 39//30 27//30 25//30 35//30
f 128//31 129//31 21//31 18//31
f 153//32 12//32 148//32
f 154//33 156//33 14//33
f 155//34 41//34 157//34
f 132//35 133//35 44//35 43//35
f 43//36 44//36 45//36 46//36
f 157//37 41//37 46//37 158//37
f 134//38 132//38 43//38
f 161//39 42//39 162//39
f 136//40 130//40 14//40
f 138//41 128//41 18//41
f 19//42 48//42 45//42 44//42
f 20//43 47//43 45//43 48//43
f 38//44 40//44 50//44 49//44
f 163//45 152//45 39//45
f 21//46 49//46 50//46 22//46
f 129//47 139//47 49//47 21//47
f 164//48 13//48 12//48 153//48
f 139//49 127//49 34//49 49//49
f 34//50 38//50 49//50
f 163//51 39//51 35//51 165//51
f 36//52 37//52 13//52
f 53//53 51//53 56//53 54//53
f 87//54 88//54 55//54 52//54
f 88//55 89//55 55//55
f 21//56 22//56 64//56 63//56
f 22//57 52//57 55//57 64//57
f 18//58 21//58 63//58 19//58
f 48//59 58//59 56//59 51//59
f 94//60 65//60 64//60 62//60 93//60
f 59//61 66//61 65//61 60//61
f 58//62 66//62 59//62 67//62
f 56//63 58//63 67//63 57//63
f 19//64 66//64 58//64 48//64
f 19//65 63//65 65//65 66//65
f 63//66 64//66 65//66
f 67//67 59//67 71//67 68//67
f 59//68 60//68 70//68 71//68
f 60//69 61//69 69//69 70//69
f 93//70 62//70 99//70
f 91//71 57//71 96//71
f 87//72 52//72 103//72
f 105//73 106//73 72//73
f 20//74 48//74 51//74 72//74
f 31//75 80//75 83//75 2//75 25//75
f 29//76 78//76 80//76 31//76
f 28//77 77//77 81//77
f 33//78 75//78 82//78 29//78 31//78
f 28//79 81//79 74//79 32//79 30//79
f 33//80 16//80 73//80 75//80
f 121//81 10//81 2//81 110//81
f 125//82 141//82 79//82 30//82 24//82
f 20//83 72//83 106//83 107//83 23//83
f 51//84 53//84 104//84 105//84 72//84
f 22//85 23//85 107//85 103//85 52//85
f 68//86 71//86 102//86 101//86
f 69//87 100//87 102//87 71//87 70//87
f 69//88 98//88 100//88
f 68//89 101//89 97//89
f 57//90 67//90 68//90 97//90 96//90
f 61//91 95//91 98//91 69//91
f 60//92 65//92 94//92 95//92 61//92
f 62//93 92//93 99//93
f 54//94 56//94 57//94 91//94 90//94
f 55//95 89//95 92//95 62//95 64//95
f 54//96 90//96 86//96
f 53//97 54//97 86//97 85//97
f 53//98 85//98 104//98
f 82//99 75//99 73//99 74//99 81//99 77//99 76//99 79//99 141//99 140//99 83//99 80//99 78//99 84//99
f 162//100 42//100 137//100 136//100 14//100 156//100
f 42//101 135//101 137//101
f 18//102 19//102 44//102 133//102 138//102
f 41//103 131//103 134//103 43//103 46//103
f 161//104 146//104 124//104 135//104 42//104
f 8//105 7//105 119//105 120//105 6//105
f 9//106 8//106 6//106 118//106 117//106
f 147//107 5//107 116//107 124//107 146//107
f 7//108 113//108 119//108
f 7//109 4//109 3//109 111//109 113//109
f 83//110 140//110 110//110 2//110
f 54//111 90//111 91//111 96//111 97//111 101//111 102//111 100//111 98//111 95//111 94//111 93//111 62//111 92//111 89//111 88//111 87//111 103//111 107//111 106//111 105//111 104//111 53//111
f 141//112 125//112 126//112 127//112 139//112 129//112 128//112 138//112 133//112 132//112 134//112 131//112 130//112 136//112 137//112 135//112 124//112 116//112 115//112 114//112 117//112 118//112 123//112 120//112 119//112 113//112 111//112 112//112 122//112 121//112 110//112 140//112
f 22//113 50//113 167//113 166//113 23//113
f 35//114 36//114 13//114 164//114 165//114
f 20//115 23//115 166//115 160//115
f 20//116 160//116 159//116 47//116
f 46//117 45//117 47//117 159//117 158//117
f 14//118 130//118 131//118 41//118 155//118 154//118
f 39//119 152//119 151//119 15//119
f 40//120 149//120 167//120 50//120
f 167//121 149//121 150//121 151//121 152//121 163//121 165//121 164//121 153//121 148//121 143//121 142//121 144//121 145//121 147//121 146//121 161//121 162//121 156//121 154//121 155//121 157//121 158//121 159//121 160//121 166//121
f 115//122 5//122 145//122 144//122 9//122 114//122
f 12//123 4//123 143//123 148//123
f 8//124 142//124 143//124 4//124 7//124
f 9//125 144//125 142//125 8//125
l 109 108
