# Blender v2.78 (sub 0) OBJ File: ''
# www.blender.org
mtllib 4.mtl
o Suzanne.004
v -0.021085 -0.220654 0.118629
v 0.221102 -0.064404 0.017067
v 0.291415 0.201221 0.024879
v 0.174227 0.388721 0.024879
v 0.127352 0.318409 0.056129
v 0.205477 0.169971 0.040504
v 0.150790 -0.040966 0.040504
v -0.028898 -0.158154 0.142067
v -0.177335 -0.142529 0.235817
v -0.021085 -0.119091 0.079567
v 0.127352 -0.025341 0.001442
v 0.174227 0.130909 0.001442
v 0.111727 0.240284 0.009254
v -0.036710 0.224659 0.087379
v -0.216398 -0.103466 0.173317
v -0.247648 -0.134716 0.126442
v -0.208585 -0.103466 0.126442
v -0.021085 0.209034 0.032692
v 0.127352 0.224659 -0.037621
v 0.197665 0.123096 -0.045433
v 0.150790 -0.033154 -0.037621
v -0.013273 -0.119091 0.024879
v -0.177335 -0.134716 0.181129
v -0.107023 0.169971 0.103004
v -0.169523 -0.009716 0.118629
v -0.122648 -0.056591 0.110817
v -0.060148 0.005909 0.079567
v -0.099210 0.052784 0.095192
v -0.044523 0.115284 0.071754
v -0.005460 0.068409 0.063942
v 0.049227 0.091846 0.056129
v 0.025790 0.154346 0.056129
v -0.036710 0.318409 -0.037621
v 0.189852 0.349659 -0.100121
v 0.307040 0.177784 -0.053246
v 0.252352 -0.064404 -0.084496
v -0.021085 -0.205029 -0.045433
v -0.271085 -0.244091 0.118629
v -0.026352 0.359006 0.128883
v -0.044319 0.294999 0.157571
v -0.246802 -0.253847 0.291236
v -0.212247 -0.186361 0.297208
v -0.210902 -0.171300 0.283769
v -0.044496 0.294733 0.157453
v -0.098568 0.193730 0.143051
v -0.237976 -0.135791 0.181914
v -0.235339 -0.122407 0.173317
v -0.223592 -0.102117 0.178262
v -0.220513 -0.091121 0.173317
v -0.111064 0.178054 0.131294
v -0.133885 0.146466 0.113077
v -0.225364 -0.058724 0.126442
v -0.247648 -0.134716 0.158292
v -0.213570 -0.031740 0.124135
v -0.153017 0.100612 0.119106
v -0.190644 0.018445 0.122149
v -0.278507 -0.251513 0.215111
v -0.036710 0.352431 0.112079
v -0.109440 0.294166 0.007402
v -0.249292 -0.086694 0.101679
v -0.313236 -0.210814 0.089789
vn 0.4577 0.1686 0.8730
vn 0.2583 0.1055 0.9603
vn 0.2455 -0.0802 0.9661
vn 0.4643 -0.0599 0.8837
vn -0.2667 0.8309 0.4884
vn -0.8284 0.2291 0.5111
vn -0.5251 -0.3566 0.7727
vn 0.4546 -0.5665 0.6873
vn 0.7104 -0.4567 0.5356
vn -0.2335 0.8972 0.3749
vn 0.5802 0.1934 0.7912
vn 0.6895 -0.6644 0.2883
vn 0.9289 0.3400 0.1468
vn -0.0110 0.9969 0.0783
vn 0.2733 -0.8925 0.3587
vn -0.8328 -0.5080 -0.2200
vn -0.8339 0.2377 -0.4981
vn -0.5655 0.7847 -0.2539
vn -0.0560 0.9962 0.0672
vn 0.1460 0.0216 0.9891
vn 0.3275 0.0645 0.9427
vn 0.3127 0.0232 0.9496
vn 0.1710 0.0274 0.9849
vn 0.3487 0.2849 0.8929
vn 0.4022 -0.0342 0.9149
vn 0.2993 -0.0489 0.9529
vn 0.1351 -0.0225 0.9906
vn -0.3637 0.7039 0.6101
vn 0.6299 0.0355 0.7759
vn 0.4472 -0.2002 0.8717
vn 0.5072 -0.2141 0.8348
vn 0.5258 0.2619 0.8093
vn 0.2980 0.5802 0.7580
vn 0.5006 -0.8657 0.0080
vn 0.9285 -0.2497 0.2748
vn 0.8393 0.5424 -0.0378
vn -0.2355 0.9367 -0.2591
vn -0.4196 0.8851 -0.2012
vn -0.1910 -0.0241 -0.9813
vn 0.4046 0.0266 -0.9141
vn 0.4692 -0.1585 -0.8687
vn -0.5702 -0.8146 -0.1065
vn -0.5411 -0.0081 -0.8409
vn 0.4480 -0.4480 0.7737
vn 0.6604 -0.7486 0.0587
vn 0.6235 -0.7052 0.3375
vn 0.4493 0.6608 0.6012
vn 0.6243 -0.2923 0.7244
vn 0.0930 -0.9924 -0.0810
vn -0.8420 0.3990 0.3629
usemtl Material.004
s off
f 39//1 40//1 5//1 4//1
f 4//2 5//2 6//2 3//2
f 3//3 6//3 7//3 2//3
f 2//4 7//4 8//4 1//4
f 7//5 11//5 10//5 8//5
f 6//6 12//6 11//6 7//6
f 5//7 13//7 12//7 6//7
f 44//8 14//8 13//8 5//8 40//8
f 44//9 45//9 14//9
f 43//10 9//10 46//10
f 49//11 48//11 15//11
f 50//12 51//12 24//12
f 49//13 15//13 17//13 52//13
f 46//14 9//14 23//14 16//14 53//14
f 13//15 14//15 18//15 19//15
f 12//16 13//16 19//16 20//16
f 11//17 12//17 20//17 21//17
f 10//18 11//18 21//18 22//18
f 9//19 10//19 22//19 23//19
f 52//20 17//20 26//20 25//20 54//20
f 25//21 26//21 27//21 28//21
f 28//22 27//22 30//22 29//22
f 29//23 30//23 31//23 32//23
f 18//24 24//24 29//24 32//24
f 55//25 28//25 29//25 24//25 51//25
f 55//26 56//26 25//26 28//26
f 54//27 25//27 56//27
f 16//28 23//28 26//28 17//28
f 22//29 27//29 26//29 23//29
f 21//30 30//30 27//30 22//30
f 20//31 31//31 30//31 21//31
f 19//32 32//32 31//32 20//32
f 18//33 32//33 19//33
f 2//34 1//34 37//34 36//34
f 3//35 2//35 36//35 35//35
f 4//36 3//36 35//36 34//36
f 39//37 4//37 34//37 33//37 58//37
f 59//38 58//38 33//38
f 33//39 34//39 36//39 37//39
f 34//40 35//40 36//40
f 61//41 60//41 38//41
f 57//42 61//42 38//42
f 33//43 37//43 38//43 60//43 59//43
f 15//44 48//44 47//44
f 15//45 47//45 53//45 16//45 17//45
f 14//46 45//46 50//46 24//46 18//46
f 8//47 10//47 9//47 43//47 42//47
f 1//48 8//48 42//48 41//48
f 1//49 41//49 57//49 38//49 37//49
f 60//50 61//50 57//50 41//50 42//50 43//50 46//50 53//50 47//50 48//50 49//50 52//50 54//50 56//50 55//50 51//50 50//50 45//50 44//50 40//50 39//50 58//50 59//50
