# Blender v2.78 (sub 0) OBJ File: ''
# www.blender.org
mtllib 5.mtl
o Suzanne.003
v 0.286842 -0.053991 0.068321
v 0.302467 -0.249303 0.029258
v 0.263405 -0.303991 0.021446
v 0.114967 -0.327428 0.052696
v 0.044655 -0.077428 0.232383
v 0.052467 -0.194616 0.208946
v -0.002220 -0.241491 0.193321
v -0.064720 -0.249303 0.185508
v 0.146217 0.196009 0.208946
v 0.185280 -0.061803 0.185508
v 0.200905 -0.178991 0.162071
v 0.169655 -0.272741 0.130821
v 0.099342 -0.288366 0.130821
v 0.052467 -0.046178 0.232383
v -0.064720 -0.233678 0.185508
v -0.017845 -0.225866 0.185508
v -0.111595 -0.225866 0.185508
v 0.029030 -0.178991 0.208946
v 0.029030 -0.100866 0.224571
v -0.064720 -0.139928 0.154258
v 0.029030 -0.108678 0.162071
v 0.029030 -0.171178 0.138633
v -0.017845 -0.210241 0.130821
v -0.111595 -0.210241 0.130821
v -0.064720 -0.218053 0.130821
v -0.064720 -0.335241 -0.041054
v -0.064720 -0.163366 -0.158242
v 0.263405 -0.272741 -0.103554
v 0.075905 -0.116491 -0.134804
v 0.099342 -0.303991 -0.064492
v -0.039792 -0.340885 0.072882
v -0.061450 -0.303679 0.138478
v -0.064720 -0.299866 0.142169
v -0.115389 -0.242970 0.191842
v -0.122750 -0.237020 0.191086
v -0.220378 -0.236750 -0.089707
v -0.094157 -0.329634 -0.045259
v -0.064720 -0.338572 0.008912
v 0.261447 0.113617 0.068321
v 0.188693 0.199277 0.150133
v -0.064720 -0.134835 -0.161095
v 0.075098 -0.105197 -0.135207
v 0.228096 -0.078248 -0.112048
v 0.227225 -0.084604 -0.118026
v 0.242811 0.030685 -0.009580
v 0.138129 -0.096841 -0.128254
v 0.109394 0.196009 0.219776
v 0.038066 0.043110 0.238144
v -0.008307 -0.042126 0.232383
v -0.046745 -0.116599 0.232383
v -0.060295 -0.130640 0.217127
v -0.117929 -0.219532 0.188675
v -0.128566 -0.196098 0.133649
v -0.064720 -0.133035 0.209406
v -0.086553 -0.132651 0.156078
v -0.122223 -0.187215 0.137906
v -0.199733 -0.118361 -0.135739
v -0.209031 -0.145972 -0.123749
v -0.236459 -0.224094 -0.092539
v -0.124718 -0.235169 0.191776
v 0.133286 0.250968 0.208946
v -0.196282 -0.110946 -0.136648
v 0.134717 0.256790 0.205137
vn 0.2190 -0.8647 0.4520
vn 0.5902 -0.4550 0.6668
vn 0.7689 -0.0506 0.6374
vn 0.7769 0.0861 0.6237
vn 0.0136 -0.6507 0.7592
vn 0.1863 -0.5723 0.7986
vn 0.3157 -0.2708 0.9094
vn 0.3266 -0.1306 0.9361
vn 0.0000 0.0000 1.0000
vn 0.2815 0.0662 0.9573
vn -0.1536 -0.1997 0.9677
vn -0.2733 -0.1025 0.9565
vn -0.0976 0.1952 0.9759
vn -0.1582 0.9494 0.2713
vn 0.1582 0.9494 0.2713
vn -0.6934 0.7082 0.1328
vn 0.6751 0.7132 0.1885
vn -1.0000 0.0000 0.0000
vn 0.0298 -0.2981 0.9541
vn 0.1353 -0.3479 0.9277
vn -0.1353 -0.3479 0.9277
vn -0.1938 -0.0837 -0.9775
vn 0.1163 -0.4535 -0.8837
vn 0.1184 -0.9669 -0.2260
vn 0.1132 -0.0274 -0.9932
vn -0.0218 -0.2211 -0.9750
vn 0.9193 0.1393 -0.3682
vn -0.1777 -0.9819 -0.0655
vn -0.1491 -0.4697 -0.8702
vn 0.4269 0.0069 0.9043
vn 0.0955 0.1910 0.9769
vn 0.0720 -0.6967 0.7138
vn 0.1219 -0.8633 0.4898
vn 0.1168 -0.9830 -0.1419
vn -0.6270 -0.7481 0.2173
vn 0.9598 -0.0090 -0.2807
vn 0.9332 0.1538 -0.3246
vn 0.1928 -0.0761 -0.9783
vn -0.0107 0.6859 -0.7276
vn 0.7916 0.1862 0.5820
vn -0.1014 -0.3382 -0.9356
vn -0.0354 -0.2947 0.9549
vn -0.3051 -0.9450 0.1181
vn 0.3051 -0.9450 0.1181
vn 0.2073 -0.6248 0.7528
vn -0.0043 -0.0651 0.9979
vn 0.3131 -0.0293 0.9493
vn -0.8342 0.4305 0.3446
usemtl Material.005
s off
f 3//1 12//1 13//1 4//1
f 2//2 11//2 12//2 3//2
f 1//3 10//3 11//3 2//3
f 40//4 9//4 10//4 1//4 39//4
f 33//5 8//5 34//5
f 6//6 7//6 13//6 12//6
f 5//7 6//7 12//7 11//7
f 5//8 11//8 10//8 14//8
f 50//9 5//9 14//9 49//9
f 61//10 47//10 9//10
f 6//11 5//11 19//11 18//11
f 7//12 6//12 18//12 16//12
f 8//13 7//13 16//13 15//13
f 15//14 16//14 23//14 25//14
f 24//15 17//15 15//15 25//15
f 16//16 18//16 22//16 23//16
f 53//17 52//17 17//17 24//17
f 18//18 19//18 21//18 22//18
f 20//19 25//19 23//19 21//19
f 21//20 23//20 22//20
f 53//21 24//21 56//21
f 62//22 41//22 27//22 57//22
f 26//23 27//23 29//23 30//23
f 3//24 4//24 30//24 28//24
f 46//25 29//25 42//25
f 44//26 28//26 30//26 29//26 46//26
f 39//27 1//27 45//27
f 26//28 38//28 37//28
f 57//29 27//29 26//29 37//29 36//29 58//29
f 52//30 60//30 35//30 17//30
f 17//31 35//31 34//31 8//31 15//31
f 7//32 8//32 33//32 32//32 13//32
f 4//33 13//33 32//33 31//33
f 4//34 31//34 38//34 26//34 30//34
f 60//35 59//35 36//35 37//35 38//35 31//35 32//35 33//35 34//35 35//35
f 2//36 3//36 28//36 44//36 43//36
f 1//37 2//37 43//37 45//37
f 27//38 41//38 42//38 29//38
f 62//39 63//39 40//39 39//39 45//39 43//39 44//39 46//39 42//39 41//39
f 40//40 63//40 61//40 9//40
f 36//41 59//41 58//41
f 24//42 25//42 20//42 55//42 56//42
f 20//43 54//43 55//43
f 19//44 51//44 54//44 20//44 21//44
f 5//45 50//45 51//45 19//45
f 14//46 48//46 49//46
f 9//47 47//47 48//47 14//47 10//47
f 59//48 60//48 52//48 53//48 56//48 55//48 54//48 51//48 50//48 49//48 48//48 47//48 61//48 62//48 57//48 58//48
