# Blender v2.78 (sub 0) OBJ File: ''
# www.blender.org
mtllib 6.mtl
o Suzanne.002
v 0.100827 -0.067260 0.174145
v 0.100827 -0.161010 0.158520
v 0.100827 -0.153197 0.174145
v -0.008548 -0.106322 0.174145
v -0.110110 0.167115 0.150708
v -0.149173 -0.090697 0.127270
v -0.016360 -0.075072 0.174145
v 0.178952 0.167115 0.189770
v 0.022702 0.167115 0.189770
v 0.100827 0.167115 0.189770
v 0.007077 -0.207885 0.150708
v 0.007077 -0.129760 0.166333
v 0.007077 -0.137572 0.103833
v 0.007077 -0.200072 0.080395
v -0.039798 -0.145385 -0.193042
v -0.151189 -0.105819 0.124246
v -0.186568 -0.087821 0.084122
v -0.247059 -0.058624 0.010083
v -0.015534 -0.211114 0.153187
v -0.085574 -0.156389 0.139483
v -0.008141 -0.218031 0.150708
v -0.198615 -0.152484 -0.173266
v -0.205547 -0.138326 -0.144526
v -0.242387 -0.066831 -0.004687
v -0.147538 0.169994 0.098885
v 0.183912 0.266305 0.184811
v 0.100827 0.263461 0.183347
v 0.017865 0.263853 0.184933
v 0.100827 0.289487 0.207881
v 0.124176 0.303790 0.221020
v 0.078888 0.303085 0.221020
v 0.110994 0.328449 0.244458
v 0.091274 0.328142 0.244458
v 0.100827 0.330296 0.246348
v 0.296526 0.231878 0.150708
v -0.096310 0.225768 0.150708
v -0.039291 -0.138286 -0.193296
v -0.194107 -0.112014 -0.166261
v -0.209232 -0.003071 -0.063346
v -0.073299 -0.134805 -0.189516
v -0.226881 0.074553 0.010083
v -0.192737 -0.121918 -0.175617
v 0.274941 0.167115 0.161538
v 0.203613 0.014216 0.179906
v 0.157240 -0.071021 0.174145
v 0.118803 -0.145493 0.174145
v 0.105253 -0.159534 0.158889
v 0.047619 -0.248426 0.130437
v 0.036982 -0.224993 0.075411
v 0.100827 -0.161929 0.151167
v 0.078995 -0.161545 0.097839
v 0.043325 -0.216109 0.079667
v -0.034186 -0.147255 -0.193978
v -0.043483 -0.174866 -0.181987
v -0.070911 -0.252989 -0.150777
v 0.040829 -0.264063 0.133537
v 0.298833 0.222074 0.150708
v -0.030734 -0.139840 -0.194886
v 0.300264 0.227895 0.146899
vn -0.7563 -0.0299 0.6535
vn -0.3128 -0.1662 0.9352
vn 0.2821 -0.0164 0.9592
vn -0.3063 -0.0265 0.9516
vn -0.0101 0.0584 0.9982
vn -0.0024 -0.0657 0.9978
vn 0.0026 -0.0656 0.9978
vn 0.0000 0.0000 1.0000
vn 0.7916 0.1862 0.5820
vn -0.7916 0.1862 0.5820
vn 0.3338 -0.8323 0.4426
vn -0.2237 -0.6539 0.7227
vn 1.0000 0.0000 0.0000
vn 0.3051 -0.9450 0.1181
vn -0.3051 -0.9450 0.1181
vn -0.0217 -0.3031 0.9527
vn -0.1132 -0.0274 -0.9932
vn -0.9301 0.1700 -0.3255
vn 0.1541 -0.1996 0.9677
vn -0.9193 0.1393 -0.3682
vn -0.3261 -0.1238 0.9372
vn -0.1068 -0.2734 -0.9560
vn -0.9396 0.1573 -0.3041
vn -0.2907 0.0465 0.9557
vn 0.0100 0.0585 0.9982
vn -0.7771 0.0843 0.6236
vn -0.0107 0.6859 -0.7276
vn -0.6270 -0.7481 0.2173
vn -0.1822 -0.0290 -0.9828
vn -0.2562 -0.3112 -0.9152
vn -0.1353 -0.3479 0.9277
vn 0.6982 0.7063 0.1168
vn 0.2789 -0.1235 0.9523
vn 0.2926 0.0450 0.9552
vn 0.8343 -0.4170 -0.3606
usemtl Material.006
s off
f 16//1 6//1 17//1
f 20//2 19//2 4//2
f 43//3 8//3 44//3
f 7//4 9//4 5//4 6//4
f 26//5 27//5 10//5 8//5
f 44//6 8//6 10//6 1//6 45//6
f 10//7 9//7 7//7 1//7
f 7//8 4//8 3//8 1//8
f 59//9 35//9 57//9
f 36//10 25//10 5//10
f 46//11 3//11 2//11 47//11
f 2//12 3//12 4//12 12//12
f 13//13 12//13 11//13 14//13
f 47//14 2//14 50//14
f 50//15 2//15 12//15 13//15 51//15
f 52//16 51//16 13//16
f 37//17 15//17 40//17
f 38//18 23//18 24//18 39//18
f 12//19 4//19 19//19 21//19 11//19
f 39//20 24//20 18//20 41//20
f 6//21 16//21 20//21 4//21 7//21
f 55//22 22//22 42//22 40//22 15//22 54//22
f 22//23 23//23 38//23 42//23
f 5//24 9//24 28//24 36//24
f 10//25 27//25 28//25 9//25
f 6//26 5//26 25//26 41//26 18//26 17//26
f 40//27 42//27 38//27 39//27 41//27 25//27 36//27 28//27 27//27 26//27 35//27 59//27 58//27 37//27
f 23//28 22//28 55//28 56//28 21//28 19//28 20//28 16//28 17//28 18//28 24//28
f 37//29 58//29 53//29 15//29
f 15//30 53//30 54//30
f 14//31 49//31 52//31 13//31
f 14//32 11//32 48//32 49//32
f 11//33 21//33 56//33 48//33
f 3//8 46//8 45//8 1//8
f 26//34 8//34 43//34 57//34 35//34
f 55//35 54//35 15//35 37//35 57//35 43//35 44//35 45//35 46//35 47//35 50//35 51//35 52//35 49//35 48//35 56//35
l 33 34
l 34 32
l 31 33
l 30 32
l 30 29
l 29 31
