# Blender v2.78 (sub 0) OBJ File: ''
# www.blender.org
mtllib 1.mtl
o Sphere.001
v 0.162212 0.555570 1.150702
v -0.000000 0.707107 1.042316
v -0.000000 0.555570 1.166678
v 0.000000 0.382683 1.259089
v -0.000000 0.195090 1.315994
v -0.108386 0.831470 0.880104
v -0.137950 0.707107 1.028729
v -0.162212 0.555570 1.150702
v -0.180240 0.382683 1.241336
v -0.191342 0.195090 1.297148
v -0.212608 0.831470 0.848489
v -0.270598 0.707107 0.988490
v -0.318190 0.555570 1.103386
v -0.353553 0.382683 1.188762
v -0.375330 0.195090 1.241336
v -0.382684 0.000000 1.259089
v -0.308658 0.831470 0.797149
v -0.392847 0.707107 0.923147
v -0.461940 0.555570 1.026550
v -0.513280 0.382683 1.103387
v -0.544895 0.195090 1.150702
v -0.500000 0.707107 0.835209
v -0.587938 0.555570 0.923146
v -0.653281 0.382683 0.988490
v -0.693520 0.195090 1.028728
v 0.148465 0.641428 1.081594
v 0.173084 0.451306 1.205362
v 0.179721 0.555570 1.145391
v 0.000000 0.801569 0.927214
v -0.000000 0.145671 1.320862
v 0.118967 0.707107 1.030599
v 0.163908 0.382683 1.242945
v 0.050497 0.195090 1.311021
v -0.104844 0.841176 0.862294
v -0.194481 0.031702 1.312932
v -0.062890 0.831470 0.884585
v -0.201093 0.847552 0.820691
v -0.382630 -0.001411 1.258960
v -0.371510 0.000000 1.262478
v -0.301779 0.838088 0.786854
v -0.552975 0.047423 1.162795
v -0.389695 0.000000 1.255341
v -0.431684 0.786396 0.766893
v -0.694865 0.175774 1.030074
v -0.329730 0.831470 0.779856
v -0.557556 0.707107 0.765077
v -0.683633 0.555570 0.806542
v -0.733516 0.382683 0.890724
v -0.705287 0.195090 1.014391
vn 0.2248 0.6326 0.7412
vn 0.2563 0.4696 0.8448
vn 0.0865 0.4696 0.8786
vn 0.0938 0.2890 0.9527
vn 0.0976 0.0976 0.9904
vn 0.0624 0.7715 0.6332
vn -0.0464 0.8810 0.4709
vn -0.0759 0.6326 0.7708
vn -0.0865 0.4696 0.8786
vn -0.0938 0.2890 0.9527
vn -0.0976 0.0976 0.9904
vn -0.2563 0.4696 0.8448
vn -0.2779 0.2890 0.9161
vn -0.2889 0.0976 0.9524
vn -0.2889 -0.0976 0.9524
vn -0.1847 0.7715 0.6088
vn -0.2248 0.6326 0.7412
vn -0.2999 0.7715 0.5611
vn -0.3651 0.6326 0.6831
vn -0.4162 0.4696 0.7786
vn -0.4513 0.2890 0.8443
vn -0.4692 -0.0976 0.8777
vn -0.5601 0.4696 0.6825
vn -0.6073 0.2890 0.7400
vn -0.6314 0.0976 0.7693
vn -0.4913 0.6326 0.5987
vn -0.7693 0.0976 0.6314
vn -0.7400 0.2890 0.6073
vn -0.6825 0.4696 0.5601
vn -0.5987 0.6326 0.4913
vn -0.4036 0.7715 0.4918
vn -0.4918 0.7715 0.4036
vn -0.4691 0.0976 0.8777
vn -0.3002 0.8810 0.3658
vn -0.2230 0.8810 0.4173
vn -0.1374 0.8810 0.4528
vn -0.0624 0.7715 0.6332
vn 0.0759 0.6326 0.7708
vn 0.3189 -0.4877 -0.8126
usemtl None
s off
f 28//1 26//1 1//1
f 27//2 28//2 1//2
f 27//3 1//3 3//3 4//3 32//3
f 33//4 32//4 4//4 5//4
f 30//5 33//5 5//5
f 31//6 29//6 2//6
f 36//7 34//7 6//7
f 3//8 2//8 7//8 8//8
f 4//9 3//9 8//9 9//9
f 5//10 4//10 9//10 10//10
f 30//11 5//11 10//11 35//11
f 9//12 8//12 13//12 14//12
f 10//13 9//13 14//13 15//13
f 35//14 10//14 15//14 16//14 39//14
f 38//15 39//15 16//15
f 7//16 6//16 11//16 12//16
f 8//17 7//17 12//17 13//17
f 12//18 11//18 17//18 18//18
f 13//19 12//19 18//19 19//19
f 14//20 13//20 19//20 20//20
f 15//21 14//21 20//21 21//21
f 38//22 16//22 42//22
f 20//23 19//23 23//23 24//23
f 21//24 20//24 24//24 25//24
f 41//25 21//25 25//25 44//25
f 19//26 18//26 22//26 23//26
f 44//27 25//27 49//27
f 25//28 24//28 48//28 49//28
f 24//29 23//29 47//29 48//29
f 23//30 22//30 46//30 47//30
f 18//31 17//31 45//31 43//31 22//31
f 22//32 43//32 46//32
f 16//33 15//33 21//33 41//33 42//33
f 17//34 40//34 45//34
f 11//35 37//35 40//35 17//35
f 6//36 34//36 37//36 11//36
f 2//37 29//37 36//37 6//37 7//37
f 1//38 26//38 31//38 2//38 3//38
f 42//39 41//39 44//39 49//39 48//39 47//39 46//39 43//39 45//39 40//39 37//39 34//39 36//39 29//39 31//39 26//39 28//39 27//39 32//39 33//39 30//39 35//39 39//39 16//39
