# Blender v2.78 (sub 0) OBJ File: ''
# www.blender.org
mtllib 2.mtl
o Sphere.005
v 0.129304 0.707107 0.500000
v 0.217242 0.555570 0.587938
v -0.062038 0.831470 0.461940
v 0.022152 0.707107 0.587938
v 0.091244 0.555570 0.691342
v 0.142584 0.382683 0.768178
v 0.174199 0.195090 0.815493
v 0.184874 0.000000 0.831470
v -0.158088 0.831470 0.513280
v -0.100098 0.707107 0.653282
v -0.052506 0.555570 0.768178
v -0.017142 0.382683 0.853554
v 0.004634 0.195090 0.906128
v 0.011987 0.000000 0.923880
v 0.004634 -0.195090 0.906128
v -0.017142 -0.382683 0.853554
v -0.052506 -0.555570 0.768178
v -0.262310 0.831470 0.544896
v -0.232746 0.707107 0.693520
v -0.190456 0.382683 0.906128
v -0.179354 0.195090 0.961940
v -0.175606 0.000000 0.980786
v -0.179354 -0.195090 0.961940
v -0.190456 -0.382683 0.906128
v -0.208484 -0.555570 0.815493
v -0.232746 -0.707107 0.693520
v -0.370696 0.831470 0.555571
v -0.370696 0.000000 1.000000
v -0.370696 -0.195090 0.980785
v -0.370696 -0.382683 0.923880
v -0.370696 -0.555570 0.831470
v -0.370696 -0.707107 0.707107
v -0.370696 -0.831470 0.555570
v -0.565786 0.000000 0.980786
v -0.562038 -0.195090 0.961940
v -0.550936 -0.382683 0.906128
v -0.532908 -0.555570 0.815493
v -0.508646 -0.707107 0.693520
v -0.479082 -0.831470 0.544895
v -0.746026 -0.195090 0.906127
v -0.724249 -0.382683 0.853554
v -0.688886 -0.555570 0.768178
v -0.641294 -0.707107 0.653282
v -0.583303 -0.831470 0.513280
v -0.926266 0.000000 0.831470
v -0.915591 -0.195090 0.815493
v -0.883976 -0.382683 0.768178
v -0.832636 -0.555570 0.691342
v -0.763543 -0.707107 0.587938
v -0.679354 -0.831470 0.461940
v -0.763543 0.831470 0.392848
v -1.077803 0.000000 0.707107
v -1.064216 -0.195090 0.693520
v -1.023977 -0.382683 0.653282
v -0.958634 -0.555570 0.587938
v -0.870696 -0.707107 0.500000
v -0.763543 -0.831470 0.392848
v -0.958634 0.707107 0.392848
v -1.062037 0.555570 0.461940
v -1.138874 0.382683 0.513280
v -1.186189 0.195090 0.544895
v -1.202166 0.000000 0.555570
v -1.186189 -0.195090 0.544895
v -1.138874 -0.382683 0.513280
v -1.062037 -0.555570 0.461940
v -0.958634 -0.707107 0.392848
v -0.832636 -0.831470 0.308658
v -1.138873 0.555570 0.318190
v -1.224249 0.382683 0.353554
v -1.276823 0.195090 0.375330
v -1.294575 0.000000 0.382684
v -1.276823 -0.195090 0.375330
v -1.224249 -0.382683 0.353554
v -1.138873 -0.555570 0.318190
v -1.023977 -0.707107 0.270598
v -0.883976 -0.831470 0.212608
v -1.276823 0.382683 0.180240
v -1.332635 0.195090 0.191342
v -1.351481 0.000000 0.195090
v -1.332635 -0.195090 0.191342
v -1.276823 -0.382683 0.180240
v -1.186189 -0.555570 0.162212
v -1.064216 -0.707107 0.137950
v -0.915591 -0.831470 0.108387
v -1.370696 0.000000 0.000000
v -1.351481 -0.195090 0.000000
v -1.294575 -0.382683 0.000000
v -1.202165 -0.555570 0.000000
v -1.077803 -0.707107 0.000000
v -0.926266 -0.831470 0.000000
v -1.276823 -0.382683 -0.180240
v -1.186189 -0.555570 -0.162211
v -1.064216 -0.707107 -0.137949
v -1.138873 -0.555570 -0.318189
v -0.222231 0.641428 0.746386
v -0.197612 0.451306 0.870153
v -0.190975 0.555570 0.810182
v -0.370696 0.801569 0.592005
v -0.370696 0.145671 0.985653
v -0.251729 0.707107 0.695390
v -0.206788 0.382683 0.907736
v -0.320199 0.195090 0.975812
v -0.475540 0.841176 0.527085
v -0.565177 0.031702 0.977723
v -0.433585 0.831470 0.549377
v -0.571789 0.847552 0.485482
v -0.753326 -0.001411 0.923751
v -0.742206 0.000000 0.927269
v -0.672475 0.838088 0.451645
v -0.923671 0.047423 0.827586
v -0.760391 0.000000 0.920132
v -0.802380 0.786396 0.431684
v -1.065561 0.175774 0.694865
v -0.700426 0.831470 0.444647
v -0.928252 0.707107 0.429868
v -1.054329 0.555570 0.471333
v -1.104212 0.382683 0.555516
v -1.075982 0.195090 0.679182
v 0.052084 0.796729 0.422780
v -0.076976 0.845841 0.439584
v -0.029575 0.831470 0.435299
v -0.186261 0.870819 0.445266
v -0.281907 0.885163 0.446372
v -0.370696 0.891271 0.443689
v -0.759622 0.834434 0.388926
v -0.892194 0.772685 0.348454
v -0.768492 0.831470 0.386818
v -1.054591 0.666730 0.283279
v -1.004332 0.707107 0.307353
v -1.230517 0.471014 0.171029
v -1.169093 0.555570 0.218568
v -1.355472 0.154567 0.000000
v -1.349388 0.195090 0.021251
v -1.282543 0.382683 0.122164
v -1.325699 -0.218403 -0.189962
v -1.362815 0.000000 -0.080016
v -1.333899 -0.195090 -0.178504
v -1.162609 -0.507504 -0.328021
v -1.249743 -0.382683 -0.269510
v -1.121828 -0.555570 -0.350078
v -0.457693 0.890072 0.437364
v -0.547565 0.881388 0.426999
v -0.645682 0.863866 0.411546
v 0.255127 0.455332 0.625824
v 0.179052 0.707107 0.439382
v 0.236861 0.555570 0.564033
v 0.174793 -0.184236 0.816382
v 0.229877 0.000000 0.794537
v 0.261539 0.195090 0.743815
v 0.265318 0.382683 0.667453
v -0.062741 -0.588159 0.743469
v -0.034621 -0.555570 0.758618
v 0.171064 -0.195090 0.817169
v 0.078983 -0.382683 0.802173
v -0.245700 -0.761600 0.628396
v -0.176660 -0.707107 0.676507
v -0.370696 -0.843040 0.533924
v -0.347222 -0.831470 0.553259
v -0.461381 -0.879969 0.455903
v -0.532822 -0.901979 0.391408
v -0.593620 -0.913954 0.333630
v -0.648909 -0.918123 0.278213
v -0.702389 -0.915199 0.221631
v -0.757427 -0.904684 0.160190
v -0.817984 -0.884664 0.088971
v -0.889997 -0.850856 0.000000
v -0.977256 -0.779871 -0.120652
v -0.922171 -0.831470 -0.041582
v -1.083460 -0.628655 -0.295236
v -1.040248 -0.707107 -0.216960
v -1.112774 -0.563373 -0.353499
v 0.156394 0.741518 0.401215
vn 0.5987 0.6326 0.4913
vn 0.6825 0.4696 0.5601
vn 0.6314 0.0976 0.7693
vn 0.6314 -0.0976 0.7693
vn 0.3002 0.8810 0.3658
vn 0.4913 0.6326 0.5987
vn 0.5601 0.4696 0.6825
vn 0.6073 0.2890 0.7400
vn 0.3651 -0.6326 0.6831
vn 0.3651 0.6326 0.6831
vn 0.4162 0.4696 0.7786
vn 0.4513 0.2890 0.8443
vn 0.4691 0.0976 0.8777
vn 0.4691 -0.0976 0.8777
vn 0.4513 -0.2890 0.8443
vn 0.4162 -0.4696 0.7786
vn 0.2999 0.7715 0.5611
vn 0.2889 -0.0976 0.9524
vn 0.2779 -0.2890 0.9161
vn 0.2563 -0.4696 0.8448
vn 0.1847 0.7715 0.6088
vn 0.2248 -0.6326 0.7412
vn 0.1847 -0.7715 0.6088
vn 0.2779 0.2890 0.9161
vn 0.2889 0.0976 0.9524
vn 0.0759 0.6326 0.7708
vn 0.0624 -0.7715 0.6332
vn 0.0464 -0.8810 0.4709
vn 0.0975 -0.0976 0.9904
vn 0.0938 -0.2890 0.9527
vn 0.0865 -0.4696 0.8786
vn 0.0759 -0.6326 0.7708
vn -0.0976 -0.0976 0.9904
vn -0.0938 -0.2890 0.9527
vn -0.0865 -0.4696 0.8786
vn -0.0624 0.7715 0.6332
vn -0.0759 -0.6326 0.7708
vn -0.0624 -0.7715 0.6332
vn -0.0464 -0.8810 0.4709
vn -0.1847 -0.7715 0.6088
vn -0.1374 -0.8810 0.4528
vn -0.2779 -0.2890 0.9161
vn -0.2563 -0.4696 0.8448
vn -0.2248 -0.6326 0.7412
vn -0.4513 -0.2890 0.8443
vn -0.4162 -0.4696 0.7786
vn -0.3651 -0.6326 0.6831
vn -0.2999 -0.7715 0.5611
vn -0.2231 -0.8810 0.4173
vn -0.4691 0.0975 0.8777
vn -0.3002 -0.8810 0.3658
vn -0.6314 -0.0976 0.7693
vn -0.6073 -0.2890 0.7400
vn -0.5601 -0.4696 0.6825
vn -0.4036 0.7715 0.4918
vn -0.4913 -0.6326 0.5987
vn -0.4036 -0.7715 0.4918
vn -0.7400 -0.2890 0.6073
vn -0.6825 -0.4696 0.5601
vn -0.5987 -0.6326 0.4913
vn -0.5987 0.6326 0.4913
vn -0.4918 -0.7715 0.4036
vn -0.6825 0.4696 0.5601
vn -0.3658 -0.8810 0.3002
vn -0.7400 0.2890 0.6073
vn -0.7693 -0.0976 0.6314
vn -0.4173 -0.8810 0.2230
vn -0.8443 0.2890 0.4513
vn -0.8777 0.0976 0.4691
vn -0.8777 -0.0976 0.4691
vn -0.8443 -0.2890 0.4513
vn -0.7786 -0.4696 0.4162
vn -0.6831 -0.6326 0.3651
vn -0.5611 -0.7715 0.2999
vn -0.7786 0.4696 0.4162
vn -0.8448 -0.4696 0.2563
vn -0.7412 -0.6326 0.2248
vn -0.6088 -0.7715 0.1847
vn -0.4528 -0.8810 0.1374
vn -0.9161 0.2890 0.2779
vn -0.9524 0.0976 0.2889
vn -0.9524 -0.0976 0.2889
vn -0.9161 -0.2890 0.2779
vn -0.9904 -0.0976 0.0975
vn -0.9527 -0.2890 0.0938
vn -0.8786 -0.4696 0.0865
vn -0.7708 -0.6326 0.0759
vn -0.6332 -0.7715 0.0624
vn -0.4709 -0.8810 0.0464
vn -0.7708 -0.6326 -0.0759
vn -0.4709 -0.8810 -0.0464
vn -0.8786 -0.4696 -0.0865
vn -0.6088 -0.7715 -0.1847
vn -0.7693 0.0976 0.6314
vn -0.6314 0.0976 0.7693
vn -0.2889 -0.0976 0.9524
vn -0.4691 -0.0976 0.8777
vn -0.2889 0.0976 0.9524
vn 0.0938 0.2890 0.9527
vn 0.0975 0.0976 0.9904
vn -0.0975 0.0976 0.9904
vn 0.0624 0.7715 0.6332
vn 0.2563 0.4696 0.8448
vn 0.0865 0.4696 0.8786
vn 0.2248 0.6326 0.7412
vn -0.3189 0.4877 0.8126
vn -0.2230 0.8810 0.4173
vn -0.1374 0.8810 0.4528
vn -0.6831 -0.6326 -0.3651
vn -0.8448 -0.4696 -0.2563
vn -0.7786 -0.4696 -0.4162
vn -0.9904 -0.0976 -0.0976
vn -0.9527 -0.2890 -0.0938
vn -0.9161 -0.2890 -0.2779
vn -0.9527 0.2890 0.0938
vn -0.9904 0.0976 0.0975
vn -0.9904 0.0976 -0.0976
vn -0.8448 0.4696 0.2563
vn -0.8786 0.4696 0.0865
vn -0.6831 0.6326 0.3651
vn -0.7412 0.6326 0.2248
vn -0.4918 0.7715 0.4036
vn -0.5611 0.7715 0.2999
vn -0.3002 0.8810 0.3658
vn -0.3658 0.8810 0.3002
vn -0.0464 0.8810 0.4709
vn 0.0464 0.8810 0.4709
vn 0.1374 0.8810 0.4528
vn 0.2230 0.8810 0.4173
vn 0.4036 0.7715 0.4918
vn 0.4918 0.7715 0.4036
vn 0.0582 0.4568 -0.8877
vn -0.7412 -0.6326 -0.2248
vn -0.6332 -0.7715 -0.0624
vn 0.6892 -0.2850 -0.6661
usemtl None
s off
f 146//1 145//1 1//1 2//1
f 144//2 146//2 2//2
f 148//3 149//3 7//3 8//3
f 147//4 148//4 8//4
f 121//5 120//5 3//5
f 2//6 1//6 4//6 5//6
f 144//7 2//7 5//7 6//7 150//7
f 149//8 150//8 6//8 7//8
f 151//9 152//9 17//9
f 5//10 4//10 10//10 11//10
f 6//11 5//11 11//11 12//11
f 7//12 6//12 12//12 13//12
f 8//13 7//13 13//13 14//13
f 147//14 8//14 14//14 15//14 153//14
f 154//15 153//15 15//15 16//15
f 152//16 154//16 16//16 17//16
f 4//17 3//17 9//17 10//17
f 15//18 14//18 22//18 23//18
f 16//19 15//19 23//19 24//19
f 17//20 16//20 24//20 25//20
f 10//21 9//21 18//21 19//21
f 151//22 17//22 25//22 26//22 156//22
f 155//23 156//23 26//23
f 13//24 12//24 20//24 21//24
f 14//25 13//25 21//25 22//25
f 95//26 19//26 100//26
f 155//27 26//27 32//27 33//27 158//27
f 157//28 158//28 33//28
f 23//29 22//29 28//29 29//29
f 24//30 23//30 29//30 30//30
f 25//31 24//31 30//31 31//31
f 26//32 25//32 31//32 32//32
f 29//33 28//33 34//33 35//33
f 30//34 29//34 35//34 36//34
f 31//35 30//35 36//35 37//35
f 98//36 27//36 105//36
f 32//37 31//37 37//37 38//37
f 33//38 32//38 38//38 39//38
f 157//39 33//39 39//39 159//39
f 39//40 38//40 43//40 44//40
f 159//41 39//41 44//41 160//41
f 36//42 35//42 40//42 41//42
f 37//43 36//43 41//43 42//43
f 38//44 37//44 42//44 43//44
f 41//45 40//45 46//45 47//45
f 42//46 41//46 47//46 48//46
f 43//47 42//47 48//47 49//47
f 44//48 43//48 49//48 50//48
f 160//49 44//49 50//49 161//49
f 111//50 110//50 45//50
f 161//51 50//51 57//51 162//51
f 46//52 45//52 52//52 53//52
f 47//53 46//53 53//53 54//53
f 48//54 47//54 54//54 55//54
f 112//55 114//55 51//55
f 49//56 48//56 55//56 56//56
f 50//57 49//57 56//57 57//57
f 54//58 53//58 63//58 64//58
f 55//59 54//59 64//59 65//59
f 56//60 55//60 65//60 66//60
f 116//61 115//61 58//61 59//61
f 57//62 56//62 66//62 67//62
f 117//63 116//63 59//63 60//63
f 162//64 57//64 67//64 163//64
f 118//65 117//65 60//65 61//65
f 53//66 52//66 62//66 63//66
f 163//67 67//67 76//67 164//67
f 61//68 60//68 69//68 70//68
f 62//69 61//69 70//69 71//69
f 63//70 62//70 71//70 72//70
f 64//71 63//71 72//71 73//71
f 65//72 64//72 73//72 74//72
f 66//73 65//73 74//73 75//73
f 67//74 66//74 75//74 76//74
f 60//75 59//75 68//75 69//75
f 74//76 73//76 81//76 82//76
f 75//77 74//77 82//77 83//77
f 76//78 75//78 83//78 84//78
f 164//79 76//79 84//79 165//79
f 70//80 69//80 77//80 78//80
f 71//81 70//81 78//81 79//81
f 72//82 71//82 79//82 80//82
f 73//83 72//83 80//83 81//83
f 80//84 79//84 85//84 86//84
f 81//85 80//85 86//85 87//85
f 82//86 81//86 87//86 88//86
f 83//87 82//87 88//87 89//87
f 84//88 83//88 89//88 90//88
f 165//89 84//89 90//89 166//89
f 89//90 88//90 92//90 93//90
f 166//91 90//91 168//91
f 88//92 87//92 91//92 92//92
f 167//93 93//93 170//93
f 52//94 113//94 118//94 61//94 62//94
f 45//95 110//95 113//95 52//95
f 35//96 34//96 108//96 107//96 40//96
f 40//97 107//97 111//97 45//97 46//97
f 34//98 104//98 108//98
f 21//99 20//99 101//99 102//99
f 22//100 21//100 102//100 99//100 28//100
f 28//101 99//101 104//101 34//101
f 19//102 18//102 27//102 98//102 100//102
f 12//103 11//103 97//103 96//103 20//103
f 20//104 96//104 101//104
f 11//105 10//105 19//105 95//105 97//105
f 118//106 113//106 110//106 111//106 107//106 108//106 104//106 99//106 102//106 101//106 96//106 97//106 95//106 100//106 98//106 105//106 103//106 106//106 109//106 114//106 112//106 115//106 116//106 117//106
f 106//107 142//107 143//107 109//107
f 103//108 141//108 142//108 106//108
f 169//109 94//109 140//109 171//109
f 92//110 91//110 139//110 138//110 94//110
f 94//111 138//111 140//111
f 86//112 85//112 136//112 137//112
f 87//113 86//113 137//113 135//113 91//113
f 91//114 135//114 139//114
f 78//115 77//115 134//115 133//115
f 79//116 78//116 133//116 132//116 85//116
f 85//117 132//117 136//117
f 69//118 68//118 131//118 130//118 77//118
f 77//119 130//119 134//119
f 59//120 58//120 129//120 128//120 68//120
f 68//121 128//121 131//121
f 112//122 51//122 127//122 126//122 58//122 115//122
f 58//123 126//123 129//123
f 109//124 143//124 125//124 51//124 114//124
f 51//125 125//125 127//125
f 27//126 124//126 141//126 103//126 105//126
f 18//127 123//127 124//127 27//127
f 9//128 122//128 123//128 18//128
f 3//129 120//129 122//129 9//129
f 1//130 119//130 121//130 3//130 4//130
f 145//131 172//131 119//131 1//131
f 142//132 141//132 124//132 123//132 122//132 120//132 121//132 119//132 172//132 171//132 140//132 138//132 139//132 135//132 137//132 136//132 132//132 133//132 134//132 130//132 131//132 128//132 129//132 126//132 127//132 125//132 143//132
f 93//133 92//133 94//133 169//133 170//133
f 90//134 89//134 93//134 167//134 168//134
f 171//135 172//135 145//135 146//135 144//135 150//135 149//135 148//135 147//135 153//135 154//135 152//135 151//135 156//135 155//135 158//135 157//135 159//135 160//135 161//135 162//135 163//135 164//135 165//135 166//135 168//135 167//135 170//135 169//135
