# Blender v2.78 (sub 0) OBJ File: ''
# www.blender.org
mtllib 3.mtl
o Sphere.002
v 0.074658 -0.923880 -0.375330
v 0.038060 -0.980785 -0.191341
v 0.146447 -0.923880 -0.353553
v 0.074658 -0.980785 -0.180240
v 0.212608 -0.923880 -0.318189
v 0.108386 -0.980785 -0.162211
v 0.392848 -0.831470 -0.392847
v 0.270598 -0.923880 -0.270598
v 0.137950 -0.980785 -0.137949
v 0.461940 -0.831470 -0.308658
v 0.318190 -0.923880 -0.212607
v 0.162212 -0.980785 -0.108386
v 0.000000 -1.000000 0.000000
v 0.653282 -0.707107 -0.270598
v 0.513280 -0.831470 -0.212607
v 0.353554 -0.923880 -0.146446
v 0.180240 -0.980785 -0.074658
v 0.815493 -0.555570 -0.162211
v 0.693520 -0.707107 -0.137949
v 0.544895 -0.831470 -0.108386
v 0.375330 -0.923880 -0.074658
v 0.191342 -0.980785 -0.038060
v 0.980785 -0.195090 0.000000
v 0.923880 -0.382683 0.000000
v 0.831470 -0.555570 0.000000
v 0.707107 -0.707107 0.000000
v 0.555570 -0.831470 0.000000
v 0.382684 -0.923880 0.000000
v 0.195090 -0.980785 0.000000
v 0.961940 0.195090 0.191342
v 0.980785 0.000000 0.195091
v 0.961940 -0.195090 0.191342
v 0.906128 -0.382683 0.180240
v 0.815493 -0.555570 0.162212
v 0.693520 -0.707107 0.137950
v 0.544895 -0.831470 0.108387
v 0.375330 -0.923880 0.074658
v 0.191342 -0.980785 0.038061
v 0.853554 0.382683 0.353554
v 0.906127 0.195090 0.375331
v 0.923880 0.000000 0.382684
v 0.906127 -0.195090 0.375331
v 0.853554 -0.382683 0.353554
v 0.768178 -0.555570 0.318190
v 0.653282 -0.707107 0.270598
v 0.513280 -0.831470 0.212608
v 0.353553 -0.923880 0.146447
v 0.180240 -0.980785 0.074658
v 0.587938 0.707107 0.392848
v 0.691342 0.555570 0.461940
v 0.768178 0.382683 0.513280
v 0.815493 0.195090 0.544895
v 0.831470 0.000000 0.555571
v 0.815493 -0.195090 0.544895
v 0.768178 -0.382683 0.513280
v 0.691342 -0.555570 0.461940
v 0.587938 -0.707107 0.392848
v 0.461940 -0.831470 0.308659
v 0.318190 -0.923880 0.212608
v 0.162212 -0.980785 0.108387
v 0.653282 0.382683 0.653282
v 0.693520 0.195090 0.693520
v 0.707107 0.000000 0.707107
v 0.693520 -0.195090 0.693520
v 0.653282 -0.382683 0.653282
v 0.587938 -0.555570 0.587938
v 0.500000 -0.707107 0.500000
v 0.392848 -0.831470 0.392848
v 0.270598 -0.923880 0.270598
v 0.137950 -0.980785 0.137950
v 0.544895 -0.195090 0.815493
v 0.513280 -0.382683 0.768178
v 0.461940 -0.555570 0.691342
v 0.392848 -0.707107 0.587938
v 0.308658 -0.831470 0.461940
v 0.212608 -0.923880 0.318190
v 0.108386 -0.980785 0.162212
v 0.270598 -0.707107 0.653282
v 0.212608 -0.831470 0.513280
v 0.146447 -0.923880 0.353554
v 0.074658 -0.980785 0.180240
v 0.108386 -0.831470 0.544895
v 0.074658 -0.923880 0.375331
v 0.038060 -0.980785 0.191342
v 0.000000 -0.923880 0.382684
v 0.000000 -0.980785 0.195091
v -0.074658 -0.923880 0.375331
v -0.038060 -0.980785 0.191342
v -0.146447 -0.923880 0.353554
v -0.074658 -0.980785 0.180240
v -0.212607 -0.923880 0.318190
v -0.108386 -0.980785 0.162212
v -0.270598 -0.923880 0.270598
v -0.137950 -0.980785 0.137950
v -0.318190 -0.923880 0.212608
v -0.162212 -0.980785 0.108387
v -0.353553 -0.923880 0.146447
v -0.180240 -0.980785 0.074658
v -0.375330 -0.923880 0.074658
v -0.191342 -0.980785 0.038061
v -0.382683 -0.923880 0.000000
v -0.195090 -0.980785 0.000000
v -0.544895 -0.831470 -0.108386
v -0.375330 -0.923880 -0.074658
v -0.191342 -0.980785 -0.038060
v -0.653281 -0.707107 -0.270598
v -0.513280 -0.831470 -0.212607
v -0.353553 -0.923880 -0.146446
v -0.180240 -0.980785 -0.074657
v -0.587938 -0.707107 -0.392847
v -0.461940 -0.831470 -0.308658
v -0.318189 -0.923880 -0.212607
v -0.162212 -0.980785 -0.108386
v -0.392847 -0.831470 -0.392847
v -0.270598 -0.923880 -0.270598
v -0.137950 -0.980785 -0.137949
v -0.308658 -0.831470 -0.461939
v -0.212607 -0.923880 -0.318189
v -0.108386 -0.980785 -0.162211
v -0.146446 -0.923880 -0.353553
v -0.074658 -0.980785 -0.180240
v -0.074658 -0.923880 -0.375330
v -0.038060 -0.980785 -0.191341
v 0.000000 -0.923880 -0.382683
v 0.000000 -0.980785 -0.195090
v 0.091587 -0.877497 -0.460438
v 0.186200 -0.868354 -0.449526
v 0.289494 -0.849908 -0.433257
v 0.407366 -0.814620 -0.407366
v 0.360875 -0.831470 -0.419086
v 0.545535 -0.748960 -0.364514
v 0.709659 -0.632751 -0.293950
v 0.617103 -0.707107 -0.338283
v 0.883773 -0.425325 -0.175793
v 0.789160 -0.555570 -0.249020
v 0.990418 -0.097284 0.000000
v 0.908889 -0.382683 -0.152204
v 0.975734 -0.195090 -0.051290
v 0.938982 0.272256 0.186775
v 0.966125 0.195090 0.148850
v 0.995040 0.000000 0.050362
v 0.770451 0.550967 0.319132
v 0.887925 0.382683 0.240247
v 0.583122 0.711860 0.389630
v 0.590699 0.707107 0.387681
v 0.766545 0.555570 0.321244
v -0.605996 -0.680643 -0.404913
v -0.442267 -0.774113 -0.442267
v -0.568860 -0.707107 -0.416094
v -0.309149 -0.830745 -0.462674
v -0.194165 -0.857228 -0.468757
v -0.306867 -0.831470 -0.462897
v -0.093473 -0.872329 -0.469921
v 0.000000 -0.878760 -0.467097
v 0.625823 0.455332 0.625824
v 0.549748 0.707107 0.439382
v 0.607556 0.555570 0.564033
v 0.545489 -0.184236 0.816382
v 0.600573 0.000000 0.794537
v 0.632235 0.195090 0.743815
v 0.636014 0.382683 0.667453
v 0.307955 -0.588159 0.743469
v 0.336075 -0.555570 0.758618
v 0.541760 -0.195090 0.817169
v 0.449679 -0.382683 0.802173
v 0.124996 -0.761600 0.628396
v 0.194036 -0.707107 0.676507
v -0.000000 -0.843040 0.533924
v 0.023474 -0.831470 0.553259
v -0.090685 -0.879969 0.455903
v -0.162126 -0.901979 0.391408
v -0.222925 -0.913954 0.333630
v -0.278213 -0.918123 0.278213
v -0.331694 -0.915199 0.221631
v -0.386731 -0.904684 0.160190
v -0.447288 -0.884664 0.088971
v -0.519301 -0.850856 0.000000
v -0.606560 -0.779871 -0.120652
v -0.551475 -0.831470 -0.041582
v -0.712764 -0.628655 -0.295236
v -0.669552 -0.707107 -0.216960
v -0.742078 -0.563373 -0.353499
v 0.527090 0.741518 0.401215
vn 0.0286 -0.9565 -0.2902
vn 0.0097 -0.9951 -0.0980
vn 0.0286 -0.9951 -0.0942
vn 0.0846 -0.9565 -0.2790
vn 0.1374 -0.9565 -0.2571
vn 0.0464 -0.9951 -0.0869
vn 0.0625 -0.9951 -0.0761
vn 0.4036 -0.7715 -0.4918
vn 0.1850 -0.9565 -0.2254
vn 0.3658 -0.8810 -0.3002
vn 0.2254 -0.9565 -0.1850
vn 0.0761 -0.9951 -0.0625
vn 0.6831 -0.6326 -0.3651
vn 0.4173 -0.8810 -0.2231
vn 0.2571 -0.9565 -0.1374
vn 0.0869 -0.9951 -0.0464
vn 0.4528 -0.8810 -0.1374
vn 0.2790 -0.9565 -0.0846
vn 0.0942 -0.9951 -0.0286
vn 0.8448 -0.4696 -0.2563
vn 0.6088 -0.7715 -0.1847
vn 0.9527 -0.2890 -0.0938
vn 0.7708 -0.6326 -0.0759
vn 0.6332 -0.7715 -0.0624
vn 0.4709 -0.8810 -0.0464
vn 0.2902 -0.9565 -0.0286
vn 0.0980 -0.9951 -0.0097
vn 0.9904 -0.0976 -0.0975
vn 0.4709 -0.8810 0.0464
vn 0.9527 0.2890 0.0938
vn 0.2902 -0.9565 0.0286
vn 0.9904 0.0976 0.0975
vn 0.0980 -0.9951 0.0097
vn 0.9527 -0.2890 0.0938
vn 0.8786 -0.4696 0.0865
vn 0.7708 -0.6326 0.0759
vn 0.6332 -0.7715 0.0624
vn 0.8448 -0.4696 0.2563
vn 0.7412 -0.6326 0.2248
vn 0.6088 -0.7715 0.1847
vn 0.8448 0.4696 0.2563
vn 0.4528 -0.8810 0.1374
vn 0.2790 -0.9565 0.0846
vn 0.9524 0.0976 0.2889
vn 0.0942 -0.9951 0.0286
vn 0.9524 -0.0976 0.2889
vn 0.9161 -0.2890 0.2779
vn 0.8443 0.2890 0.4513
vn 0.2571 -0.9565 0.1374
vn 0.8777 0.0976 0.4691
vn 0.0869 -0.9951 0.0464
vn 0.8777 -0.0976 0.4691
vn 0.8443 -0.2890 0.4513
vn 0.7786 -0.4696 0.4162
vn 0.5611 0.7715 0.2999
vn 0.6831 -0.6326 0.3651
vn 0.6831 0.6326 0.3651
vn 0.5611 -0.7715 0.2999
vn 0.4173 -0.8810 0.2231
vn 0.6825 -0.4696 0.5601
vn 0.5987 -0.6326 0.4913
vn 0.4918 -0.7715 0.4036
vn 0.3658 -0.8810 0.3002
vn 0.7400 0.2890 0.6073
vn 0.2254 -0.9565 0.1850
vn 0.7693 0.0976 0.6314
vn 0.0761 -0.9951 0.0625
vn 0.7693 -0.0976 0.6314
vn 0.7400 -0.2890 0.6073
vn 0.1850 -0.9565 0.2254
vn 0.0625 -0.9951 0.0761
vn 0.6073 -0.2890 0.7400
vn 0.5601 -0.4696 0.6825
vn 0.4913 -0.6326 0.5987
vn 0.4036 -0.7715 0.4918
vn 0.3002 -0.8810 0.3658
vn 0.2999 -0.7715 0.5611
vn 0.2230 -0.8810 0.4173
vn 0.1374 -0.9565 0.2571
vn 0.0464 -0.9951 0.0869
vn 0.0286 -0.9951 0.0942
vn 0.1374 -0.8810 0.4528
vn 0.0846 -0.9565 0.2790
vn 0.0286 -0.9565 0.2902
vn 0.0097 -0.9951 0.0980
vn -0.0286 -0.9565 0.2902
vn -0.0097 -0.9951 0.0980
vn -0.0846 -0.9565 0.2790
vn -0.0286 -0.9951 0.0942
vn -0.1374 -0.9565 0.2571
vn -0.0464 -0.9951 0.0869
vn -0.1850 -0.9565 0.2254
vn -0.0625 -0.9951 0.0761
vn -0.2254 -0.9565 0.1850
vn -0.0761 -0.9951 0.0625
vn -0.2571 -0.9565 0.1374
vn -0.0869 -0.9951 0.0464
vn -0.2790 -0.9565 0.0846
vn -0.0942 -0.9951 0.0286
vn -0.2902 -0.9565 0.0286
vn -0.0980 -0.9951 0.0097
vn -0.6332 -0.7715 -0.0624
vn -0.2902 -0.9565 -0.0286
vn -0.0980 -0.9951 -0.0097
vn -0.0942 -0.9951 -0.0286
vn -0.7412 -0.6326 -0.2248
vn -0.4528 -0.8810 -0.1374
vn -0.2790 -0.9565 -0.0846
vn -0.5611 -0.7715 -0.2999
vn -0.4173 -0.8810 -0.2231
vn -0.2571 -0.9565 -0.1374
vn -0.0869 -0.9951 -0.0464
vn -0.0761 -0.9951 -0.0625
vn -0.3658 -0.8810 -0.3002
vn -0.2254 -0.9565 -0.1850
vn -0.3002 -0.8810 -0.3658
vn -0.1850 -0.9565 -0.2254
vn -0.0625 -0.9951 -0.0761
vn -0.1374 -0.9565 -0.2571
vn -0.0464 -0.9951 -0.0869
vn -0.0846 -0.9565 -0.2790
vn -0.0286 -0.9951 -0.0942
vn -0.0286 -0.9565 -0.2902
vn -0.0097 -0.9951 -0.0980
vn -0.0464 -0.8810 -0.4709
vn -0.2230 -0.8810 -0.4173
vn -0.1374 -0.8810 -0.4528
vn -0.2999 -0.7715 -0.5611
vn -0.4918 -0.7715 -0.4036
vn -0.4036 -0.7715 -0.4918
vn -0.5987 -0.6326 -0.4913
vn 0.7786 0.4696 0.4162
vn 0.9161 0.2890 0.2779
vn 0.9904 -0.0976 0.0975
vn 0.8786 -0.4696 -0.0865
vn 0.7412 -0.6326 -0.2248
vn 0.5611 -0.7715 -0.2999
vn 0.4918 -0.7715 -0.4036
vn 0.3002 -0.8810 -0.3658
vn 0.2230 -0.8810 -0.4173
vn 0.0464 -0.8810 -0.4709
vn 0.1374 -0.8810 -0.4528
vn 0.0582 0.4568 -0.8877
vn -0.6831 -0.6326 -0.3651
vn -0.6088 -0.7715 -0.1847
vn -0.4709 -0.8810 -0.0464
vn -0.4709 -0.8810 0.0464
vn -0.4528 -0.8810 0.1374
vn -0.4173 -0.8810 0.2230
vn -0.3658 -0.8810 0.3002
vn -0.3002 -0.8810 0.3658
vn -0.2230 -0.8810 0.4173
vn -0.1374 -0.8810 0.4528
vn 0.0464 -0.8810 0.4709
vn -0.0464 -0.8810 0.4709
vn 0.1847 -0.7715 0.6088
vn 0.0624 -0.7715 0.6332
vn 0.4513 -0.2890 0.8443
vn 0.4162 -0.4696 0.7786
vn 0.3651 -0.6326 0.6831
vn 0.2248 -0.6326 0.7412
vn 0.6073 0.2890 0.7400
vn 0.6314 0.0976 0.7693
vn 0.6314 -0.0976 0.7693
vn 0.4692 -0.0976 0.8777
vn 0.5987 0.6326 0.4913
vn 0.4918 0.7715 0.4036
vn 0.6825 0.4696 0.5601
vn 0.5601 0.4696 0.6825
vn -0.6892 0.2850 0.6661
usemtl None
s off
f 125//1 124//1 1//1 2//1
f 13//2 125//2 2//2
f 13//3 2//3 4//3
f 2//4 1//4 3//4 4//4
f 4//5 3//5 5//5 6//5
f 13//6 4//6 6//6
f 13//7 6//7 9//7
f 130//8 129//8 7//8
f 6//9 5//9 8//9 9//9
f 8//10 7//10 10//10 11//10
f 9//11 8//11 11//11 12//11
f 13//12 9//12 12//12
f 133//13 132//13 14//13
f 11//14 10//14 15//14 16//14
f 12//15 11//15 16//15 17//15
f 13//16 12//16 17//16
f 16//17 15//17 20//17 21//17
f 17//18 16//18 21//18 22//18
f 13//19 17//19 22//19
f 135//20 134//20 18//20
f 15//21 14//21 19//21 20//21
f 137//22 138//22 23//22 24//22
f 19//23 18//23 25//23 26//23
f 20//24 19//24 26//24 27//24
f 21//25 20//25 27//25 28//25
f 22//26 21//26 28//26 29//26
f 13//27 22//27 29//27
f 138//28 136//28 23//28
f 28//29 27//29 36//29 37//29
f 140//30 139//30 30//30
f 29//31 28//31 37//31 38//31
f 141//32 140//32 30//32 31//32
f 13//33 29//33 38//33
f 24//34 23//34 32//34 33//34
f 25//35 24//35 33//35 34//35
f 26//36 25//36 34//36 35//36
f 27//37 26//37 35//37 36//37
f 34//38 33//38 43//38 44//38
f 35//39 34//39 44//39 45//39
f 36//40 35//40 45//40 46//40
f 143//41 142//41 39//41
f 37//42 36//42 46//42 47//42
f 38//43 37//43 47//43 48//43
f 31//44 30//44 40//44 41//44
f 13//45 38//45 48//45
f 32//46 31//46 41//46 42//46
f 33//47 32//47 42//47 43//47
f 40//48 39//48 51//48 52//48
f 48//49 47//49 59//49 60//49
f 41//50 40//50 52//50 53//50
f 13//51 48//51 60//51
f 42//52 41//52 53//52 54//52
f 43//53 42//53 54//53 55//53
f 44//54 43//54 55//54 56//54
f 145//55 144//55 49//55
f 45//56 44//56 56//56 57//56
f 146//57 145//57 49//57 50//57
f 46//58 45//58 57//58 58//58
f 47//59 46//59 58//59 59//59
f 56//60 55//60 65//60 66//60
f 57//61 56//61 66//61 67//61
f 58//62 57//62 67//62 68//62
f 59//63 58//63 68//63 69//63
f 52//64 51//64 61//64 62//64
f 60//65 59//65 69//65 70//65
f 53//66 52//66 62//66 63//66
f 13//67 60//67 70//67
f 54//68 53//68 63//68 64//68
f 55//69 54//69 64//69 65//69
f 70//70 69//70 76//70 77//70
f 13//71 70//71 77//71
f 65//72 64//72 71//72 72//72
f 66//73 65//73 72//73 73//73
f 67//74 66//74 73//74 74//74
f 68//75 67//75 74//75 75//75
f 69//76 68//76 75//76 76//76
f 75//77 74//77 78//77 79//77
f 76//78 75//78 79//78 80//78
f 77//79 76//79 80//79 81//79
f 13//80 77//80 81//80
f 13//81 81//81 84//81
f 80//82 79//82 82//82 83//82
f 81//83 80//83 83//83 84//83
f 84//84 83//84 85//84 86//84
f 13//85 84//85 86//85
f 86//86 85//86 87//86 88//86
f 13//87 86//87 88//87
f 88//88 87//88 89//88 90//88
f 13//89 88//89 90//89
f 90//90 89//90 91//90 92//90
f 13//91 90//91 92//91
f 92//92 91//92 93//92 94//92
f 13//93 92//93 94//93
f 94//94 93//94 95//94 96//94
f 13//95 94//95 96//95
f 96//96 95//96 97//96 98//96
f 13//97 96//97 98//97
f 98//98 97//98 99//98 100//98
f 13//99 98//99 100//99
f 100//100 99//100 101//100 102//100
f 13//101 100//101 102//101
f 179//102 178//102 103//102
f 102//103 101//103 104//103 105//103
f 13//104 102//104 105//104
f 13//105 105//105 109//105
f 181//106 180//106 106//106
f 104//107 103//107 107//107 108//107
f 105//108 104//108 108//108 109//108
f 107//109 106//109 110//109 111//109
f 108//110 107//110 111//110 112//110
f 109//111 108//111 112//111 113//111
f 13//112 109//112 113//112
f 13//113 113//113 116//113
f 112//114 111//114 114//114 115//114
f 113//115 112//115 115//115 116//115
f 115//116 114//116 117//116 118//116
f 116//117 115//117 118//117 119//117
f 13//118 116//118 119//118
f 119//119 118//119 120//119 121//119
f 13//120 119//120 121//120
f 121//121 120//121 122//121 123//121
f 13//122 121//122 123//122
f 123//123 122//123 124//123 125//123
f 13//124 123//124 125//124
f 122//125 153//125 154//125 124//125
f 118//126 117//126 152//126 151//126 120//126
f 120//127 151//127 153//127 122//127
f 117//128 150//128 152//128
f 111//129 110//129 149//129 148//129 114//129
f 114//130 148//130 150//130 117//130
f 110//131 147//131 149//131
f 39//132 142//132 146//132 50//132 51//132
f 30//133 139//133 143//133 39//133 40//133
f 23//134 136//134 141//134 31//134 32//134
f 18//135 134//135 137//135 24//135 25//135
f 14//136 132//136 135//136 18//136 19//136
f 10//137 131//137 133//137 14//137 15//137
f 7//138 129//138 131//138 10//138
f 5//139 128//139 130//139 7//139 8//139
f 3//140 127//140 128//140 5//140
f 124//141 154//141 126//141 1//141
f 1//142 126//142 127//142 3//142
f 182//143 183//143 144//143 145//143 146//143 142//143 143//143 139//143 140//143 141//143 136//143 138//143 137//143 134//143 135//143 132//143 133//143 131//143 129//143 130//143 128//143 127//143 126//143 154//143 153//143 151//143 152//143 150//143 148//143 149//143 147//143
f 106//144 180//144 182//144 147//144 110//144
f 103//145 178//145 181//145 106//145 107//145
f 101//146 177//146 179//146 103//146 104//146
f 99//147 176//147 177//147 101//147
f 97//148 175//148 176//148 99//148
f 95//149 174//149 175//149 97//149
f 93//150 173//150 174//150 95//150
f 91//151 172//151 173//151 93//151
f 89//152 171//152 172//152 91//152
f 87//153 170//153 171//153 89//153
f 83//154 82//154 169//154 168//154 85//154
f 85//155 168//155 170//155 87//155
f 79//156 78//156 167//156 166//156 82//156
f 82//157 166//157 169//157
f 72//158 71//158 164//158 165//158
f 73//159 72//159 165//159 163//159
f 74//160 73//160 163//160 162//160 78//160
f 78//161 162//161 167//161
f 62//162 61//162 161//162 160//162
f 63//163 62//163 160//163 159//163
f 64//164 63//164 159//164 158//164 71//164
f 71//165 158//165 164//165
f 50//166 49//166 156//166 157//166
f 49//167 144//167 183//167 156//167
f 51//168 50//168 157//168 155//168 61//168
f 61//169 155//169 161//169
f 182//170 180//170 181//170 178//170 179//170 177//170 176//170 175//170 174//170 173//170 172//170 171//170 170//170 168//170 169//170 166//170 167//170 162//170 163//170 165//170 164//170 158//170 159//170 160//170 161//170 155//170 157//170 156//170 183//170
