# Blender v2.78 (sub 0) OBJ File: 'Cut_full.blend'
# www.blender.org
mtllib 1.mtl
o Cube.002
v 0.187509 0.739708 -1.926072
v -0.187508 0.739708 -1.926072
v 0.187509 0.739708 -2.388586
v -0.187508 0.739708 -2.388586
v 0.187509 0.594299 -2.388586
v -0.187508 0.593069 -2.388586
v 0.187509 0.727728 -1.926072
v -0.187508 0.500861 -1.926072
v 0.187509 0.739708 -1.917551
v -0.187508 0.739708 -1.756197
v -0.187508 0.412433 -1.988964
v 0.187509 0.468556 -2.110402
vn -0.0000 1.0000 0.0000
vn -1.0000 -0.0000 -0.0000
vn -0.0000 0.0000 -1.0000
vn 1.0000 0.0000 0.0000
vn 0.0030 -0.9112 -0.4119
vn 0.3309 -0.5469 0.7690
usemtl Material
s off
f 2//1 1//1 3//1 4//1
f 10//1 9//1 1//1 2//1
f 8//2 2//2 4//2 6//2 11//2
f 3//3 5//3 6//3 4//3
f 8//2 10//2 2//2
f 9//4 7//4 1//4
f 5//5 12//5 11//5 6//5
f 1//4 7//4 12//4 5//4 3//4
f 11//6 12//6 7//6 9//6 10//6 8//6
