# Blender v2.78 (sub 0) OBJ File: 'Cut_full.blend'
# www.blender.org
mtllib 5.mtl
o Cube.006
v 0.187509 -0.551042 -0.255215
v -0.187509 -0.551042 -0.255215
v 0.187508 -1.401781 0.600491
v -0.187509 -1.401781 0.600491
v 0.187508 -1.121845 0.310990
v -0.187509 -1.121845 0.310990
v 0.187508 -1.401781 0.310990
v -0.187509 -1.401781 0.310990
v 0.187509 -0.176025 -1.010086
v -0.187508 -0.176025 -1.104470
v -0.187508 -0.551042 -1.012703
v 0.187509 -0.551042 -0.918318
v 0.187509 -0.551042 -0.043833
v 0.187509 -0.325018 -0.255215
v -0.187509 -0.551042 -0.152431
v -0.187509 -0.441139 -0.255215
v 0.187509 -0.176025 -0.394556
v -0.187509 -0.176025 -0.503155
v -0.187509 -1.356119 0.600491
v 0.187508 -1.239998 0.600491
v 0.187508 -1.401781 0.751794
v -0.187509 -1.401781 0.643195
v -0.187509 -1.121845 0.381394
v 0.187508 -1.121845 0.489993
v -0.187509 -1.046564 0.310990
v 0.187508 -0.930443 0.310990
vn -1.0000 -0.0000 -0.0000
vn 1.0000 0.0000 0.0000
vn 0.0000 -1.0000 -0.0000
vn 0.0000 0.0000 -1.0000
vn -0.0000 1.0000 0.0000
vn 0.2375 -0.2309 -0.9436
vn -0.2069 0.6683 0.7146
usemtl Material
s off
f 15//1 16//1 2//1
f 20//2 21//2 3//2
f 22//1 19//1 4//1
f 21//3 22//3 4//3 3//3
f 6//4 5//4 7//4 8//4
f 20//2 3//2 7//2 5//2 24//2
f 3//3 4//3 8//3 7//3
f 24//2 5//2 26//2
f 1//3 2//3 11//3 12//3
f 18//5 17//5 9//5 10//5
f 14//2 1//2 12//2 9//2 17//2
f 11//6 10//6 9//6 12//6
f 5//4 6//4 25//4 26//4
f 6//1 23//1 25//1
f 4//1 19//1 23//1 6//1 8//1
f 2//1 16//1 18//1 10//1 11//1
f 1//3 13//3 15//3 2//3
f 1//2 14//2 13//2
f 18//7 16//7 15//7 13//7 14//7 17//7
f 26//7 25//7 23//7 19//7 22//7 21//7 20//7 24//7
