# Blender v2.78 (sub 0) OBJ File: 'Cut_full.blend'
# www.blender.org
mtllib 7.mtl
o Cube.007
v 0.187508 -0.776404 1.041510
v -0.187509 -0.776404 1.041510
v 0.187508 -0.776404 1.353909
v -0.187509 -0.776404 1.353909
v 0.187508 -1.056339 1.041510
v -0.187509 -1.056339 1.041510
v 0.187508 -1.056339 1.353909
v -0.187509 -1.056339 1.353909
v 0.187508 -0.776404 0.668197
v -0.187509 -0.776404 0.668197
v -0.187509 -1.010677 0.668197
v 0.187508 -0.894556 0.668197
v 0.187508 -1.056339 0.819500
v -0.187509 -1.056339 0.710901
v -0.187509 -0.776404 0.449100
v 0.187508 -0.776404 0.557699
v -0.187509 -0.701123 0.378696
v 0.187508 -0.585002 0.378696
v -0.187509 -0.441121 1.041510
v -0.187509 -0.461081 1.353909
v 0.187508 -0.609765 1.353909
v 0.187508 -0.589805 1.041510
v -0.187509 -0.398773 0.378696
v 0.187508 -0.565953 0.668197
v -0.187509 -0.417270 0.668197
v 0.187508 -0.547456 0.378696
vn -1.0000 0.0000 -0.0000
vn -0.0000 0.0000 1.0000
vn 1.0000 0.0000 0.0000
vn 0.0000 0.0000 -1.0000
vn 0.0000 -1.0000 0.0000
vn 0.0000 1.0000 0.0000
vn 0.2069 -0.6683 -0.7146
vn 0.3679 0.9280 0.0593
usemtl Material
s off
f 20//1 19//1 2//1 4//1
f 4//1 2//1 6//1 8//1
f 21//2 20//2 4//2 3//2
f 22//3 21//3 3//3 1//3
f 19//4 22//4 1//4 2//4
f 6//5 5//5 7//5 8//5
f 2//6 1//6 9//6 10//6
f 1//3 3//3 7//3 5//3
f 3//2 4//2 8//2 7//2
f 11//1 10//1 15//1
f 5//5 6//5 14//5 13//5
f 1//3 5//3 13//3 12//3 9//3
f 9//3 12//3 16//3
f 6//1 2//1 10//1 11//1 14//1
f 18//7 16//7 12//7 13//7 14//7 11//7 15//7 17//7
f 10//2 9//2 24//2 25//2
f 9//3 16//3 18//3 26//3 24//3
f 18//4 17//4 23//4 26//4
f 15//1 10//1 25//1 23//1 17//1
f 21//8 22//8 19//8 20//8
f 24//8 26//8 23//8 25//8
