# Blender v2.78 (sub 0) OBJ File: 'Cut_full.blend'
# www.blender.org
mtllib 9.mtl
o Cube.009
v 0.187509 2.461462 -0.041290
v 0.187509 2.461462 0.333728
v 0.187509 2.679394 -0.041290
v 0.187509 2.679394 0.333728
v 0.187508 2.461462 1.187729
v 0.187508 2.679394 1.187729
v -0.187509 2.679394 1.187729
v 0.187508 2.461462 1.500128
v -0.187509 2.461462 1.500128
v 0.187508 2.679394 1.500128
v -0.187509 2.679394 1.500128
v 0.152975 2.461462 -0.041290
v 0.055945 2.461462 0.333728
v 0.187509 2.131418 0.333728
v 0.187509 2.374828 -0.041290
v 0.066102 2.679394 -0.041290
v -0.030927 2.679394 0.333728
v -0.165012 2.461462 1.187729
v -0.187509 2.517898 1.187729
v -0.187509 2.679394 0.938915
v -0.187509 2.461462 1.274679
v -0.187509 2.315131 1.500128
v 0.187508 1.374351 1.500128
v 0.187508 1.577117 1.187729
vn 1.0000 0.0000 0.0000
vn 0.0000 0.0000 -1.0000
vn -1.0000 0.0000 -0.0000
vn 0.0000 -1.0000 0.0000
vn -0.0000 0.0000 1.0000
vn 0.0000 1.0000 0.0000
vn -0.9032 -0.3600 -0.2337
usemtl Material
s off
f 14//1 15//1 1//1 2//1
f 15//2 12//2 1//2
f 2//1 1//1 3//1 4//1
f 20//3 19//3 7//3
f 13//4 2//4 5//4 18//4
f 2//1 4//1 6//1 5//1
f 9//5 8//5 10//5 11//5
f 6//6 7//6 11//6 10//6
f 5//1 6//1 10//1 8//1
f 18//2 5//2 24//2
f 13//5 14//5 2//5
f 5//1 8//1 23//1 24//1
f 8//5 9//5 22//5 23//5
f 9//3 21//3 22//3
f 7//3 19//3 21//3 9//3 11//3
f 4//6 17//6 20//6 7//6 6//6
f 3//6 16//6 17//6 4//6
f 1//2 12//2 16//2 3//2
f 23//7 22//7 21//7 19//7 20//7 17//7 16//7 12//7 15//7 14//7 13//7 18//7 24//7
