# Blender v2.78 (sub 0) OBJ File: '1.blend'
# www.blender.org
mtllib 1.mtl
o Cube_Cube.005
v 0.055384 -1.000000 -1.000000
v 0.055384 -1.000000 1.000000
v 0.055384 1.000000 -0.999999
v 0.055383 1.000000 1.000001
v 0.055384 -1.000000 0.000000
v 0.055384 0.000000 -1.000000
v 0.055384 0.000000 1.000000
v 0.055384 1.000000 0.000001
v 0.055384 0.000000 0.000000
v 0.055384 -1.000000 0.500000
v 0.055384 0.500000 -1.000000
v 0.055383 0.500000 1.000000
v 0.055384 1.000000 0.500001
v 0.055384 -1.000000 -0.500000
v 0.055384 -0.500000 -1.000000
v 0.055384 -0.500000 1.000000
v 0.055384 1.000000 -0.499999
v 0.055384 0.000000 0.500000
v 0.055384 0.000000 -0.500000
v 0.055384 -0.500000 0.000000
v 0.055384 0.500000 0.000000
v 0.055384 0.500000 -0.500000
v 0.055384 -0.500000 -0.500000
v 0.055384 -0.500000 0.500000
v 0.055384 0.500000 0.500000
v 0.055384 -1.000000 0.750000
v 0.055384 0.750000 -1.000000
v 0.055383 0.750000 1.000000
v 0.055383 1.000000 0.750001
v 0.055384 -1.000000 -0.250000
v 0.055384 -0.250000 -1.000000
v 0.055384 -0.250000 1.000000
v 0.055384 1.000000 -0.249999
v 0.055384 0.000000 0.750000
v 0.055384 0.000000 -0.250000
v 0.055384 -0.750000 0.000000
v 0.055384 0.250000 0.000000
v -0.194616 1.000000 0.000000
v 0.055384 -1.000000 0.250000
v 0.055384 0.250000 -1.000000
v 0.055384 0.250000 1.000000
v 0.055384 1.000000 0.250001
v 0.055384 -1.000000 -0.750000
v -0.194616 -1.000000 -1.000000
v 0.055384 -0.750000 -1.000000
v -0.194616 -1.000000 1.000000
v 0.055384 -0.750000 1.000000
v 0.055384 1.000000 -0.749999
v -0.194616 1.000000 -1.000000
v -0.194617 1.000000 1.000000
v -0.194616 0.000000 -1.000000
v -0.194616 0.000000 1.000000
v 0.055384 0.000000 0.250000
v 0.055384 0.000000 -0.750000
v 0.055384 -0.250000 0.000000
v 0.055384 0.750000 0.000000
v -0.194616 -1.000000 0.000000
v -0.194616 -1.000000 0.500000
v -0.194616 -1.000000 -0.500000
v -0.194616 1.000000 -0.500000
v -0.194616 1.000000 0.500000
v 0.055384 0.500000 -0.250000
v 0.055384 0.500000 -0.750000
v 0.055384 0.250000 -0.500000
v 0.055384 0.750000 -0.500000
v 0.055384 -0.500000 -0.250000
v 0.055384 -0.500000 -0.750000
v 0.055384 -0.750000 -0.500000
v 0.055384 -0.250000 -0.500000
v 0.055384 -0.500000 0.750000
v 0.055384 -0.500000 0.250000
v 0.055384 -0.750000 0.500000
v 0.055384 -0.250000 0.500000
v -0.194617 0.500000 1.000000
v -0.194616 -0.500000 1.000000
v -0.194616 -0.500000 -1.000000
v -0.194616 0.500000 -1.000000
v 0.055384 0.500000 0.750000
v 0.055384 0.500000 0.250000
v 0.055384 0.250000 0.500000
v 0.055384 0.750000 0.500000
v 0.055384 0.750000 0.250000
v 0.055384 0.250000 0.250000
v 0.055384 0.250000 0.750000
v -0.194616 0.250000 -1.000000
v -0.194616 0.750000 -1.000000
v -0.194616 -0.750000 -1.000000
v -0.194616 -0.250000 -1.000000
v -0.194616 -0.250000 1.000000
v -0.194616 -0.750000 1.000000
v -0.194617 0.750000 1.000000
v -0.194616 0.250000 1.000000
v 0.055384 -0.250000 0.250000
v 0.055384 -0.750000 0.250000
v 0.055384 -0.750000 0.750000
v 0.055384 -0.250000 -0.750000
v 0.055384 -0.750000 -0.750000
v 0.055384 -0.750000 -0.250000
v 0.055384 0.750000 -0.750000
v 0.055384 0.250000 -0.750000
v 0.055384 0.250000 -0.250000
v -0.194616 1.000000 0.250000
v -0.194617 1.000000 0.750000
v -0.194616 1.000000 -0.750000
v -0.194616 1.000000 -0.250000
v -0.194616 -1.000000 -0.250000
v -0.194616 -1.000000 -0.750000
v -0.194616 -1.000000 0.750000
v -0.194616 -1.000000 0.250000
v 0.055384 0.750000 -0.250000
v 0.055384 -0.250000 -0.250000
v 0.055384 -0.250000 0.750000
v 0.055383 0.750000 0.750000
v -0.194616 0.375000 -1.000000
v -0.194616 0.125000 -1.000000
v -0.194616 0.875000 -1.000000
v -0.194616 0.625000 -1.000000
v -0.194616 -0.625000 -1.000000
v -0.194616 -0.875000 -1.000000
v -0.194616 -0.125000 -1.000000
v -0.194616 -0.375000 -1.000000
v -0.194616 -0.375000 1.000000
v -0.194616 -0.125000 1.000000
v -0.194616 -0.875000 1.000000
v -0.194616 -0.625000 1.000000
v -0.194617 0.625000 1.000000
v -0.194617 0.875000 1.000000
v -0.194616 0.125000 1.000000
v -0.194617 0.375000 1.000000
v -0.194616 1.000000 0.375000
v -0.194616 1.000000 0.125000
v -0.194617 1.000000 0.875000
v -0.194616 1.000000 0.625000
v -0.194616 1.000000 -0.625000
v -0.194616 1.000000 -0.875000
v -0.194616 1.000000 -0.125000
v -0.194616 1.000000 -0.375000
v -0.194616 -1.000000 -0.375000
v -0.194616 -1.000000 -0.125000
v -0.194616 -1.000000 -0.875000
v -0.194616 -1.000000 -0.625000
v -0.194616 -1.000000 0.625000
v -0.194616 -1.000000 0.875000
v -0.194616 -1.000000 0.125000
v -0.194616 -1.000000 0.375000
vn 1.0000 0.0000 0.0000
vn 0.0000 0.0000 -1.0000
vn -0.0000 -0.0000 1.0000
vn 0.0000 1.0000 0.0000
vn 0.0000 -1.0000 0.0000
vn -1.0000 -0.0000 -0.0000
usemtl Material.005
s off
f 113//1 29//1 4//1 28//1
f 112//1 34//1 7//1 32//1
f 111//1 35//1 9//1 55//1
f 110//1 33//1 8//1 56//1
f 101//1 62//1 21//1 37//1
f 100//1 63//1 22//1 64//1
f 99//1 48//1 17//1 65//1
f 98//1 66//1 20//1 36//1
f 97//1 67//1 23//1 68//1
f 96//1 54//1 19//1 69//1
f 95//1 70//1 16//1 47//1
f 94//1 71//1 24//1 72//1
f 93//1 53//1 18//1 73//1
f 84//1 78//1 12//1 41//1
f 83//1 79//1 25//1 80//1
f 82//1 42//1 13//1 81//1
f 79//1 82//1 81//1 25//1
f 21//1 56//1 82//1 79//1
f 56//1 8//1 42//1 82//1
f 53//1 83//1 80//1 18//1
f 9//1 37//1 83//1 53//1
f 37//1 21//1 79//1 83//1
f 34//1 84//1 41//1 7//1
f 18//1 80//1 84//1 34//1
f 80//1 25//1 78//1 84//1
f 11//2 40//2 85//2 114//2 77//2
f 40//2 6//2 51//2 115//2 85//2
f 3//2 27//2 86//2 116//2 49//2
f 27//2 11//2 77//2 117//2 86//2
f 15//2 45//2 87//2 118//2 76//2
f 45//2 1//2 44//2 119//2 87//2
f 6//2 31//2 88//2 120//2 51//2
f 31//2 15//2 76//2 121//2 88//2
f 16//3 32//3 89//3 122//3 75//3
f 32//3 7//3 52//3 123//3 89//3
f 2//3 47//3 90//3 124//3 46//3
f 47//3 16//3 75//3 125//3 90//3
f 12//3 28//3 91//3 126//3 74//3
f 28//3 4//3 50//3 127//3 91//3
f 7//3 41//3 92//3 128//3 52//3
f 41//3 12//3 74//3 129//3 92//3
f 71//1 93//1 73//1 24//1
f 20//1 55//1 93//1 71//1
f 55//1 9//1 53//1 93//1
f 39//1 94//1 72//1 10//1
f 5//1 36//1 94//1 39//1
f 36//1 20//1 71//1 94//1
f 26//1 95//1 47//1 2//1
f 10//1 72//1 95//1 26//1
f 72//1 24//1 70//1 95//1
f 67//1 96//1 69//1 23//1
f 15//1 31//1 96//1 67//1
f 31//1 6//1 54//1 96//1
f 43//1 97//1 68//1 14//1
f 1//1 45//1 97//1 43//1
f 45//1 15//1 67//1 97//1
f 30//1 98//1 36//1 5//1
f 14//1 68//1 98//1 30//1
f 68//1 23//1 66//1 98//1
f 63//1 99//1 65//1 22//1
f 11//1 27//1 99//1 63//1
f 27//1 3//1 48//1 99//1
f 54//1 100//1 64//1 19//1
f 6//1 40//1 100//1 54//1
f 40//1 11//1 63//1 100//1
f 35//1 101//1 37//1 9//1
f 19//1 64//1 101//1 35//1
f 64//1 22//1 62//1 101//1
f 42//4 102//4 130//4 61//4 13//4
f 8//4 38//4 131//4 102//4 42//4
f 29//4 103//4 132//4 50//4 4//4
f 13//4 61//4 133//4 103//4 29//4
f 48//4 104//4 134//4 60//4 17//4
f 3//4 49//4 135//4 104//4 48//4
f 33//4 105//4 136//4 38//4 8//4
f 17//4 60//4 137//4 105//4 33//4
f 14//5 30//5 106//5 138//5 59//5
f 30//5 5//5 57//5 139//5 106//5
f 1//5 43//5 107//5 140//5 44//5
f 43//5 14//5 59//5 141//5 107//5
f 10//5 26//5 108//5 142//5 58//5
f 26//5 2//5 46//5 143//5 108//5
f 5//5 39//5 109//5 144//5 57//5
f 39//5 10//5 58//5 145//5 109//5
f 62//1 110//1 56//1 21//1
f 22//1 65//1 110//1 62//1
f 65//1 17//1 33//1 110//1
f 66//1 111//1 55//1 20//1
f 23//1 69//1 111//1 66//1
f 69//1 19//1 35//1 111//1
f 70//1 112//1 32//1 16//1
f 24//1 73//1 112//1 70//1
f 73//1 18//1 34//1 112//1
f 78//1 113//1 28//1 12//1
f 25//1 81//1 113//1 78//1
f 81//1 13//1 29//1 113//1
f 85//6 115//6 51//6 120//6 88//6 121//6 76//6 118//6 87//6 119//6 44//6 140//6 107//6 141//6 59//6 138//6 106//6 139//6 57//6 144//6 109//6 145//6 58//6 142//6 108//6 143//6 46//6 124//6 90//6 125//6 75//6 122//6 89//6 123//6 52//6 128//6 92//6 129//6 74//6 126//6 91//6 127//6 50//6 132//6 103//6 133//6 61//6 130//6 102//6 131//6 38//6 136//6 105//6 137//6 60//6 134//6 104//6 135//6 49//6 116//6 86//6 117//6 77//6 114//6
