# Blender v2.78 (sub 0) OBJ File: ''
# www.blender.org
mtllib 3.mtl
o Cube.003
v -0.149259 -1.146283 0.149259
v 0.149259 -1.146283 0.149259
v -0.111389 -1.266365 0.111389
v 0.149259 -1.146283 0.096566
v -0.149259 -1.146283 -0.026318
v 0.137816 -0.829443 -0.140677
v -0.146313 -0.983138 -0.144840
v -0.028819 -1.266365 0.111389
v -0.111390 -1.266365 0.077400
v 0.131186 -1.203592 0.131185
v -0.111390 -1.312678 0.111389
v 0.118408 -0.292044 0.126121
v 0.120472 -0.349194 -0.127669
v -0.132978 -0.244698 0.124838
v -0.133989 -0.300685 -0.126355
vn 0.0000 0.0271 0.9996
vn 0.9537 -0.3008 0.0000
vn 0.0000 0.0000 1.0000
vn -1.0000 0.0000 0.0000
vn 0.0000 -0.3008 0.9537
vn -0.0000 0.0271 -0.9996
vn -0.9998 0.0181 -0.0000
vn -0.9537 -0.3008 0.0000
vn 0.9993 0.0361 0.0000
vn 0.3150 -0.5616 -0.7651
vn 0.1818 0.9596 -0.2146
usemtl Material
s off
f 12//1 14//1 1//1 2//1
f 4//2 2//2 10//2
f 8//3 3//3 11//3
f 3//4 9//4 11//4
f 2//5 1//5 3//5 8//5 10//5
f 15//6 13//6 6//6 7//6
f 14//7 15//7 7//7 5//7 1//7
f 1//8 5//8 9//8 3//8
f 13//9 12//9 2//9 4//9 6//9
f 9//10 5//10 7//10 6//10 4//10 10//10 8//10 11//10
f 15//11 14//11 12//11 13//11
