# Blender v2.78 (sub 0) OBJ File: ''
# www.blender.org
mtllib 5.mtl
o Cube.005
v 0.115505 0.123943 0.682979
v 0.021368 0.398504 0.641121
v -0.054896 0.398504 0.641121
v 0.021368 1.145723 0.135757
v -0.054896 1.145723 0.135757
v 0.021368 1.145723 -0.162760
v -0.054896 1.145723 -0.162760
v 0.054770 0.123943 0.682979
v 0.115505 0.061604 0.682979
v 0.115505 0.123943 0.622100
v 0.021368 0.398504 0.448333
v -0.054896 0.398504 0.524778
v -0.084556 0.293407 0.657144
v -0.054896 0.967524 -0.030912
v 0.021368 0.644533 0.208067
vn -0.0000 0.0000 1.0000
vn 1.0000 -0.0000 0.0000
vn -1.0000 0.0000 -0.0000
vn 0.0000 0.1507 0.9886
vn -0.9624 0.2716 0.0000
vn -0.0000 -0.5948 -0.8039
vn 0.0000 0.5602 0.8283
vn 0.9459 0.3243 0.0000
vn -0.5828 -0.5678 -0.5814
vn 0.0000 1.0000 0.0000
usemtl Material
s off
f 9//1 1//1 8//1
f 9//2 10//2 1//2
f 12//3 3//3 5//3 7//3 14//3
f 8//4 1//4 2//4 3//4 13//4
f 12//5 13//5 3//5
f 15//6 14//6 7//6 6//6
f 3//7 2//7 4//7 5//7
f 2//2 11//2 15//2 6//2 4//2
f 1//8 10//8 11//8 2//8
f 14//9 15//9 11//9 10//9 9//9 8//9 13//9 12//9
f 4//10 6//10 7//10 5//10
