# Blender v2.78 (sub 0) OBJ File: ''
# www.blender.org
mtllib 7.mtl
o Cube.006
v 0.021368 2.214962 -0.511963
v -0.054896 2.214962 -0.511963
v 0.021368 2.214962 -0.329315
v -0.054896 2.214962 -0.335353
v 0.021368 1.939169 -0.582276
v -0.054896 1.948286 -0.579952
v -0.051124 2.425952 -0.141531
v 0.017480 2.432430 -0.130159
vn 1.0000 0.0000 0.0000
vn -0.0000 0.2470 -0.9690
vn -1.0000 -0.0000 0.0000
vn 0.9998 0.0179 0.0000
vn -0.0000 0.8689 -0.4949
vn -0.9998 0.0179 0.0000
vn -0.0582 -0.6748 0.7357
usemtl Material
s off
f 3//1 5//1 1//1
f 5//2 6//2 2//2 1//2
f 6//3 4//3 2//3
f 3//4 1//4 8//4
f 1//5 2//5 7//5 8//5
f 2//6 4//6 7//6
f 8//7 7//7 4//7 6//7 5//7 3//7
