# Blender v2.78 (sub 0) OBJ File: ''
# www.blender.org
mtllib 3.mtl
o Cone
v 0.000000 -1.000000 -1.000000
v 0.195090 -1.000000 -0.980785
v -1.000000 -1.000000 -0.000001
v -0.980785 -1.000000 -0.195091
v -0.923879 -1.000000 -0.382684
v -0.831469 -1.000000 -0.555571
v -0.707106 -1.000000 -0.707108
v -0.555569 -1.000000 -0.831470
v -0.382682 -1.000000 -0.923880
v -0.195089 -1.000000 -0.980786
v 0.085779 0.551700 -0.207088
v 0.043116 0.557990 -0.216759
v 0.000000 0.571214 -0.214393
v -0.040022 0.589710 -0.201203
v -0.074343 0.611461 -0.179482
v -0.101520 0.634538 -0.151936
v -0.121138 0.657370 -0.121138
v -0.133515 0.678845 -0.089212
v 0.178326 0.643348 -0.000000
v -0.139380 0.698271 -0.057733
v -0.139620 0.715288 -0.027772
v -0.135120 0.729760 -0.000000
v -0.126675 0.741688 0.025197
v -0.114958 0.751142 0.047617
v -0.100517 0.758219 0.067163
v -0.083788 0.763013 0.083788
v -0.065114 0.765595 0.097450
v -0.044773 0.766007 0.108091
v -0.022996 0.764256 0.115607
v -0.000000 0.760313 0.119844
v 0.023985 0.754117 0.120579
v 0.048681 0.745581 0.117526
v 0.073722 0.734608 0.110333
v 0.098602 0.721112 0.098602
v 0.122617 0.705059 0.081930
v 0.144807 0.686524 0.059981
v 0.163904 0.665770 0.032603
v 0.186249 0.620204 -0.037047
v 0.185822 0.597735 -0.076970
v 0.175542 0.577756 -0.117293
v 0.154752 0.562294 -0.154752
v 0.124113 0.553204 -0.185749
v 0.347982 -0.818641 -0.840103
v 0.315533 -1.000000 -0.944249
v 0.337586 0.324829 -0.000000
v -0.940774 -0.918410 0.187131
v -0.686530 -0.486188 0.284369
v -0.498204 -0.198368 0.332888
v -0.353599 -0.000128 0.353598
v -0.238910 0.139946 0.357554
v -0.145314 0.240553 0.350819
v -0.066994 0.313207 0.336798
v -0.000000 0.365179 0.317410
v 0.058418 0.401120 0.293686
v 0.110219 0.423969 0.266092
v 0.156816 0.435476 0.234692
v 0.199232 0.436487 0.199232
v 0.238185 0.427075 0.159150
v -0.983795 -1.000000 0.164532
v 0.274137 0.406552 0.113551
v 0.307299 0.373362 0.061125
v 0.364511 0.256695 -0.072506
v 0.386966 0.162301 -0.160287
v 0.402789 0.031140 -0.269135
v 0.407913 -0.153753 -0.407913
v 0.394642 -0.420675 -0.590624
vn 0.5680 0.4455 -0.6921
vn 0.6921 0.4455 -0.5680
vn 0.7896 0.4455 -0.4220
vn 0.8567 0.4455 -0.2599
vn 0.8567 0.4455 0.2599
vn 0.7896 0.4455 0.4220
vn 0.6921 0.4455 0.5680
vn 0.5680 0.4455 0.6921
vn 0.4220 0.4455 0.7896
vn 0.2599 0.4455 0.8567
vn 0.0878 0.4455 0.8910
vn -0.0878 0.4455 0.8910
vn -0.2599 0.4455 0.8567
vn -0.4220 0.4455 0.7896
vn -0.5680 0.4455 0.6921
vn -0.6921 0.4455 0.5680
vn -0.7896 0.4455 0.4220
vn -0.8567 0.4455 0.2599
vn -0.8910 0.4455 0.0878
vn -0.8910 0.4455 -0.0878
vn -0.8567 0.4455 -0.2599
vn 0.8910 0.4455 -0.0878
vn 0.8910 0.4455 0.0878
vn -0.7896 0.4455 -0.4220
vn -0.6921 0.4455 -0.5680
vn -0.5680 0.4455 -0.6921
vn -0.4220 0.4455 -0.7896
vn -0.2599 0.4455 -0.8567
vn -0.0878 0.4455 -0.8910
vn 0.0878 0.4455 -0.8910
vn 0.4220 0.4455 -0.7896
vn 0.2333 0.8463 -0.4788
vn 0.0000 -1.0000 -0.0000
vn 0.2599 0.4455 -0.8567
vn 0.5681 -0.4839 0.6657
usemtl None
s off
f 66//1 42//1 41//1 65//1
f 65//2 41//2 40//2 64//2
f 64//3 40//3 39//3 63//3
f 63//4 39//4 38//4 62//4
f 61//5 37//5 36//5 60//5
f 60//6 36//6 35//6 58//6
f 58//7 35//7 34//7 57//7
f 57//8 34//8 33//8 56//8
f 56//9 33//9 32//9 55//9
f 55//10 32//10 31//10 54//10
f 54//11 31//11 30//11 53//11
f 53//12 30//12 29//12 52//12
f 52//13 29//13 28//13 51//13
f 51//14 28//14 27//14 50//14
f 50//15 27//15 26//15 49//15
f 49//16 26//16 25//16 48//16
f 48//17 25//17 24//17 47//17
f 47//18 24//18 23//18 46//18
f 46//19 23//19 22//19 3//19 59//19
f 3//20 22//20 21//20 4//20
f 4//21 21//21 20//21 5//21
f 62//22 38//22 19//22 45//22
f 45//23 19//23 37//23 61//23
f 5//24 20//24 18//24 6//24
f 6//25 18//25 17//25 7//25
f 7//26 17//26 16//26 8//26
f 8//27 16//27 15//27 9//27
f 9//28 15//28 14//28 10//28
f 10//29 14//29 13//29 1//29
f 1//30 13//30 12//30 2//30
f 43//31 11//31 42//31 66//31
f 42//32 11//32 12//32 13//32 14//32 15//32 16//32 17//32 18//32 20//32 21//32 22//32 23//32 24//32 25//32 26//32 27//32 28//32 29//32 30//32 31//32 32//32 33//32 34//32 35//32 36//32 37//32 19//32 38//32 39//32 40//32 41//32
f 1//33 2//33 44//33 59//33 3//33 4//33 5//33 6//33 7//33 8//33 9//33 10//33
f 2//34 12//34 11//34 43//34 44//34
f 66//35 65//35 64//35 63//35 62//35 45//35 61//35 60//35 58//35 57//35 56//35 55//35 54//35 53//35 52//35 51//35 50//35 49//35 48//35 47//35 46//35 59//35 44//35 43//35
