# Blender v2.78 (sub 0) OBJ File: ''
# www.blender.org
mtllib 4.mtl
o Cone.002
v 0.085779 0.781296 -0.554135
v 0.043116 0.787586 -0.563806
v 0.000000 0.800810 -0.561440
v -0.040022 0.819306 -0.548250
v 0.178326 0.872944 -0.347047
v 0.163904 0.895366 -0.314444
v 0.186249 0.849800 -0.384094
v 0.185822 0.827331 -0.424017
v 0.175542 0.807352 -0.464340
v 0.154752 0.791890 -0.501799
v 0.124113 0.782800 -0.532795
v 0.000000 0.902365 -0.510663
v 0.049945 0.968569 -0.467626
v 0.028014 0.942402 -0.487885
v -0.037965 0.840385 -0.537913
v 0.130966 0.967663 -0.347047
v 0.141523 0.941005 -0.318896
v 0.120178 0.984530 -0.370952
v 0.108863 0.993931 -0.392140
v 0.096686 0.997030 -0.411650
v 0.083229 0.994189 -0.430276
v 0.067924 0.985077 -0.448702
v 0.149271 0.911268 -0.293466
v -0.047137 0.823815 -0.543747
vn -0.2599 0.4455 -0.8567
vn -0.2333 -0.8463 0.4788
vn 0.5680 0.4455 -0.6921
vn 0.6921 0.4455 -0.5680
vn 0.7896 0.4455 -0.4220
vn 0.8567 0.4455 -0.2599
vn 0.8567 0.4455 0.2599
vn 0.8910 0.4455 -0.0878
vn 0.8910 0.4455 0.0878
vn 0.2599 0.4455 -0.8567
vn 0.4220 0.4455 -0.7896
vn 0.0878 0.4455 -0.8910
vn -0.0878 0.4455 -0.8910
vn -0.8020 0.2535 0.5408
usemtl None
s off
f 24//1 15//1 4//1
f 11//2 10//2 9//2 8//2 7//2 5//2 6//2 23//2 24//2 4//2 3//2 2//2 1//2
f 11//3 22//3 21//3 10//3
f 10//4 21//4 20//4 9//4
f 9//5 20//5 19//5 8//5
f 8//6 19//6 18//6 7//6
f 6//7 17//7 23//7
f 7//8 18//8 16//8 5//8
f 5//9 16//9 17//9 6//9
f 2//10 14//10 13//10 1//10
f 1//11 13//11 22//11 11//11
f 3//12 12//12 14//12 2//12
f 4//13 15//13 12//13 3//13
f 23//14 17//14 16//14 18//14 19//14 20//14 21//14 22//14 13//14 14//14 12//14 15//14 24//14
