# Blender v2.78 (sub 0) OBJ File: 'full.blend'
# www.blender.org
mtllib 1.mtl
o Cube
v 0.195349 1.467374 0.577623
v 0.195349 1.465888 0.785921
v -0.049976 1.473158 0.547925
v -0.013870 1.471671 0.785921
v -0.231905 1.501637 0.764364
v 0.289235 1.374401 0.594407
v 0.289235 1.374401 0.764365
v 0.172847 1.426636 0.481447
v -0.049734 1.426636 0.481447
v 0.172846 1.393934 0.982322
v 0.002889 1.393934 0.982322
v 0.190613 1.601869 0.587766
v 0.190613 1.601869 0.771006
v 0.007373 1.601869 0.587766
v 0.007373 1.601869 0.771005
v -0.113787 1.441260 0.529334
v -0.206707 1.460869 0.583522
v 0.388007 1.371136 0.303250
v 0.218049 1.371136 0.303250
v 0.002889 1.426636 0.251111
v 0.218049 1.371136 0.072914
v -0.050217 1.444723 0.796882
v -0.210462 1.466746 0.781039
v -0.046074 1.424008 0.804586
v -0.034451 1.370095 0.940796
v 0.115908 1.350761 0.982310
v 0.014775 1.350761 0.982310
v 0.143240 1.477460 0.834175
v 0.036827 1.480401 0.834175
v 0.131795 1.440863 0.934068
v 0.045351 1.440863 0.934068
v 0.185458 1.405162 0.810151
v 0.171908 1.361836 0.928414
v 0.182327 1.421455 0.784709
v 0.250525 1.355000 0.769051
v 0.276587 1.333963 0.626640
v 0.209750 1.463372 0.609208
v 0.209750 1.462342 0.753604
v 0.274833 1.398922 0.620843
v 0.274833 1.398922 0.738661
v 0.179407 1.412730 0.581027
v 0.241846 1.350898 0.592189
v 0.195425 1.377319 0.460932
v 0.331613 1.342190 0.348140
v 0.158633 1.490405 0.554861
v -0.004440 1.494250 0.535121
v 0.155485 1.579807 0.561603
v 0.033681 1.579807 0.561603
v 0.204137 1.489017 0.610942
v 0.204137 1.488011 0.751830
v 0.200933 1.579986 0.617802
v 0.200933 1.579986 0.741742
v 0.146059 1.619956 0.632320
v 0.146059 1.619956 0.726451
v 0.051927 1.619956 0.632320
v 0.051927 1.619956 0.726451
v -0.027777 1.499510 0.737971
v -0.048529 1.500364 0.601174
v -0.015566 1.574346 0.729398
v -0.015566 1.574346 0.624074
v -0.048184 1.499359 0.753141
v -0.073794 1.500413 0.584328
v -0.202839 1.520614 0.737851
v -0.202839 1.520614 0.617298
v 0.139471 1.459128 0.542472
v 0.001052 1.462391 0.525716
v 0.126774 1.436142 0.488207
v 0.001189 1.436142 0.488207
v 0.176908 1.426467 0.443134
v 0.050039 1.426467 0.443134
v 0.299548 1.394832 0.341563
v 0.202674 1.394832 0.341563
v 0.003356 1.444521 0.407700
v 0.174460 1.409058 0.293838
v 0.036980 1.444521 0.260523
v 0.174460 1.409058 0.146661
v -0.085446 1.388598 0.452204
v -0.051599 1.388598 0.304049
v 0.013883 1.370160 0.227618
v 0.138607 1.337988 0.124321
v 0.232554 1.338756 0.283071
v 0.232554 1.338756 0.122692
v 0.340276 1.334944 0.299895
v 0.228013 1.334944 0.299895
v -0.231905 1.501637 0.644552
v -0.242178 1.452790 0.752194
v -0.222232 1.500123 0.591935
v -0.210824 1.441294 0.588399
v -0.189182 1.297036 0.615192
v -0.217612 1.478512 0.588233
v -0.247064 1.482480 0.749095
v -0.229392 1.376736 0.758612
v -0.224800 1.506276 0.600002
v 0.081137 1.321537 0.738764
v -0.056891 1.310433 0.733247
v 0.067966 1.306376 0.609454
v -0.072111 1.295123 0.603990
v 0.257868 1.336756 0.754985
v 0.243557 1.319581 0.608066
v 0.073031 1.297161 0.521772
v -0.088263 1.285296 0.525468
v 0.139916 1.351219 0.969018
v -0.012017 1.339254 0.965291
v -0.104655 1.291711 0.595443
v 0.329569 1.295334 0.326858
v 0.194681 1.285411 0.329949
v -0.041349 1.264359 0.301653
v 0.187896 1.260524 0.107364
v -0.086062 1.310376 0.752993
v -0.075737 1.312834 0.768267
v -0.044612 1.332821 0.929187
v 0.012581 1.342714 0.979803
v 0.126056 1.330084 0.785625
v 0.161177 1.347916 0.924078
v 0.106018 1.325010 0.753202
v 0.234708 1.336017 0.764321
v 0.276587 1.333963 0.716468
v 0.268085 1.323759 0.629182
v 0.277190 1.335892 0.733670
v 0.096300 1.307693 0.601794
v 0.213159 1.316470 0.600768
v 0.134168 1.297860 0.485680
v 0.296546 1.296703 0.362307
v -0.115336 1.278954 0.486352
v -0.085159 1.265487 0.342392
v -0.015629 1.261901 0.261335
v 0.117259 1.259678 0.148711
v 0.217598 1.283893 0.300159
v 0.212874 1.266564 0.145176
v 0.307281 1.292146 0.313224
v 0.214486 1.285320 0.315350
v -0.166152 1.288940 0.612856
v -0.212066 1.299462 0.740858
v -0.188451 1.288059 0.620308
vn -0.9075 0.1909 0.3741
vn -0.9801 0.1960 0.0314
vn 0.0901 -0.0881 -0.9920
vn 0.2537 0.9673 0.0069
vn -0.6602 0.7358 -0.1508
vn 0.0000 0.5795 -0.8150
vn 0.7057 -0.3587 -0.6110
vn 0.0270 0.9783 -0.2054
vn -0.0000 0.9266 0.3761
vn 0.5617 0.0819 -0.8233
vn 0.0016 0.1113 0.9938
vn 0.9560 0.0554 -0.2881
vn -0.2302 0.4737 -0.8501
vn -0.5262 -0.0998 -0.8445
vn -0.5913 -0.0885 -0.8016
vn 0.0000 0.8505 -0.5260
vn -0.5912 0.2089 -0.7790
vn -0.4403 0.8922 -0.1006
vn -0.6856 -0.0369 0.7270
vn 0.5173 -0.3873 0.7631
vn -0.0330 0.4144 0.9095
vn -0.7417 -0.0067 0.6707
vn -0.7296 0.6122 0.3046
vn 0.0000 -0.2974 0.9548
vn 0.0000 -0.0003 1.0000
vn 0.4138 -0.5459 0.7286
vn 0.0143 0.9343 0.3563
vn -0.0000 0.7169 0.6972
vn -0.4789 0.8015 0.3581
vn 0.4986 0.7939 0.3480
vn 0.7986 -0.5886 -0.1256
vn 0.9887 -0.1357 0.0636
vn 0.3403 -0.4844 0.8059
vn 0.1556 -0.0725 0.9852
vn 0.7683 -0.6401 0.0000
vn 0.5729 -0.6129 -0.5442
vn 0.7008 0.7133 0.0028
vn 0.7047 0.6689 -0.2366
vn 0.7051 0.6668 0.2411
vn 0.8623 0.5064 0.0000
vn -0.0045 -0.2024 -0.9793
vn -0.2616 0.0162 -0.9650
vn 0.6326 -0.0323 0.7738
vn 0.6855 -0.3257 0.6512
vn 0.0704 0.1725 -0.9825
vn 0.0781 -0.6351 -0.7685
vn -0.4248 0.4350 -0.7939
vn 0.0000 0.7645 -0.6447
vn 0.9994 0.0350 0.0001
vn 0.9279 -0.3727 -0.0027
vn 0.9045 0.4266 0.0000
vn 0.9553 0.0649 0.2884
vn 0.0000 1.0000 0.0000
vn 0.3761 0.9266 -0.0000
vn -0.3761 0.9266 0.0000
vn 0.0000 0.9266 -0.3761
vn -0.9558 0.2821 0.0829
vn -0.9620 -0.2317 0.1445
vn -0.8683 0.4509 -0.2068
vn -0.7682 0.6402 -0.0000
vn 0.1440 0.9895 -0.0091
vn -0.5467 0.8373 0.0000
vn 0.6803 0.7263 -0.0987
vn 0.0473 0.7870 0.6152
vn 0.0411 0.8781 -0.4767
vn 0.0609 0.9459 -0.3187
vn 0.1258 0.9026 -0.4117
vn -0.0766 0.8168 -0.5719
vn 0.0000 0.9548 -0.2974
vn 0.2684 0.9630 0.0242
vn -0.2196 0.7878 -0.5754
vn 0.0000 1.0000 -0.0044
vn 0.2434 0.9695 0.0278
vn -0.2592 0.7880 -0.5584
vn 0.4923 0.6957 0.5231
vn 0.6564 0.7544 0.0000
vn -0.9566 0.1927 -0.2185
vn -0.7915 0.3678 0.4882
vn -0.6459 -0.0609 -0.7610
vn -0.8398 0.0609 -0.5395
vn 0.9126 0.4088 0.0000
vn 0.8024 -0.3656 -0.4716
vn 0.0000 -0.2974 -0.9548
vn 0.0000 0.0923 -0.9957
vn -0.1000 -0.2537 0.9621
vn -0.3925 -0.3029 -0.8684
vn -0.0329 0.7896 -0.6127
vn -0.2580 -0.4941 -0.8302
vn -0.6605 -0.0478 0.7493
vn -0.7842 0.6205 0.0000
vn -0.9688 -0.1775 -0.1730
vn 0.9648 -0.2630 0.0000
vn 0.5902 -0.2124 0.7788
vn 0.9544 -0.2985 0.0000
vn -0.0514 -0.2615 0.9638
vn -0.9649 0.2064 0.1624
vn -0.4997 -0.1305 -0.8563
vn -0.6809 -0.0421 -0.7311
vn 0.7917 -0.0257 0.6104
vn 0.4844 -0.5780 -0.6567
vn -0.4893 -0.1350 0.8616
vn 0.6777 -0.6369 0.3674
vn 0.5055 -0.1238 0.8539
vn 0.2522 -0.4266 -0.8686
vn 0.5729 -0.6129 0.5442
vn 0.3678 -0.3377 -0.8664
vn 0.7951 -0.6001 0.0876
vn -0.8087 0.3662 -0.4603
vn -0.5110 0.1266 0.8502
vn 0.0754 -0.9912 0.1085
usemtl Material
s off
f 4//1 15//1 59//1 57//1
f 97//2 3//2 9//2 101//2
f 1//3 6//3 42//3 41//3
f 1//4 2//4 38//4 37//4
f 9//5 20//5 78//5 77//5
f 8//6 9//6 68//6 67//6
f 94//7 2//7 32//7 113//7
f 2//8 4//8 29//8 28//8
f 15//9 13//9 54//9 56//9
f 12//10 1//10 45//10 47//10
f 4//11 2//11 13//11 15//11
f 1//12 12//12 51//12 49//12
f 87//13 3//13 16//13 17//13 90//13
f 88//14 90//14 17//14
f 106//15 19//15 84//15 131//15
f 18//16 19//16 72//16 71//16
f 20//17 21//17 80//17 79//17
f 20//18 9//18 73//18 75//18
f 86//19 5//19 91//19
f 95//20 4//20 22//20 109//20
f 4//21 5//21 23//21 22//21
f 103//22 11//22 25//22 111//22
f 11//23 4//23 24//23 25//23
f 112//24 26//24 27//24
f 10//25 11//25 27//25 26//25
f 102//26 10//26 26//26
f 28//27 29//27 31//27 30//27
f 11//28 10//28 30//28 31//28
f 4//29 11//29 31//29 29//29
f 10//30 2//30 28//30 30//30
f 113//31 32//31 33//31 114//31
f 2//32 10//32 33//32 32//32
f 98//33 7//33 35//33 116//33
f 7//34 2//34 34//34 35//34
f 117//35 118//35 36//35
f 99//36 6//36 36//36 118//36
f 37//37 38//37 40//37 39//37
f 6//38 1//38 37//38 39//38
f 2//39 7//39 40//39 38//39
f 7//40 6//40 39//40 40//40
f 120//41 41//41 42//41 121//41
f 96//42 1//42 41//42 120//42
f 18//43 8//43 43//43 44//43
f 105//44 18//44 44//44 123//44
f 45//45 46//45 48//45 47//45
f 1//46 3//46 46//46 45//46
f 3//47 14//47 48//47 46//47
f 14//48 12//48 47//48 48//48
f 50//49 49//49 51//49 52//49
f 2//50 1//50 49//50 50//50
f 12//51 13//51 52//51 51//51
f 13//52 2//52 50//52 52//52
f 53//53 55//53 56//53 54//53
f 13//54 12//54 53//54 54//54
f 14//55 15//55 56//55 55//55
f 12//56 14//56 55//56 53//56
f 58//57 57//57 59//57 60//57
f 3//58 4//58 57//58 58//58
f 14//59 3//59 58//59 60//59
f 15//60 14//60 60//60 59//60
f 61//61 62//61 64//61 63//61
f 85//62 5//62 63//62 64//62 93//62
f 4//63 3//63 62//63 61//63
f 5//64 4//64 61//64 63//64
f 66//65 65//65 67//65 68//65
f 3//66 1//66 65//66 66//66
f 1//67 8//67 67//67 65//67
f 9//68 3//68 66//68 68//68
f 70//69 69//69 71//69 72//69
f 8//70 18//70 71//70 69//70
f 19//71 9//71 70//71 72//71
f 9//72 8//72 69//72 70//72
f 73//73 74//73 76//73 75//73
f 21//74 20//74 75//74 76//74
f 9//75 19//75 74//75 73//75
f 19//76 21//76 76//76 74//76
f 124//77 77//77 78//77 125//77
f 101//78 9//78 77//78 124//78
f 126//79 79//79 80//79 127//79
f 107//80 20//80 79//80 126//80
f 21//81 19//81 81//81 82//81
f 108//82 21//82 82//82 129//82
f 130//83 131//83 84//83 83//83
f 19//84 18//84 83//84 84//84
f 109//85 22//85 23//85 92//85 133//85
f 132//86 89//86 88//86 17//86 16//86 104//86
f 3//87 87//87 93//87 64//87 62//87
f 132//88 134//88 89//88
f 5//89 86//89 92//89 23//89
f 5//90 85//90 91//90
f 133//91 92//91 86//91 91//91 85//91 93//91 87//91 90//91 88//91 89//91 134//91
f 81//92 128//92 129//92 82//92
f 43//93 122//93 123//93 44//93
f 6//94 7//94 119//94 117//94 36//94
f 34//95 115//95 116//95 35//95
f 24//96 110//96 111//96 25//96
f 21//97 108//97 127//97 80//97
f 20//98 107//98 125//98 78//98
f 19//99 106//99 128//99 81//99
f 18//100 105//100 130//100 83//100
f 11//101 103//101 112//101 27//101
f 10//102 102//102 114//102 33//102
f 8//103 100//103 122//103 43//103
f 6//104 99//104 121//104 42//104
f 7//105 98//105 119//105
f 3//106 97//106 104//106 16//106
f 1//107 96//107 100//107 8//107
f 4//108 95//108 110//108 24//108
f 2//109 94//109 115//109 34//109
f 133//110 134//110 132//110 104//110 97//110 101//110 124//110 125//110 107//110 126//110 127//110 108//110 129//110 128//110 106//110 131//110 130//110 105//110 123//110 122//110 100//110 96//110 120//110 121//110 99//110 118//110 117//110 119//110 98//110 116//110 115//110 94//110 113//110 114//110 102//110 26//110 112//110 103//110 111//110 110//110 95//110 109//110
