# Blender v2.78 (sub 0) OBJ File: 'full.blend'
# www.blender.org
mtllib 10.mtl
o Cube.004
v -0.405765 0.584102 -0.128833
v -0.370757 0.592614 -0.093825
v -0.321867 0.397126 -0.044935
v 0.050579 0.373500 -0.034334
v -0.006683 0.584102 -0.128833
v -0.045768 0.592614 -0.093825
v 0.080715 0.433983 -0.061473
v 0.084693 0.369380 0.005777
v -0.405765 0.584102 -0.006790
v -0.370757 0.592614 -0.014690
v -0.301800 0.595020 -0.020354
v -0.317995 0.388497 0.122947
v -0.014596 0.369923 0.118132
v -0.102383 0.594649 -0.031678
vn -0.9124 -0.4094 0.0000
vn 0.0000 0.9717 -0.2363
vn 0.6037 -0.5568 -0.5706
vn 0.0000 -0.4094 -0.9124
vn 0.6056 0.5915 0.5323
vn -0.0618 -0.9968 -0.0498
vn 0.0000 0.9995 -0.0327
vn -0.0349 0.9994 0.0000
vn 0.0478 0.5669 0.8224
vn -0.2363 0.9717 -0.0000
usemtl Material
s off
f 12//1 9//1 1//1 3//1
f 5//2 1//2 2//2 6//2
f 7//3 8//3 4//3
f 7//4 4//4 3//4 1//4 5//4
f 13//5 8//5 7//5 5//5 6//5 14//5
f 4//6 8//6 13//6 12//6 3//6
f 6//7 2//7 11//7 14//7
f 2//8 10//8 11//8
f 14//9 11//9 10//9 9//9 12//9 13//9
f 1//10 9//10 10//10 2//10
