# Blender v2.78 (sub 0) OBJ File: 'full.blend'
# www.blender.org
mtllib 11.mtl
o Cube.002
v 0.197995 0.139826 0.027483
v 0.197995 0.139826 0.319974
v -0.078478 0.139826 0.027483
v 0.407319 0.606327 0.086199
v 0.372311 0.614838 0.040857
v 0.276785 0.315418 -0.051307
v 0.407319 0.606327 0.029146
v 0.372311 0.614838 0.023604
v 0.352935 0.615436 0.019775
v 0.045908 0.389468 -0.084534
vn 0.0000 -0.4094 -0.9124
vn 0.0000 -1.0000 0.0000
vn -0.6037 0.5568 0.5706
vn 0.0308 0.9995 0.0000
vn 0.2363 0.9717 0.0000
vn 0.9124 -0.4094 0.0000
vn 0.1961 0.1787 -0.9642
usemtl Material
s off
f 6//1 1//1 3//1 10//1
f 1//2 2//2 3//2
f 9//3 10//3 3//3 2//3 4//3 5//3
f 5//4 8//4 9//4
f 4//5 7//5 8//5 5//5
f 1//6 6//6 7//6 4//6 2//6
f 9//7 8//7 7//7 6//7 10//7
