# Blender v2.78 (sub 0) OBJ File: 'full.blend'
# www.blender.org
mtllib 2.mtl
o Cube.010
v -0.270424 0.793041 0.285853
v -0.270424 0.793041 0.337589
v -0.322159 0.793041 0.337589
v -0.295589 1.169050 0.711237
v -0.295589 1.169050 0.647534
v -0.250745 1.382276 0.594407
v -0.256424 1.194692 0.620103
v -0.308286 1.203305 0.701003
v -0.308286 1.203305 0.657768
v -0.277850 1.348021 0.737060
v -0.277850 1.348021 0.621711
v -0.262260 1.190674 0.741993
v -0.159836 0.658129 0.338943
v -0.051250 0.644771 0.246564
v -0.064937 0.654030 0.338984
v -0.276065 0.793041 0.285853
v -0.310349 0.809405 0.304054
v -0.078604 0.645984 0.246885
v -0.157944 0.656557 0.323051
v -0.162965 1.013605 0.531184
v -0.140201 0.952396 0.466501
v -0.147815 0.942340 0.519456
v -0.170772 1.001773 0.587047
v -0.250745 1.382276 0.644552
v -0.261018 1.333429 0.752194
v -0.204718 1.137102 0.638315
v -0.241072 1.380762 0.591935
v -0.217905 1.141147 0.708015
v -0.229664 1.321933 0.588399
v -0.208021 1.177675 0.615192
v -0.236452 1.359151 0.588233
v -0.265903 1.363119 0.749095
v -0.248232 1.257375 0.758612
v -0.230738 1.179352 0.740686
v -0.243639 1.386915 0.600002
vn -0.6392 -0.7691 -0.0000
vn 0.0000 0.0100 0.9999
vn 0.5603 0.8283 0.0000
vn -0.6856 -0.0369 -0.7270
vn -0.0329 0.7896 -0.6128
vn -0.3349 -0.9422 -0.0045
vn -0.2580 -0.4941 -0.8302
vn -0.1697 -0.2045 -0.9640
vn -0.9786 0.2058 -0.0000
vn -0.7842 0.6205 -0.0000
vn -0.9377 -0.3476 -0.0000
vn -0.0434 -0.2329 0.9715
vn -0.6605 -0.0478 0.7493
vn -0.0430 -0.9947 0.0933
vn -0.0000 0.2561 -0.9666
vn -0.5757 -0.6376 -0.5119
vn -0.5262 -0.0998 -0.8445
vn -0.2133 -0.6753 0.7060
vn -0.2287 0.1167 -0.9665
vn -0.6856 -0.0369 0.7270
vn -0.5467 0.8373 0.0000
vn -0.0216 -0.7625 0.6466
vn 0.7760 -0.6308 -0.0042
vn -0.8130 0.5822 0.0052
vn 0.0227 0.7385 -0.6739
vn 0.9688 0.1775 0.1730
usemtl Material
s off
f 19//1 13//1 3//1
f 13//2 15//2 2//2 3//2
f 15//3 14//3 1//3 2//3
f 6//4 5//4 9//4 11//4
f 27//5 6//5 35//5
f 26//6 28//6 4//6 5//6
f 26//7 5//7 7//7 30//7
f 30//8 7//8 29//8
f 9//9 8//9 10//9 11//9
f 24//10 6//10 11//10 10//10 32//10
f 5//11 4//11 8//11 9//11
f 34//12 33//12 12//12
f 25//13 4//13 12//13 33//13
f 14//14 15//14 13//14 19//14 18//14
f 14//15 18//15 16//15 1//15
f 19//16 3//16 17//16 16//16 18//16
f 5//17 6//17 31//17 29//17 7//17
f 4//18 28//18 34//18 12//18
f 6//19 27//19 31//19
f 4//20 25//20 32//20 10//20 8//20
f 6//21 24//21 35//21
f 3//22 2//22 22//22 23//22
f 2//23 1//23 21//23 22//23
f 3//24 23//24 20//24 17//24
f 1//25 16//25 17//25 20//25 21//25
f 22//26 21//26 20//26 23//26
f 34//26 28//26 26//26 30//26 29//26 31//26 27//26 35//26 24//26 32//26 25//26 33//26
