# Blender v2.78 (sub 0) OBJ File: 'full.blend'
# www.blender.org
mtllib 3.mtl
o Cube.011
v -0.005142 1.094615 0.627723
v -0.005142 1.093129 0.703140
v -0.081481 1.100399 0.627723
v -0.081481 1.098912 0.703140
v 0.111571 1.041814 0.647535
v 0.111571 1.041814 0.711237
v 0.008465 1.094049 0.547857
v -0.107860 1.094049 0.547857
v 0.008464 1.061347 0.915912
v -0.055238 1.061347 0.915912
v -0.103133 1.147423 0.606462
v 0.223625 1.038549 0.369659
v 0.159923 1.038549 0.369659
v -0.055237 1.094049 0.317521
v 0.159923 1.038549 0.139324
v -0.099907 1.139127 0.736042
v -0.092963 1.128908 0.747174
v -0.074763 1.102855 0.894739
v 0.018093 1.104520 0.942793
v -0.019813 1.104520 0.942793
v 0.115908 1.231400 0.982310
v 0.064733 1.133219 0.760305
v 0.072926 1.114081 0.888425
v 0.036690 1.118026 0.724577
v 0.121470 1.080752 0.730459
v 0.166311 1.082253 0.659616
v 0.166311 1.082253 0.699156
v 0.276587 1.214602 0.732132
v 0.046070 1.124846 0.614346
v 0.123690 1.089731 0.627522
v 0.091378 1.122995 0.502966
v 0.227566 1.087865 0.390175
v -0.122834 1.132087 0.494919
v -0.088987 1.132087 0.346764
v -0.019811 1.127197 0.266114
v 0.104912 1.095025 0.162817
v 0.192081 1.070929 0.329312
v 0.192081 1.070929 0.168932
v 0.231696 1.074741 0.343760
v 0.189619 1.074741 0.343760
v 0.115416 0.998999 0.360050
v -0.053654 1.034041 0.472558
v 0.115416 0.998999 0.214622
v -0.020430 1.034041 0.327131
v -0.144125 1.013605 0.531184
v -0.121362 0.952396 0.466501
v -0.128975 0.942340 0.519456
v -0.151933 1.001773 0.587047
v -0.185878 1.137102 0.638315
v -0.199065 1.141147 0.708015
v -0.211898 1.179352 0.740686
v 0.081137 1.202176 0.738764
v -0.056891 1.191072 0.733247
v 0.067966 1.187015 0.609454
v -0.072111 1.175761 0.603990
v 0.257868 1.217395 0.754985
v 0.243557 1.200220 0.608066
v 0.073031 1.177800 0.521772
v -0.088263 1.165935 0.525468
v 0.139916 1.231858 0.969018
v -0.012017 1.219893 0.965291
v -0.104655 1.172350 0.595443
v 0.329569 1.175973 0.326858
v 0.194681 1.166050 0.329949
v -0.041349 1.144998 0.301653
v 0.187896 1.141163 0.107364
v -0.086062 1.191015 0.752993
v -0.075737 1.193473 0.768267
v -0.044612 1.213460 0.929187
v 0.012581 1.223353 0.979803
v 0.126056 1.210723 0.785625
v 0.161177 1.228555 0.924078
v 0.106018 1.205649 0.753202
v 0.234708 1.216656 0.764321
v 0.276587 1.214602 0.716468
v 0.268085 1.204398 0.629182
v 0.277190 1.216531 0.733670
v 0.096300 1.188332 0.601794
v 0.213159 1.197109 0.600768
v 0.134168 1.178499 0.485680
v 0.296546 1.177342 0.362307
v -0.115336 1.159593 0.486352
v -0.085159 1.146126 0.342392
v -0.015629 1.142540 0.261335
v 0.117259 1.140317 0.148711
v 0.217598 1.164532 0.300159
v 0.212874 1.147203 0.145176
v 0.307281 1.172785 0.313224
v 0.214486 1.165959 0.315350
v -0.166152 1.169579 0.612856
v -0.212066 1.180101 0.740858
v -0.188451 1.168698 0.620308
vn -0.0408 -0.9868 -0.1570
vn -0.0491 -0.7538 0.6552
vn 0.7793 -0.6266 -0.0101
vn -0.8157 0.5785 0.0102
vn -0.4064 -0.9137 -0.0098
vn 0.2329 -0.3346 -0.9131
vn -0.2133 -0.6753 0.7060
vn 0.5729 -0.6129 0.5442
vn -0.5110 0.1266 0.8502
vn 0.7967 -0.5916 0.1233
vn -0.0300 -0.9985 0.0456
vn -0.4893 -0.1350 0.8616
vn -0.9119 -0.4084 0.0404
vn 0.5055 -0.1238 0.8539
vn -0.0000 -0.9548 0.2974
vn 0.6643 -0.7475 0.0000
vn 0.7917 -0.0257 0.6104
vn -0.9646 0.2107 0.1584
vn -0.8087 0.3662 -0.4603
vn 0.0000 -0.5286 0.8489
vn 0.5846 -0.7961 -0.1563
vn 0.6777 -0.6369 0.3674
vn -0.1012 -0.1903 0.9765
vn -0.2305 -0.3830 0.8945
vn 0.5942 -0.8043 0.0000
vn 0.9544 -0.2985 0.0000
vn -0.0159 -0.3819 -0.9241
vn 0.2522 -0.4266 -0.8686
vn 0.5902 -0.2124 0.7788
vn 0.5383 -0.3600 0.7620
vn -0.6809 -0.0421 -0.7311
vn -0.8010 -0.5700 -0.1830
vn -0.6492 -0.3519 -0.6743
vn -0.4997 -0.1305 -0.8563
vn 0.9648 -0.2630 0.0000
vn 0.7095 -0.7047 0.0000
vn 0.4844 -0.5780 -0.6567
vn 0.0000 -0.5819 -0.8132
vn -0.2434 -0.9695 -0.0278
vn -0.8355 -0.5152 -0.1909
vn -0.6326 -0.4660 -0.6186
vn 0.3623 -0.5842 0.7263
vn 0.0483 0.7298 -0.6819
vn -0.3359 -0.9418 -0.0139
vn -0.9688 -0.1775 -0.1730
vn -0.2580 -0.4941 -0.8302
vn 0.0000 -0.2974 -0.9548
vn -0.6459 -0.0609 -0.7610
vn -0.9566 0.1927 -0.2185
vn 0.0273 -0.2453 -0.9691
vn 0.7683 -0.6401 -0.0000
vn 0.8019 -0.5825 -0.1331
vn -0.0000 -0.2974 0.9548
vn -0.0661 -0.2931 0.9538
vn 0.8024 -0.3656 -0.4716
vn -0.8398 0.0609 -0.5395
vn -0.5913 -0.0885 -0.8016
vn 0.6855 -0.3257 0.6512
vn -0.2321 -0.4051 -0.8843
vn -0.7417 -0.0067 0.6707
vn 0.4138 -0.5459 0.7286
vn -0.7915 0.3678 0.4882
vn 0.5729 -0.6129 -0.5442
vn 0.3403 -0.4844 0.8059
vn -0.9399 0.2558 0.2263
vn -0.2616 0.0162 -0.9650
vn 0.5173 -0.3873 0.7631
vn 0.7057 -0.3587 -0.6110
vn -0.0754 0.9912 -0.1085
usemtl Material
s off
f 4//1 2//1 9//1 10//1
f 48//2 47//2 2//2 4//2
f 47//3 46//3 1//3 2//3
f 48//4 4//4 3//4 45//4
f 2//5 1//5 5//5 6//5
f 55//6 3//6 11//6 62//6
f 50//7 4//7 16//7 51//7
f 56//8 6//8 27//8 28//8 77//8
f 52//9 2//9 24//9 73//9
f 54//10 1//10 7//10 58//10
f 1//11 3//11 8//11 7//11
f 61//12 10//12 20//12 70//12
f 4//13 10//13 18//13 17//13
f 58//14 7//14 31//14 80//14
f 7//15 8//15 13//15 12//15
f 15//16 13//16 41//16 43//16
f 64//17 13//17 37//17 86//17
f 68//18 17//18 18//18 69//18
f 53//19 4//19 17//19 68//19
f 10//20 9//20 19//20 20//20
f 9//21 2//21 22//21 23//21
f 60//22 9//22 23//22 72//22
f 73//23 24//23 25//23 74//23
f 2//24 6//24 25//24 24//24
f 6//25 5//25 26//25 27//25
f 75//26 77//26 28//26
f 5//27 1//27 29//27 30//27
f 57//28 5//28 30//28 79//28
f 80//29 31//29 32//29 81//29
f 7//30 12//30 32//30 31//30
f 65//31 14//31 34//31 83//31
f 14//32 8//32 33//32 34//32
f 15//33 14//33 35//33 36//33
f 66//34 15//34 36//34 85//34
f 86//35 37//35 38//35 87//35
f 13//36 15//36 38//36 37//36
f 63//37 12//37 39//37 88//37
f 12//38 13//38 40//38 39//38
f 41//39 42//39 44//39 43//39
f 8//40 14//40 44//40 42//40
f 14//41 15//41 43//41 44//41
f 13//42 8//42 42//42 41//42
f 46//43 45//43 3//43 1//43
f 3//44 4//44 50//44 49//44
f 47//45 48//45 45//45 46//45
f 51//45 91//45 92//45 49//45 50//45
f 3//46 49//46 92//46 90//46 11//46
f 39//47 40//47 89//47 88//47
f 35//48 84//48 85//48 36//48
f 33//49 82//49 83//49 34//49
f 29//50 78//50 79//50 30//50
f 27//51 26//51 76//51 75//51 28//51
f 22//52 71//52 72//52 23//52
f 20//53 19//53 21//53 70//53
f 16//54 67//54 91//54 51//54
f 15//55 66//55 87//55 38//55
f 14//56 65//56 84//56 35//56
f 13//57 64//57 89//57 40//57
f 12//58 63//58 81//58 32//58
f 11//59 90//59 62//59
f 10//60 61//60 69//60 18//60
f 9//61 60//61 21//61 19//61
f 8//62 59//62 82//62 33//62
f 5//63 57//63 76//63 26//63
f 6//64 56//64 74//64 25//64
f 3//65 55//65 59//65 8//65
f 1//66 54//66 78//66 29//66
f 4//67 53//67 67//67 16//67
f 2//68 52//68 71//68 22//68
f 91//69 67//69 53//69 68//69 69//69 61//69 70//69 21//69 60//69 72//69 71//69 52//69 73//69 74//69 56//69 77//69 75//69 76//69 57//69 79//69 78//69 54//69 58//69 80//69 81//69 63//69 88//69 89//69 64//69 86//69 87//69 66//69 85//69 84//69 65//69 83//69 82//69 59//69 55//69 62//69 90//69 92//69
