# Blender v2.78 (sub 0) OBJ File: 'full.blend'
# www.blender.org
mtllib 6.mtl
o Cube.006
v 0.545623 0.581769 0.871827
v 0.510615 0.590281 0.836820
v 0.430779 0.325826 0.756983
v 0.437565 0.340948 0.445911
v 0.545623 0.581769 0.617677
v 0.318109 0.581769 0.871827
v 0.510615 0.590281 0.671006
v 0.362179 0.590281 0.836820
v 0.432058 0.592705 0.762810
v 0.467081 0.406728 0.412947
v 0.062527 0.348161 0.767005
v 0.393510 0.346269 0.394112
vn -0.0000 0.9717 0.2363
vn 0.0000 0.9995 0.0327
vn -0.0618 -0.9968 -0.0498
vn 0.6037 -0.5568 -0.5706
vn 0.0308 0.9995 0.0000
vn -0.0000 -0.4094 0.9124
vn 0.9124 -0.4094 0.0000
vn 0.2363 0.9717 0.0000
vn -0.4976 0.7443 -0.4455
usemtl Material
s off
f 6//1 1//1 2//1 8//1
f 8//2 2//2 9//2
f 12//3 4//3 3//3 11//3
f 12//4 10//4 4//4
f 2//5 7//5 9//5
f 3//6 1//6 6//6 11//6
f 4//7 10//7 5//7 1//7 3//7
f 1//8 5//8 7//8 2//8
f 11//9 6//9 8//9 9//9 7//9 5//9 10//9 12//9
