# Blender v2.78 (sub 0) OBJ File: 'full.blend'
# www.blender.org
mtllib 7.mtl
o Cube.003
v 0.181623 0.055009 0.546570
v -0.214367 0.055009 0.546570
v -0.214367 0.055009 0.150580
v 0.181623 0.055009 0.443071
v -0.094850 0.055009 0.150580
v 0.276102 0.265567 0.641050
v -0.325211 0.302037 0.657414
v -0.339792 0.334533 0.025155
v 0.032653 0.310908 0.035756
v 0.282888 0.280689 0.329977
vn 0.0000 -1.0000 0.0000
vn 0.0000 -0.4094 -0.9124
vn 0.6037 -0.5568 -0.5706
vn -0.9124 -0.4094 -0.0000
vn 0.9124 -0.4094 0.0000
vn -0.0000 -0.4094 0.9124
vn 0.0618 0.9968 0.0498
usemtl Material
s off
f 4//1 1//1 2//1 3//1 5//1
f 9//2 5//2 3//2 8//2
f 9//3 10//3 4//3 5//3
f 2//4 7//4 8//4 3//4
f 4//5 10//5 6//5 1//5
f 1//6 6//6 7//6 2//6
f 9//7 8//7 7//7 6//7 10//7
